SplineFontDB: 3.2
FontName: Ardagh
FullName: Ardagh
FamilyName: Ardagh
Weight: Bold
Copyright: 1996 by Anny Mason
Version: Altsys Fontographer 4.1 05/14/96
ItalicAngle: 0
UnderlinePosition: -143
UnderlineWidth: 20
Ascent: 1638
Descent: 410
InvalidEm: 0
sfntRevision: 0x00010000
LayerCount: 2
Layer: 0 1 "Back" 1
Layer: 1 1 "Fore" 0
XUID: [1021 805 1563760142 10609919]
StyleMap: 0x0020
FSType: 1
OS2Version: 0
OS2_WeightWidthSlopeOnly: 0
OS2_UseTypoMetrics: 0
CreationTime: 832076885
ModificationTime: 1136391627
PfmFamily: 81
TTFWeight: 700
TTFWidth: 5
LineGap: 0
VLineGap: 0
Panose: 0 0 7 0 0 0 0 0 0 0
OS2TypoAscent: 1534
OS2TypoAOffset: 0
OS2TypoDescent: -473
OS2TypoDOffset: 0
OS2TypoLinegap: 0
OS2WinAscent: 1534
OS2WinAOffset: 0
OS2WinDescent: 473
OS2WinDOffset: 0
HheadAscent: 1534
HheadAOffset: 0
HheadDescent: -473
HheadDOffset: 0
OS2SubXSize: 1434
OS2SubYSize: 1331
OS2SubXOff: 0
OS2SubYOff: 293
OS2SupXSize: 1434
OS2SupYSize: 1331
OS2SupXOff: 0
OS2SupYOff: 928
OS2StrikeYSize: 102
OS2StrikeYPos: 530
OS2Vendor: 'ALTS'
OS2UnicodeRanges: 00000003.00000000.00000000.00000000
DEI: 91125
ShortTable: maxp 16
  1
  0
  224
  111
  6
  0
  0
  2
  8
  64
  10
  0
  210
  0
  0
  0
EndShort
LangName: 1033 "" "" "" "Altsys Fontographer 4.1 Ardagh" "" "Altsys Fontographer 4.1 05/14/96"
Encoding: UnicodeBmp
UnicodeInterp: none
NameList: AGL For New Fonts
DisplaySize: -48
AntiAlias: 1
FitToEm: 0
WinInfo: 54 27 9
BeginChars: 65537 224

StartChar: .notdef
Encoding: 65536 -1 0
Width: 1024
Flags: W
LayerCount: 2
Fore
SplineSet
128 0 m 1,0,-1
 128 1534 l 1,1,-1
 896 1534 l 1,2,-1
 896 0 l 1,3,-1
 128 0 l 1,0,-1
256 128 m 1,4,-1
 768 128 l 1,5,-1
 768 1406 l 1,6,-1
 256 1406 l 1,7,-1
 256 128 l 1,4,-1
EndSplineSet
EndChar

StartChar: exclam
Encoding: 33 33 2
Width: 393
Flags: W
LayerCount: 2
Fore
SplineSet
317 1063 m 0,0,1
 309 1023 309 1023 308 924 c 2,2,-1
 306 623 l 2,3,4
 305 465 305 465 264 382 c 0,5,6
 226 303 226 303 101 191 c 1,7,-1
 51 260 l 1,8,9
 95 317 95 317 105 357 c 0,10,11
 113 387 113 387 110 467 c 2,12,-1
 108 531 l 1,13,-1
 102 800 l 2,14,15
 102 936 102 936 155 1024 c 0,16,17
 193 1088 193 1088 315 1201 c 1,18,-1
 361 1124 l 1,19,20
 325 1099 325 1099 317 1063 c 0,0,1
145 -31 m 1,21,-1
 61 125 l 1,22,-1
 213 269 l 1,23,-1
 300 116 l 1,24,-1
 145 -31 l 1,21,-1
EndSplineSet
EndChar

StartChar: quotedbl
Encoding: 34 34 3
Width: 500
Flags: W
LayerCount: 2
Fore
SplineSet
405 844 m 1,0,-1
 337 844 l 1,1,-1
 280 1314 l 1,2,3
 280 1425 280 1425 370 1434 c 0,4,5
 410 1434 410 1434 439 1399 c 1,6,7
 459 1366 459 1366 459 1318 c 2,8,-1
 459 1280 l 1,9,-1
 405 844 l 1,0,-1
217 1291 m 1,10,-1
 217 1280 l 1,11,-1
 164 844 l 1,12,-1
 95 844 l 1,13,-1
 38 1318 l 1,14,15
 38 1434 38 1434 127 1434 c 0,16,17
 175 1434 175 1434 201 1393 c 0,18,19
 223 1358 223 1358 219 1312 c 2,20,-1
 217 1291 l 1,10,-1
EndSplineSet
EndChar

StartChar: numbersign
Encoding: 35 35 4
Width: 1147
Flags: W
LayerCount: 2
Fore
SplineSet
1066 819 m 1,0,-1
 847 820 l 1,1,-1
 790 605 l 1,2,-1
 1022 605 l 1,3,-1
 974 426 l 1,4,-1
 740 426 l 1,5,-1
 623 -4 l 1,6,-1
 457 -4 l 1,7,-1
 576 426 l 1,8,-1
 425 426 l 1,9,-1
 306 -4 l 1,10,-1
 144 -4 l 1,11,-1
 261 426 l 1,12,-1
 32 426 l 1,13,-1
 84 605 l 1,14,-1
 309 605 l 1,15,-1
 368 819 l 1,16,-1
 122 819 l 1,17,-1
 173 998 l 1,18,-1
 415 998 l 1,19,-1
 534 1430 l 1,20,-1
 701 1430 l 1,21,-1
 582 998 l 1,22,-1
 731 998 l 1,23,-1
 848 1430 l 1,24,-1
 1014 1430 l 1,25,-1
 897 998 l 1,26,-1
 1114 998 l 1,27,-1
 1066 819 l 1,0,-1
531 819 m 1,28,-1
 473 605 l 1,29,-1
 626 605 l 1,30,-1
 685 819 l 1,31,-1
 531 819 l 1,28,-1
EndSplineSet
EndChar

StartChar: dollar
Encoding: 36 36 5
Width: 600
Flags: W
LayerCount: 2
Fore
SplineSet
343 1015 m 1,0,1
 427 1013 427 1013 483 959.5 c 128,-1,2
 539 906 539 906 539 825 c 1,3,-1
 535 804 l 1,4,-1
 530 775 l 1,5,-1
 431 747 l 2,6,7
 431 746 431 746 332 718 c 1,8,-1
 357 801 l 2,9,10
 360 810 360 810 360 825 c 0,11,12
 360 852 360 852 345 879 c 2,13,-1
 343 882 l 1,14,-1
 343 632 l 1,15,16
 572 502 572 502 572 367 c 0,17,18
 572 118 572 118 343 0 c 1,19,-1
 343 -223 l 1,20,-1
 237 -223 l 1,21,-1
 237 -26 l 1,22,23
 157 -22 157 -22 16 122 c 1,24,-1
 117 288 l 1,25,26
 172 224 172 224 237 174 c 1,27,-1
 237 431 l 1,28,29
 103 491 103 491 63 537 c 0,30,31
 18 588 18 588 18 671 c 0,32,33
 18 784 18 784 72 873 c 0,34,35
 131 969 131 969 237 1004 c 1,36,-1
 237 1170 l 1,37,-1
 343 1170 l 1,38,-1
 343 1015 l 1,0,1
237 681 m 1,39,-1
 237 915 l 1,40,41
 183 885 183 885 183 770 c 0,42,43
 183 713 183 713 229 687 c 1,44,-1
 237 681 l 1,39,-1
358 373 m 2,45,-1
 343 382 l 1,46,-1
 343 123 l 1,47,-1
 362 122 l 2,48,49
 431 122 431 122 431 256 c 0,50,51
 431 332 431 332 358 373 c 2,45,-1
EndSplineSet
EndChar

StartChar: percent
Encoding: 37 37 6
Width: 879
Flags: W
LayerCount: 2
Fore
SplineSet
850 193 m 0,0,1
 827 123 827 123 780 80 c 0,2,3
 752 49 752 49 687 7 c 0,4,5
 685 6 685 6 676 -2 c 1,6,7
 601 -2 601 -2 536 87 c 0,8,9
 475 171 475 171 475 283 c 0,10,11
 475 401 475 401 516 475 c 0,12,13
 553 543 553 543 651 617 c 1,14,15
 871 617 871 617 871 347 c 0,16,17
 871 257 871 257 850 193 c 0,0,1
584 672 m 0,18,19
 400 304 400 304 260 -53 c 1,20,-1
 138 33 l 1,21,22
 189 127 189 127 247 235 c 0,23,24
 408 542 408 542 535 870 c 1,25,-1
 501 856 l 1,26,-1
 398 826 l 1,27,-1
 402 781 l 1,28,-1
 404 733 l 2,29,30
 410 596 410 596 348 515 c 0,31,32
 297 448 297 448 206 395 c 1,33,34
 133 395 133 395 69 486 c 0,35,36
 8 572 8 572 8 679 c 0,37,38
 8 793 8 793 49 868 c 0,39,40
 87 937 87 937 184 1014 c 1,41,42
 289 1014 289 1014 349 936 c 1,43,-1
 355 936 l 2,44,45
 459 936 459 936 620 1019 c 1,46,-1
 721 940 l 1,47,48
 645 795 645 795 584 672 c 0,18,19
634 489 m 1,49,50
 626 464 626 464 619 428 c 1,51,52
 614 356 614 356 614 328 c 0,53,54
 614 177 614 177 697 129 c 1,55,56
 728 203 728 203 728 302 c 0,57,58
 728 387 728 387 695 441 c 0,59,60
 667 488 667 488 634 489 c 1,49,50
165 885 m 1,61,-1
 162 884 l 1,62,-1
 150 884 l 1,63,-1
 174 902 l 1,64,-1
 152 824 l 1,65,66
 146 751 146 751 146 722 c 0,67,68
 146 569 146 569 231 525 c 1,69,70
 239 542 239 542 250 586 c 1,71,72
 262 677 262 677 262 709 c 0,73,74
 260 738 260 738 247 796 c 1,75,-1
 204 789 l 1,76,-1
 195 874 l 1,77,-1
 182 882 l 1,78,-1
 165 885 l 1,61,-1
EndSplineSet
EndChar

StartChar: ampersand
Encoding: 38 38 7
Width: 846
Flags: W
LayerCount: 2
Fore
SplineSet
372 1021 m 1,0,1
 345 974 345 974 345 927 c 0,2,3
 345 871 345 871 399 745 c 1,4,5
 300 669 300 669 262 610 c 0,6,7
 214 537 214 537 214 432 c 0,8,9
 214 320 214 320 266 238 c 0,10,11
 328 142 328 142 439 142 c 0,12,13
 490 142 490 142 521 168 c 1,14,15
 552 201 552 201 552 269 c 0,16,17
 552 290 552 290 549 322 c 0,18,19
 546 362 546 362 545 370 c 2,20,-1
 525 471 l 1,21,22
 440 464 440 464 397 445 c 0,23,24
 340 421 340 421 303 360 c 1,25,-1
 250 407 l 1,26,27
 337 578 337 578 361 598 c 0,28,29
 400 633 400 633 568 662 c 0,30,31
 594 666 594 666 617 675 c 0,32,33
 714 701 714 701 753 733 c 0,34,35
 788 761 788 761 845 852 c 1,36,-1
 865 765 l 1,37,-1
 867 742 l 1,38,39
 867 670 867 670 825 605 c 0,40,41
 781 537 781 537 712 512 c 1,42,-1
 730 412 l 1,43,-1
 734 375 l 1,44,-1
 736 347 l 2,45,46
 741 271 741 271 629 160 c 0,47,48
 544 76 544 76 447 19 c 0,49,50
 367 -29 367 -29 312 -29 c 0,51,52
 196 -29 196 -29 112 98 c 0,53,54
 31 220 31 220 31 375 c 0,55,56
 31 582 31 582 199 708 c 1,57,58
 170 802 170 802 170 842 c 0,59,60
 170 965 170 965 270 1053 c 0,61,62
 357 1130 357 1130 491 1161 c 1,63,64
 606 1147 606 1147 649 988 c 1,65,-1
 504 858 l 1,66,67
 438 1021 438 1021 379 1021 c 2,68,-1
 372 1021 l 1,0,1
EndSplineSet
EndChar

StartChar: quotesingle
Encoding: 39 39 8
Width: 256
Flags: W
LayerCount: 2
Fore
SplineSet
218 1302 m 1,0,-1
 216 1279 l 1,1,-1
 164 844 l 1,2,-1
 95 844 l 1,3,-1
 41 1288 l 1,4,5
 41 1353 41 1353 52 1380 c 0,6,7
 70 1428 70 1428 125 1434 c 1,8,9
 220 1434 220 1434 220 1316 c 1,10,-1
 218 1302 l 1,0,-1
EndSplineSet
EndChar

StartChar: parenleft
Encoding: 40 40 9
Width: 449
Flags: W
LayerCount: 2
Fore
SplineSet
425 -168 m 0,0,1
 357 -275 357 -275 303 -275 c 0,2,3
 275 -275 275 -275 221.5 -233.5 c 128,-1,4
 168 -192 168 -192 151 -190 c 1,5,-1
 143 -191 l 1,6,-1
 115 -200 l 1,7,-1
 81 -152 l 1,8,9
 103 -101 103 -101 110 -42 c 0,10,11
 124 66 124 66 115 402 c 0,12,13
 109 621 109 621 109 644 c 0,14,15
 109 843 109 843 155 968 c 0,16,17
 211 1125 211 1125 366 1275 c 1,18,-1
 403 1202 l 1,19,20
 345 1137 345 1137 317 1036 c 1,21,22
 298 919 298 919 298 712 c 0,23,24
 298 622 298 622 306 435 c 0,25,26
 314 242 314 242 314 239 c 0,27,28
 314 113 314 113 274 0 c 1,29,30
 345 -51 345 -51 370 -59 c 1,31,-1
 383 -56 l 1,32,-1
 459 -26 l 1,33,-1
 476 -81 l 1,34,35
 450 -128 450 -128 425 -168 c 0,0,1
EndSplineSet
EndChar

StartChar: parenright
Encoding: 41 41 10
Width: 449
Flags: W
LayerCount: 2
Fore
SplineSet
19 997 m 1,0,1
 6 989 6 989 -47 946 c 1,2,-1
 -85 1016 l 1,3,4
 -27 1104 -27 1104 35 1167 c 0,5,6
 79 1212 79 1212 118 1212 c 1,7,-1
 157 1203 l 2,8,9
 179 1199 179 1199 237 1183 c 1,10,-1
 369 1284 l 1,11,12
 334 1038 334 1038 334 965 c 0,13,14
 334 887 334 887 330 800 c 0,15,16
 324 667 324 667 324 663 c 2,17,-1
 328 449 l 2,18,19
 331 265 331 265 331 292 c 1,20,21
 331 115 331 115 247 -35 c 128,-1,22
 163 -185 163 -185 -4 -291 c 1,23,-1
 -31 -206 l 1,24,25
 78 -125 78 -125 116 -33 c 0,26,27
 146 40 146 40 146 171 c 0,28,29
 146 198 146 198 145 259 c 2,30,-1
 143 352 l 1,31,-1
 133 977 l 1,32,-1
 105 973 l 1,33,34
 75 973 75 973 19 997 c 1,0,1
EndSplineSet
EndChar

StartChar: asterisk
Encoding: 42 42 11
Width: 746
Flags: W
LayerCount: 2
Fore
SplineSet
467 860 m 1,0,-1
 625 640 l 1,1,-1
 490 514 l 1,2,-1
 373 766 l 1,3,-1
 256 513 l 1,4,-1
 122 640 l 1,5,-1
 280 861 l 1,6,-1
 50 928 l 1,7,-1
 99 1118 l 1,8,-1
 313 996 l 1,9,-1
 296 1293 l 1,10,-1
 451 1293 l 1,11,-1
 434 996 l 1,12,-1
 647 1117 l 1,13,-1
 698 928 l 1,14,-1
 467 860 l 1,0,-1
EndSplineSet
EndChar

StartChar: plus
Encoding: 43 43 12
Width: 1241
Flags: W
LayerCount: 2
Fore
SplineSet
699 510 m 1,0,-1
 699 0 l 1,1,-1
 544 0 l 1,2,-1
 544 510 l 1,3,-1
 160 510 l 1,4,-1
 160 687 l 1,5,-1
 544 687 l 1,6,-1
 544 1196 l 1,7,-1
 699 1196 l 1,8,-1
 699 687 l 1,9,-1
 1082 687 l 1,10,-1
 1082 510 l 1,11,-1
 699 510 l 1,0,-1
EndSplineSet
EndChar

StartChar: comma
Encoding: 44 44 13
Width: 330
Flags: W
LayerCount: 2
Fore
SplineSet
134 -131 m 1,0,-1
 51 -131 l 1,1,2
 61 -105 61 -105 77 -67 c 0,3,4
 85 -49 85 -49 96 1 c 1,5,6
 95 20 95 20 43 52 c 1,7,-1
 125 238 l 1,8,-1
 260 156 l 1,9,-1
 134 -131 l 1,0,-1
EndSplineSet
EndChar

StartChar: hyphen
Encoding: 45 45 14
AltUni2: 002010.ffffffff.0
Width: 416
Flags: W
LayerCount: 2
Fore
SplineSet
322 454 m 0,0,1
 291 420 291 420 221 420 c 2,2,-1
 103 420 l 1,3,-1
 94 416 l 1,4,-1
 62 386 l 1,5,-1
 -1 412 l 1,6,7
 124 584 124 584 193 583 c 2,8,-1
 208 583 l 1,9,-1
 270 580 l 1,10,-1
 283 580 l 1,11,-1
 293 579 l 2,12,13
 318 579 318 579 328 590 c 0,14,15
 330 593 330 593 345 623 c 1,16,-1
 411 601 l 1,17,18
 388 552 388 552 372 524 c 0,19,20
 344 474 344 474 322 454 c 0,0,1
EndSplineSet
EndChar

StartChar: period
Encoding: 46 46 15
Width: 330
Flags: W
LayerCount: 2
Fore
SplineSet
157 -29 m 1,0,-1
 32 72 l 1,1,-1
 139 239 l 1,2,-1
 261 145 l 1,3,-1
 157 -29 l 1,0,-1
EndSplineSet
EndChar

StartChar: slash
Encoding: 47 47 16
Width: 328
Flags: W
LayerCount: 2
Fore
SplineSet
243 609 m 2,0,1
 171 328 171 328 53 -187 c 1,2,-1
 -74 -187 l 1,3,-1
 298 1293 l 1,4,-1
 419 1293 l 1,5,-1
 243 609 l 2,0,1
EndSplineSet
EndChar

StartChar: zero
Encoding: 48 48 17
Width: 787
Flags: W
LayerCount: 2
Fore
SplineSet
729 286 m 0,0,1
 673 108 673 108 517 15 c 0,2,3
 444 -29 444 -29 393 -29 c 0,4,5
 311 -29 311 -29 223 37 c 0,6,7
 145 96 145 96 99 173 c 0,8,9
 26 297 26 297 26 474 c 0,10,11
 26 859 26 859 373 1015 c 1,12,13
 570 989 570 989 672 832 c 0,14,15
 760 697 760 697 760 496 c 0,16,17
 760 385 760 385 729 286 c 0,0,1
281 856 m 1,18,19
 214 747 214 747 214 554 c 0,20,21
 214 392 214 392 276 281 c 0,22,23
 349 148 349 148 500 114 c 1,24,25
 575 192 575 192 575 382 c 0,26,27
 575 801 575 801 281 856 c 1,18,19
EndSplineSet
EndChar

StartChar: one
Encoding: 49 49 18
Width: 416
Flags: W
LayerCount: 2
Fore
SplineSet
131 -21 m 1,0,-1
 125 826 l 1,1,-1
 97 815 l 1,2,-1
 5 786 l 1,3,-1
 -17 879 l 1,4,5
 179 940 179 940 314 1038 c 1,6,-1
 318 159 l 2,7,8
 318 138 318 138 321 112 c 1,9,-1
 370 119 l 1,10,-1
 381 34 l 1,11,-1
 131 -21 l 1,0,-1
EndSplineSet
EndChar

StartChar: two
Encoding: 50 50 19
Width: 680
Flags: W
LayerCount: 2
Fore
SplineSet
189 696 m 1,0,-1
 222 707 l 1,1,-1
 255 641 l 1,2,-1
 79 524 l 1,3,-1
 36 624 l 1,4,-1
 24 684 l 1,5,6
 24 842 24 842 197 954 c 2,7,-1
 287 1012 l 1,8,-1
 307 1012 l 2,9,10
 447 1012 447 1012 530 902 c 0,11,12
 603 804 603 804 603 666 c 0,13,14
 603 513 603 513 406 319 c 2,15,-1
 295 210 l 1,16,-1
 455 210 l 2,17,18
 522 210 522 210 546 221 c 0,19,20
 567 232 567 232 590 280 c 1,21,-1
 654 248 l 1,22,23
 632 187 632 187 610 126 c 0,24,25
 575 39 575 39 551 20 c 0,26,27
 524 0 524 0 471 0 c 2,28,-1
 35 0 l 1,29,-1
 35 54 l 1,30,-1
 237 300 l 1,31,32
 409 484 409 484 409 642 c 0,33,34
 409 722 409 722 371 787 c 0,35,36
 324 866 324 866 246 867 c 1,37,-1
 213 861 l 2,38,39
 201 857 201 857 192 850 c 1,40,41
 185 838 185 838 177 786 c 0,42,43
 177 765 177 765 188 712 c 0,44,45
 189 706 189 706 189 696 c 1,0,-1
EndSplineSet
EndChar

StartChar: three
Encoding: 51 51 20
Width: 656
Flags: W
LayerCount: 2
Fore
SplineSet
499 80 m 0,0,1
 383 -29 383 -29 223 -29 c 1,2,3
 63 4 63 4 -2 189 c 1,4,-1
 179 254 l 1,5,6
 264 72 264 72 320 72 c 0,7,8
 349 72 349 72 381 137 c 0,9,10
 417 208 417 208 417 293 c 0,11,12
 417 371 417 371 378 425 c 0,13,14
 341 475 341 475 300 476 c 1,15,-1
 286 474 l 1,16,-1
 260 470 l 1,17,-1
 198 458 l 1,18,-1
 185 545 l 1,19,20
 282 562 282 562 321 591 c 0,21,22
 374 629 374 629 374 712 c 0,23,24
 374 784 374 784 330 836 c 0,25,26
 290 885 290 885 244 886 c 1,27,-1
 230 883 l 1,28,-1
 220 879 l 1,29,-1
 213 856 l 1,30,-1
 208 829 l 1,31,-1
 208 818 l 1,32,33
 218 784 218 784 222 775 c 0,34,35
 229 763 229 763 252 737 c 1,36,-1
 69 659 l 1,37,-1
 55 729 l 1,38,-1
 53 752 l 1,39,40
 53 873 53 873 193 960 c 2,41,-1
 282 1014 l 1,42,-1
 312 1014 l 2,43,44
 420 1014 420 1014 485 945 c 0,45,46
 547 879 547 879 547 775 c 0,47,48
 547 660 547 660 451 576 c 1,49,50
 601 503 601 503 601 324 c 0,51,52
 601 175 601 175 499 80 c 0,0,1
EndSplineSet
EndChar

StartChar: four
Encoding: 52 52 21
Width: 682
Flags: W
LayerCount: 2
Fore
SplineSet
564 255 m 1,0,-1
 564 28 l 1,1,-1
 381 -33 l 1,2,-1
 381 241 l 1,3,-1
 38 241 l 1,4,-1
 11 297 l 1,5,-1
 393 979 l 1,6,-1
 564 1021 l 1,7,-1
 564 364 l 1,8,-1
 690 375 l 1,9,-1
 564 255 l 1,0,-1
381 709 m 1,10,-1
 172 361 l 1,11,-1
 381 361 l 1,12,-1
 381 709 l 1,10,-1
EndSplineSet
EndChar

StartChar: five
Encoding: 53 53 22
Width: 625
Flags: W
LayerCount: 2
Fore
SplineSet
563 839 m 1,0,-1
 541 791 l 1,1,2
 525 776 525 776 478 771 c 1,3,-1
 198 771 l 1,4,-1
 161 605 l 1,5,6
 247 673 247 673 301 673 c 0,7,8
 422 673 422 673 501 574 c 0,9,10
 574 483 574 483 574 359 c 0,11,12
 574 76 574 76 165 -129 c 1,13,-1
 138 -49 l 1,14,15
 384 102 384 102 384 320 c 0,16,17
 384 399 384 399 344 448 c 0,18,19
 300 501 300 501 219 501 c 0,20,21
 161 501 161 501 143 483.5 c 128,-1,22
 125 466 125 466 117 408 c 1,23,-1
 28 458 l 1,24,-1
 140 986 l 1,25,-1
 530 989 l 1,26,-1
 552 1012 l 1,27,-1
 601 987 l 1,28,-1
 563 839 l 1,0,-1
EndSplineSet
EndChar

StartChar: six
Encoding: 54 54 23
Width: 670
Flags: W
LayerCount: 2
Fore
SplineSet
537 96 m 0,0,1
 434 -29 434 -29 299 -29 c 0,2,3
 184 -29 184 -29 102 92 c 0,4,5
 24 207 24 207 24 374 c 0,6,7
 24 570 24 570 142 763 c 0,8,9
 255 945 255 945 493 1110 c 1,10,-1
 533 1035 l 1,11,12
 354 881 354 881 276 699 c 1,13,-1
 386 744 l 1,14,15
 638 665 638 665 638 382 c 0,16,17
 638 218 638 218 537 96 c 0,0,1
413 506 m 0,18,19
 354 598 354 598 292 601 c 1,20,-1
 265 593 l 2,21,22
 249 587 249 587 237 578 c 1,23,-1
 220 507 l 1,24,25
 215 433 215 433 215 401 c 0,26,27
 215 287 215 287 276 180 c 0,28,29
 332 82 332 82 381 82 c 0,30,31
 431 82 431 82 458 160 c 0,32,33
 477 217 477 217 477 282 c 0,34,35
 477 405 477 405 413 506 c 0,18,19
EndSplineSet
EndChar

StartChar: seven
Encoding: 55 55 24
Width: 604
Flags: W
LayerCount: 2
Fore
SplineSet
361 371 m 2,0,1
 257 148 257 148 221 -15 c 1,2,-1
 59 -15 l 1,3,4
 91 125 91 125 190 324 c 0,5,6
 216 376 216 376 364 649 c 2,7,-1
 437 784 l 1,8,-1
 228 784 l 2,9,10
 183 784 183 784 152 772 c 0,11,12
 126 766 126 766 92 722 c 1,13,-1
 44 762 l 1,14,-1
 88 1006 l 1,15,-1
 144 1006 l 1,16,-1
 152 986 l 1,17,-1
 158 986 l 1,18,-1
 647 986 l 1,19,-1
 361 371 l 2,0,1
EndSplineSet
EndChar

StartChar: eight
Encoding: 56 56 25
Width: 643
Flags: W
LayerCount: 2
Fore
SplineSet
594 207 m 0,0,1
 551 82 551 82 422 16 c 0,2,3
 338 -27 338 -27 279 -27 c 0,4,5
 171 -27 171 -27 95 63 c 0,6,7
 24 146 24 146 24 252 c 0,8,9
 24 328 24 328 57 386 c 0,10,11
 80 426 80 426 145 494 c 1,12,13
 55 557 55 557 55 677 c 0,14,15
 55 860 55 860 217 971 c 0,16,17
 278 1012 278 1012 317 1016 c 1,18,19
 412 1016 412 1016 488 938 c 128,-1,20
 564 860 564 860 564 768 c 0,21,22
 564 663 564 663 457 560 c 1,23,24
 538 512 538 512 572 464 c 0,25,26
 613 408 613 408 613 324 c 0,27,28
 613 263 613 263 594 207 c 0,0,1
408 764 m 0,29,30
 375 822 375 822 283 861 c 0,31,32
 240 879 240 879 232 879 c 0,33,34
 183 879 183 879 183 777 c 0,35,36
 183 739 183 739 195.5 721 c 128,-1,37
 208 703 208 703 383 604 c 1,38,39
 424 651 424 651 424 703 c 0,40,41
 424 736 424 736 408 764 c 0,29,30
446 315 m 0,42,43
 426 344 426 344 219 453 c 1,44,45
 169 405 169 405 169 341 c 0,46,47
 169 251 169 251 242 175.5 c 128,-1,48
 315 100 315 100 409 97 c 1,49,50
 469 138 469 138 469 232 c 0,51,52
 469 282 469 282 446 315 c 0,42,43
EndSplineSet
EndChar

StartChar: nine
Encoding: 57 57 26
Width: 670
Flags: W
LayerCount: 2
Fore
SplineSet
169 -124 m 1,1,-1
 128 -52 l 1,2,3
 312 100 312 100 386 288 c 1,4,-1
 276 238 l 1,5,6
 26 322 26 322 26 602 c 0,7,8
 26 765 26 765 126.5 889.5 c 128,-1,9
 227 1014 227 1014 365 1014 c 0,10,11
 481 1014 481 1014 562 895 c 0,12,13
 638 783 638 783 638 610 c 0,14,15
 638 411 638 411 521 222.5 c 128,-1,0
 404 34 404 34 169 -124 c 1,1,-1
435 693 m 0,16,17
 420 755 420 755 380 820 c 0,18,19
 329 903 329 903 281 903 c 0,20,21
 245 903 245 903 217 855 c 0,22,23
 185 799 185 799 185 704 c 0,24,25
 185 582 185 582 249 481 c 0,26,27
 309 387 309 387 373 387 c 0,28,29
 401 387 401 387 424 406 c 1,30,31
 448 512 448 512 448 567 c 0,32,33
 448 638 448 638 435 693 c 0,16,17
EndSplineSet
EndChar

StartChar: colon
Encoding: 58 58 27
Width: 379
Flags: W
LayerCount: 2
Fore
SplineSet
191 333 m 1,0,-1
 70 445 l 1,1,-1
 176 636 l 1,2,-1
 300 527 l 1,3,-1
 191 333 l 1,0,-1
172 -31 m 1,4,-1
 54 83 l 1,5,-1
 157 269 l 1,6,-1
 282 165 l 1,7,-1
 172 -31 l 1,4,-1
EndSplineSet
EndChar

StartChar: semicolon
Encoding: 59 59 28
Width: 379
Flags: W
LayerCount: 2
Fore
SplineSet
191 330 m 1,0,-1
 70 443 l 1,1,-1
 176 636 l 1,2,-1
 300 525 l 1,3,-1
 191 330 l 1,0,-1
150 -131 m 1,4,-1
 65 -131 l 1,5,6
 100 -56 100 -56 108 -14 c 0,7,8
 108 -2 108 -2 110 9 c 0,9,10
 110 24 110 24 107 31 c 0,11,12
 100 39 100 39 59 64 c 1,13,-1
 142 263 l 1,14,-1
 277 176 l 1,15,-1
 150 -131 l 1,4,-1
EndSplineSet
EndChar

StartChar: less
Encoding: 60 60 29
Width: 1241
Flags: W
LayerCount: 2
Fore
SplineSet
167 526 m 1,0,-1
 167 673 l 1,1,-1
 1074 1154 l 1,2,-1
 1074 954 l 1,3,-1
 396 598 l 1,4,-1
 1074 244 l 1,5,-1
 1074 45 l 1,6,-1
 167 526 l 1,0,-1
EndSplineSet
EndChar

StartChar: equal
Encoding: 61 61 30
Width: 1241
Flags: W
LayerCount: 2
Fore
SplineSet
159 691 m 1,0,-1
 159 860 l 1,1,-1
 1082 860 l 1,2,-1
 1082 691 l 1,3,-1
 159 691 l 1,0,-1
159 336 m 1,4,-1
 159 505 l 1,5,-1
 1082 505 l 1,6,-1
 1082 336 l 1,7,-1
 159 336 l 1,4,-1
EndSplineSet
EndChar

StartChar: greater
Encoding: 62 62 31
Width: 1241
Flags: W
LayerCount: 2
Fore
SplineSet
167 45 m 1,0,-1
 167 244 l 1,1,-1
 848 598 l 1,2,-1
 167 954 l 1,3,-1
 167 1154 l 1,4,-1
 1074 673 l 1,5,-1
 1074 526 l 1,6,-1
 167 45 l 1,0,-1
EndSplineSet
EndChar

StartChar: question
Encoding: 63 63 32
Width: 496
Flags: W
LayerCount: 2
Fore
SplineSet
375 749 m 2,0,-1
 347 693 l 2,1,2
 291 585 291 585 291 538 c 0,3,4
 291 448 291 448 340 433 c 1,5,-1
 377 451 l 1,6,-1
 407 391 l 1,7,8
 270 237 270 237 226 237 c 0,9,10
 177 237 177 237 141 295 c 1,11,12
 104 344 104 344 104 403 c 256,13,14
 104 462 104 462 182 586 c 0,15,16
 237 675 237 675 237 752 c 0,17,18
 237 840 237 840 196 894 c 0,19,20
 173 923 173 923 148 923 c 0,21,22
 139 923 139 923 127 913 c 2,23,-1
 50 827 l 1,24,-1
 -10 886 l 1,25,26
 166 1153 166 1153 271 1153 c 0,27,28
 350 1153 350 1153 399 1083 c 0,29,30
 443 1021 443 1021 443 943 c 0,31,32
 443 881 443 881 375 749 c 2,0,-1
209 -31 m 1,33,-1
 122 125 l 1,34,-1
 275 269 l 1,35,-1
 361 116 l 1,36,-1
 209 -31 l 1,33,-1
EndSplineSet
EndChar

StartChar: at
Encoding: 64 64 33
Width: 1469
Flags: W
LayerCount: 2
Fore
SplineSet
1351 459 m 0,0,1
 1311 329 1311 329 1233 233 c 0,2,3
 1134 110 1134 110 1016 110 c 0,4,5
 890 110 890 110 853 243 c 2,6,-1
 850 253 l 1,7,8
 764 112 764 112 641 112 c 0,9,10
 517 112 517 112 456 233 c 0,11,12
 409 326 409 326 409 458 c 0,13,14
 409 601 409 601 476 743 c 0,15,16
 550 897 550 897 667 965 c 0,17,18
 728 1000 728 1000 791 1000 c 0,19,20
 901 1000 901 1000 949 894 c 1,21,-1
 969 984 l 1,22,-1
 1135 984 l 1,23,-1
 1001 360 l 2,24,25
 990 310 990 310 990 284 c 0,26,27
 990 206 990 206 1030 206 c 0,28,29
 1050 206 1050 206 1078 223 c 0,30,31
 1113 240 1113 240 1134 268 c 1,32,33
 1304 429 1304 429 1304 770 c 0,34,35
 1304 995 1304 995 1185 1150 c 0,36,37
 1053 1323 1053 1323 828 1323 c 0,38,39
 620 1323 620 1323 468 1179 c 0,40,41
 335 1052 335 1052 271 843 c 0,42,43
 224 689 224 689 224 504 c 0,44,45
 224 294 224 294 298 137 c 0,46,47
 385 -48 385 -48 561 -127 c 0,48,49
 663 -172 663 -172 778 -172 c 0,50,51
 1023 -172 1023 -172 1237 36 c 1,52,-1
 1290 -43 l 1,53,54
 1049 -275 1049 -275 778 -275 c 0,55,56
 440 -275 440 -275 250 -30 c 0,57,58
 78 191 78 191 78 528 c 0,59,60
 78 789 78 789 197 1016 c 0,61,62
 327 1266 327 1266 552 1370 c 0,63,64
 673 1426 673 1426 813 1426 c 0,65,66
 1076 1426 1076 1426 1236 1235 c 0,67,68
 1393 1049 1393 1049 1393 747 c 0,69,70
 1393 595 1393 595 1351 459 c 0,0,1
863 868 m 0,71,72
 840 907 840 907 803 907 c 0,73,74
 742 907 742 907 690 795 c 1,75,76
 648 732 648 732 608 580 c 0,77,78
 578 465 578 465 578 369 c 0,79,80
 578 318 578 318 594 272 c 0,81,82
 615 210 615 210 656 210 c 0,83,84
 734 210 734 210 805 363 c 0,85,86
 838 433 838 433 863.5 545.5 c 128,-1,87
 889 658 889 658 889 737 c 0,88,89
 889 824 889 824 863 868 c 0,71,72
EndSplineSet
EndChar

StartChar: A
Encoding: 65 65 34
Width: 709
Flags: W
LayerCount: 2
Fore
SplineSet
550 -43 m 1,0,-1
 474 90 l 1,1,-1
 448 145 l 1,2,3
 288 7 288 7 132 -14 c 1,4,5
 71 10 71 10 32 63 c 128,-1,6
 -7 116 -7 116 -7 177 c 0,7,8
 -7 371 -7 371 330 564 c 1,9,10
 294 707 294 707 292 713 c 0,11,12
 262 802 262 802 213 845 c 1,13,-1
 143 786 l 1,14,-1
 97 853 l 1,15,16
 156 913 156 913 258 1002 c 1,17,-1
 295 1014 l 1,18,19
 374 1014 374 1014 444 896 c 0,20,21
 479 837 479 837 538 565 c 0,22,23
 601 281 601 281 712 96 c 1,24,-1
 550 -43 l 1,0,-1
353 467 m 1,25,-1
 377 448 l 1,26,-1
 365 448 l 1,27,-1
 353 450 l 1,28,29
 278 449 278 449 224 398.5 c 128,-1,30
 170 348 170 348 170 276 c 0,31,32
 170 217 170 217 256 129 c 1,33,-1
 269 128 l 1,34,35
 364 127 364 127 398 276 c 1,36,-1
 353 467 l 1,25,-1
EndSplineSet
EndChar

StartChar: B
Encoding: 66 66 35
Width: 766
Flags: W
LayerCount: 2
Fore
SplineSet
265 915 m 1,0,-1
 272 924 l 1,1,-1
 289 940 l 2,2,3
 303 953 303 953 327 963 c 2,4,-1
 409 1012 l 1,5,6
 507 1012 507 1012 566 964 c 0,7,8
 631 912 631 912 631 818 c 0,9,10
 631 718 631 718 533 618 c 1,11,12
 622 580 622 580 681 498 c 0,13,14
 742 413 742 413 742 322 c 0,15,16
 742 250 742 250 713 193 c 1,17,18
 679 108 679 108 558 38 c 0,19,20
 443 -29 443 -29 346 -29 c 1,21,-1
 304 -23 l 1,22,-1
 236 -6 l 1,23,-1
 75 36 l 1,24,-1
 83 117 l 1,25,-1
 87 179 l 1,26,-1
 94 663 l 1,27,28
 94 658 94 658 88 766 c 0,29,30
 85 776 85 776 84 782 c 2,31,-1
 64 857 l 2,32,33
 61 863 61 863 59 868 c 0,34,35
 57 869 57 869 55 870 c 2,36,-1
 49 869 l 1,37,-1
 17 869 l 1,38,-1
 -2 946 l 1,39,-1
 225 1016 l 1,40,41
 240 987 240 987 262 927 c 1,42,-1
 265 915 l 1,0,-1
485 395 m 0,43,44
 428 483 428 483 345 519 c 1,45,-1
 263 519 l 1,46,-1
 257 581 l 1,47,48
 475 624 475 624 475 724 c 0,49,50
 475 768 475 768 428 818 c 0,51,52
 392 856 392 856 333 869 c 1,53,54
 314 850 314 850 291 815 c 1,55,-1
 285 135 l 1,56,57
 326 112 326 112 432 72 c 1,58,59
 483 79 483 79 515 122 c 0,60,61
 545 162 545 162 545 212 c 0,62,63
 545 302 545 302 485 395 c 0,43,44
EndSplineSet
EndChar

StartChar: C
Encoding: 67 67 36
Width: 754
Flags: W
LayerCount: 2
Fore
SplineSet
616 40 m 0,0,1
 512 -29 512 -29 307 -29 c 2,2,-1
 280 -29 l 1,3,4
 26 113 26 113 26 459 c 0,5,6
 26 618 26 618 94 745 c 0,7,8
 170 887 170 887 312 949 c 2,9,-1
 464 1015 l 1,10,11
 609 990 609 990 726 856 c 1,12,-1
 591 724 l 1,13,14
 474 855 474 855 369 889 c 1,15,16
 286 860 286 860 247 725 c 0,17,18
 220 629 220 629 220 513 c 0,19,20
 220 374 220 374 280 251 c 0,21,22
 350 108 350 108 469 70 c 1,23,24
 522 100 522 100 552 214 c 0,25,26
 561 250 561 250 561 334 c 1,27,-1
 736 285 l 1,28,29
 736 119 736 119 616 40 c 0,0,1
EndSplineSet
EndChar

StartChar: D
Encoding: 68 68 37
Width: 834
Flags: W
LayerCount: 2
Fore
SplineSet
727 213 m 0,0,1
 672 118 672 118 584 62 c 0,2,3
 546 37 546 37 395 -30 c 1,4,5
 214 -8 214 -8 116 139 c 0,6,7
 28 270 28 270 28 454 c 0,8,9
 28 624 28 624 112 745 c 0,10,11
 188 854 188 854 349 947 c 1,12,-1
 381 878 l 1,13,14
 288 811 288 811 252 723 c 0,15,16
 220 647 220 647 220 525 c 0,17,18
 220 361 220 361 311 235 c 0,19,20
 399 114 399 114 510 113 c 1,21,22
 549 118 549 118 583 200 c 0,23,24
 620 290 620 290 620 426 c 0,25,26
 620 626 620 626 360 895 c 1,27,-1
 354 902 l 1,28,29
 178 1072 178 1072 178 1123 c 0,30,31
 178 1156 178 1156 220 1209 c 2,32,-1
 321 1338 l 1,33,-1
 372 1279 l 1,34,-1
 350 1240 l 1,35,-1
 652 912 l 2,36,37
 801 749 801 749 801 507 c 0,38,39
 801 342 801 342 727 213 c 0,0,1
EndSplineSet
EndChar

StartChar: E
Encoding: 69 69 38
Width: 768
Flags: W
LayerCount: 2
Fore
SplineSet
676 90 m 0,0,1
 632 38 632 38 537 8 c 1,2,3
 458 -11 458 -11 378 -29 c 1,4,5
 202 -1 202 -1 108 152 c 0,6,7
 27 284 27 284 27 466 c 0,8,9
 27 684 27 684 132 813 c 0,10,11
 229 933 229 933 450 1014 c 1,12,13
 592 1014 592 1014 736 840 c 1,14,-1
 598 697 l 1,15,16
 530 787 530 787 456 838 c 0,17,18
 395 881 395 881 368 884 c 0,19,20
 323 883 323 883 283 806 c 0,21,22
 256 751 256 751 241 688 c 0,23,24
 229 635 229 635 227 575 c 1,25,-1
 510 568 l 2,26,27
 545 568 545 568 567 576 c 0,28,29
 599 588 599 588 649 625 c 1,30,-1
 678 547 l 1,31,32
 568 458 568 458 476 441 c 0,33,34
 444 435 444 435 232 433 c 1,35,36
 238 312 238 312 329 201 c 0,37,38
 414 97 414 97 496 97 c 0,39,40
 572 97 572 97 614 347 c 1,41,-1
 751 284 l 1,42,43
 724 147 724 147 676 90 c 0,0,1
EndSplineSet
EndChar

StartChar: F
Encoding: 70 70 39
Width: 596
Flags: W
LayerCount: 2
Fore
SplineSet
512 998 m 1,0,1
 426 1082 426 1082 374 1119 c 0,2,3
 346 1139 346 1139 326 1142 c 1,4,5
 306 1129 306 1129 293 1109 c 1,6,7
 281 1079 281 1079 281 1027 c 0,8,9
 281 987 281 987 288 929 c 0,10,11
 293 894 293 894 298 860 c 0,12,13
 300 811 300 811 308 664 c 0,14,15
 312 604 312 604 312 553 c 2,16,-1
 312 394 l 2,17,18
 312 367 312 367 310 322 c 0,19,20
 309 268 309 268 308 250 c 1,21,-1
 506 240 l 1,22,-1
 532 245 l 2,23,24
 542 249 542 249 577 283 c 1,25,-1
 615 220 l 1,26,27
 572 173 572 173 519 136 c 1,28,29
 482 116 482 116 413 114 c 1,30,31
 455 115 455 115 306 117 c 1,32,-1
 306 -284 l 1,33,-1
 104 -316 l 1,34,-1
 108 121 l 1,35,-1
 30 126 l 1,36,-1
 108 235 l 1,37,-1
 108 405 l 2,38,39
 108 461 108 461 104 590 c 0,40,41
 99 749 99 749 90 910 c 0,42,43
 85 1006 85 1006 180 1119 c 0,44,45
 264 1220 264 1220 408 1294 c 1,46,47
 510 1274 510 1274 633 1139 c 1,48,-1
 512 998 l 1,0,1
EndSplineSet
EndChar

StartChar: G
Encoding: 71 71 40
Width: 846
Flags: W
LayerCount: 2
Fore
SplineSet
783 103 m 2,0,1
 780 -51 780 -51 721 -142 c 0,2,3
 658 -237 658 -237 509 -302 c 1,4,-1
 469 -231 l 1,5,6
 556 -197 556 -197 569 -120 c 0,7,8
 572 -103 572 -103 574 49 c 1,9,10
 453 -37 453 -37 369 -37 c 0,11,12
 242 -37 242 -37 130 103 c 0,13,14
 26 233 26 233 26 453 c 0,15,16
 26 669 26 669 133 799 c 0,17,18
 221 906 221 906 442 1015 c 1,19,20
 603 1001 603 1001 747 847 c 1,21,-1
 637 638 l 1,22,23
 528 840 528 840 385 876 c 1,24,25
 280 845 280 845 245 743 c 0,26,27
 224 679 224 679 224 538 c 0,28,29
 224 347 224 347 307 211 c 0,30,31
 386 81 386 81 477 81 c 0,32,33
 499 81 499 81 577 204 c 1,34,-1
 581 373 l 2,35,36
 582 404 582 404 576 418 c 0,37,38
 573 422 573 422 570 423 c 2,39,-1
 537 418 l 1,40,-1
 521 493 l 1,41,-1
 792 530 l 1,42,-1
 783 103 l 2,0,1
EndSplineSet
EndChar

StartChar: H
Encoding: 72 72 41
Width: 877
Flags: W
LayerCount: 2
Fore
SplineSet
755 102 m 1,0,-1
 796 106 l 1,1,-1
 800 22 l 1,2,-1
 623 -13 l 1,3,-1
 595 -16 l 1,4,5
 569 9 569 9 563 22 c 0,6,7
 549 59 549 59 553 114 c 2,8,-1
 569 336 l 2,9,10
 570 356 570 356 588 570 c 2,11,-1
 592 618 l 2,12,13
 597 673 597 673 569.5 725 c 128,-1,14
 542 777 542 777 473 830 c 1,15,16
 428 858 428 858 401 860 c 1,17,-1
 396 859 l 1,18,19
 352 820 352 820 318 726 c 0,20,21
 285 638 285 638 285 574 c 2,22,-1
 281 16 l 1,23,-1
 84 -20 l 1,24,-1
 74 1038 l 1,25,-1
 53 1132 l 2,26,27
 52 1141 52 1141 49 1146 c 0,28,29
 48 1146 48 1146 43 1146 c 2,30,-1
 10 1146 l 1,31,-1
 2 1224 l 1,32,-1
 224 1300 l 1,33,34
 284 1137 284 1137 296 887 c 1,35,36
 402 1000 402 1000 507 1025 c 1,37,38
 629 1004 629 1004 713 889 c 128,-1,39
 797 774 797 774 797 671 c 0,40,41
 797 654 797 654 795 637 c 2,42,-1
 791 594 l 1,43,-1
 750 143 l 2,44,45
 750 115 750 115 755 103 c 1,46,-1
 755 102 l 1,0,-1
EndSplineSet
EndChar

StartChar: I
Encoding: 73 73 42
Width: 377
Flags: W
LayerCount: 2
Fore
SplineSet
84 -23 m 1,0,-1
 87 701 l 2,1,2
 87 887 87 887 75 897 c 0,3,4
 43 917 43 917 36 968 c 1,5,-1
 287 1020 l 1,6,-1
 287 33 l 1,7,-1
 84 -23 l 1,0,-1
EndSplineSet
EndChar

StartChar: J
Encoding: 74 74 43
Width: 441
Flags: W
LayerCount: 2
Fore
SplineSet
230 -211 m 0,0,1
 127 -324 127 -324 -30 -324 c 1,2,-1
 -72 -320 l 1,3,-1
 -118 -302 l 1,4,-1
 -178 -172 l 1,5,-1
 55 -31 l 1,6,-1
 50 -109 l 1,7,-1
 50 -140 l 2,8,9
 50 -174 50 -174 61 -190 c 128,-1,10
 72 -206 72 -206 82 -206 c 0,11,12
 101 -206 101 -206 113 -151 c 0,13,14
 128 -78 128 -78 128 144 c 2,15,-1
 124 875 l 1,16,-1
 35 885 l 1,17,-1
 35 986 l 1,18,-1
 213 972 l 1,19,-1
 225 975 l 1,20,-1
 261 986 l 1,21,-1
 330 1010 l 1,22,-1
 328 167 l 1,23,24
 332 27 332 27 320 -33 c 0,25,26
 301 -132 301 -132 230 -211 c 0,0,1
EndSplineSet
EndChar

StartChar: K
Encoding: 75 75 44
Width: 715
Flags: W
LayerCount: 2
Fore
SplineSet
410 488 m 1,0,1
 462 455 462 455 535 340 c 2,2,-1
 585 262 l 1,3,-1
 596 241 l 2,4,5
 685 79 685 79 753 79 c 1,6,-1
 763 14 l 1,7,-1
 673 -22 l 1,8,9
 643 -28 643 -28 601 -33 c 1,10,11
 514 -33 514 -33 383 196 c 1,12,-1
 370 213 l 1,13,14
 316 303 316 303 297 314 c 1,15,-1
 281 293 l 1,16,-1
 281 18 l 1,17,-1
 83 -21 l 1,18,-1
 83 755 l 2,19,20
 83 914 83 914 65 1050 c 0,21,22
 63 1067 63 1067 60 1121 c 0,23,24
 59 1145 59 1145 51 1145 c 2,25,-1
 44 1145 l 1,26,-1
 13 1138 l 1,27,-1
 -1 1217 l 1,28,-1
 222 1297 l 1,29,30
 261 1195 261 1195 269 1054 c 0,31,32
 281 845 281 845 281 706 c 2,33,-1
 281 485 l 1,34,35
 461 750 461 750 494 996 c 1,36,-1
 702 996 l 1,37,38
 629 805 629 805 410 488 c 1,0,1
EndSplineSet
EndChar

StartChar: L
Encoding: 76 76 45
Width: 453
Flags: W
LayerCount: 2
Fore
SplineSet
430 28 m 0,0,1
 395 -2 395 -2 352 -2 c 2,2,-1
 287 4 l 1,3,-1
 213 9 l 1,4,-1
 168 6 l 1,5,-1
 83 -3 l 1,6,-1
 77 956 l 1,7,8
 65 1155 65 1155 43 1155 c 2,9,-1
 39 1155 l 1,10,11
 7 1176 7 1176 4 1222 c 1,12,-1
 231 1301 l 1,13,14
 287 1069 287 1069 287 904 c 2,15,-1
 287 767 l 1,16,-1
 280 131 l 1,17,-1
 323 123 l 1,18,-1
 345 121 l 1,19,-1
 360 119 l 2,20,21
 364 120 364 120 377 127 c 2,22,-1
 463 194 l 1,23,-1
 506 130 l 1,24,25
 462 55 462 55 430 28 c 0,0,1
EndSplineSet
EndChar

StartChar: M
Encoding: 77 77 46
Width: 1235
Flags: W
LayerCount: 2
Fore
SplineSet
952 -17 m 1,0,1
 914 29 914 29 914 80 c 2,2,-1
 914 112 l 1,3,-1
 916 138 l 1,4,-1
 951 602 l 2,5,6
 956 708 956 708 907 782 c 0,7,8
 863 845 863 845 811 845 c 0,9,10
 802 845 802 845 778 837 c 1,11,12
 753 791 753 791 713 696 c 1,13,-1
 707 16 l 1,14,-1
 510 -20 l 1,15,-1
 520 631 l 2,16,17
 521 723 521 723 477 787 c 0,18,19
 438 844 438 844 387 845 c 1,20,-1
 372 842 l 1,21,-1
 348 833 l 1,22,-1
 304 745 l 1,23,-1
 287 695 l 1,24,-1
 281 16 l 1,25,-1
 84 -20 l 1,26,-1
 90 702 l 1,27,-1
 82 751 l 2,28,29
 73 813 73 813 56 860 c 1,30,-1
 28 863 l 1,31,-1
 12 937 l 1,32,-1
 236 1011 l 1,33,34
 261 927 261 927 272 880 c 1,35,36
 349 976 349 976 450 1014 c 1,37,38
 585 1014 585 1014 675 848 c 1,39,40
 765 980 765 980 877 1014 c 1,41,42
 964 1014 964 1014 1042 933 c 0,43,44
 1107 866 1107 866 1139 775 c 0,45,46
 1158 720 1158 720 1158 653 c 1,47,-1
 1154 626 l 1,48,-1
 1152 586 l 1,49,-1
 1113 166 l 2,50,51
 1109 119 1109 119 1116 99 c 1,52,-1
 1156 108 l 1,53,-1
 1161 22 l 1,54,-1
 952 -17 l 1,0,1
EndSplineSet
EndChar

StartChar: N
Encoding: 78 78 47
Width: 877
Flags: W
LayerCount: 2
Fore
SplineSet
757 101 m 1,0,-1
 794 106 l 1,1,-1
 803 22 l 1,2,-1
 597 -17 l 1,3,4
 564 17 564 17 557 39.5 c 128,-1,5
 550 62 550 62 554 113 c 2,6,-1
 556 138 l 1,7,-1
 594 634 l 1,8,9
 594 706 594 706 534 775.5 c 128,-1,10
 474 845 474 845 399 849 c 1,11,12
 352 811 352 811 318 720 c 0,13,14
 288 638 288 638 287 568 c 2,15,-1
 280 16 l 1,16,-1
 83 -20 l 1,17,-1
 89 702 l 1,18,-1
 81 751 l 2,19,20
 72 813 72 813 55 860 c 1,21,-1
 27 863 l 1,22,-1
 11 937 l 1,23,-1
 236 1012 l 1,24,-1
 272 884 l 1,25,-1
 279 849 l 1,26,27
 395 987 395 987 507 1015 c 1,28,29
 625 995 625 995 711 880 c 128,-1,30
 797 765 797 765 797 656 c 2,31,-1
 797 627 l 2,32,33
 797 602 797 602 793 586 c 2,34,-1
 752 141 l 2,35,36
 752 117 752 117 757 101 c 1,0,-1
EndSplineSet
EndChar

StartChar: O
Encoding: 79 79 48
Width: 852
Flags: W
LayerCount: 2
Fore
SplineSet
739 193 m 0,0,1
 677 93 677 93 585 44 c 0,2,3
 537 18 537 18 383 -29 c 1,4,-1
 361 -29 l 2,5,6
 264 -29 264 -29 139 115 c 0,7,8
 26 244 26 244 26 462 c 0,9,10
 26 624 26 624 102 758 c 0,11,12
 185 901 185 901 332 965 c 2,13,-1
 445 1015 l 1,14,15
 632 996 632 996 735 840 c 0,16,17
 824 705 824 705 824 515 c 0,18,19
 824 330 824 330 739 193 c 0,0,1
542 736 m 0,20,21
 466 844 466 844 320 866 c 1,22,23
 222 772 222 772 222 541 c 0,24,25
 222 390 222 390 261 299 c 0,26,27
 310 188 310 188 430 125 c 0,28,29
 467 106 467 106 498 102 c 1,30,-1
 510 104 l 1,31,-1
 518 104 l 1,32,33
 624 186 624 186 624 421 c 0,34,35
 624 621 624 621 542 736 c 0,20,21
EndSplineSet
EndChar

StartChar: P
Encoding: 80 80 49
Width: 852
Flags: W
LayerCount: 2
Fore
SplineSet
58 845 m 1,0,-1
 57 845 l 1,1,-1
 32 845 l 1,2,-1
 19 921 l 1,3,-1
 235 996 l 1,4,-1
 249 962 l 1,5,6
 269 899 269 899 278 855 c 1,7,8
 387 980 387 980 500 1015 c 1,9,10
 640 993 640 993 734 852 c 0,11,12
 826 715 826 715 826 539 c 0,13,14
 826 308 826 308 733 173 c 0,15,16
 636 33 636 33 415 -43 c 1,17,18
 368 -38 368 -38 335 -18 c 0,19,20
 323 -14 323 -14 294 7 c 2,21,-1
 287 12 l 1,22,-1
 285 -368 l 1,23,-1
 88 -434 l 1,24,-1
 94 681 l 2,25,26
 92 692 92 692 92 707 c 0,27,28
 90 718 90 718 85 732 c 2,29,-1
 58 845 l 1,0,-1
561 749 m 0,30,31
 490 862 490 862 406 867 c 1,32,33
 295 779 295 779 294 677 c 2,34,-1
 291 239 l 1,35,36
 318 157 318 157 471 72 c 1,37,38
 541 76 541 76 586 178 c 0,39,40
 636 291 636 291 636 483 c 0,41,42
 636 630 636 630 561 749 c 0,30,31
EndSplineSet
EndChar

StartChar: Q
Encoding: 81 81 50
Width: 858
Flags: W
LayerCount: 2
Fore
SplineSet
571 -432 m 1,0,-1
 571 53 l 1,1,2
 421 -42 421 -42 326 -42 c 1,3,4
 180 7 180 7 100 147 c 0,5,6
 28 272 28 272 28 431 c 0,7,8
 28 664 28 664 131 800 c 0,9,10
 231 931 231 931 460 1014 c 1,11,12
 508 1014 508 1014 553 987 c 2,13,-1
 672 915 l 1,14,-1
 790 970 l 1,15,-1
 773 824 l 1,16,-1
 771 701 l 1,17,-1
 771 -162 l 2,18,19
 771 -259 771 -259 780 -293 c 0,20,21
 787 -321 787 -321 835 -359 c 1,22,-1
 571 -432 l 1,0,-1
571 752 m 1,23,24
 443 871 443 871 348 871 c 0,25,26
 310 871 310 871 267 767 c 0,27,28
 220 652 220 652 220 501 c 0,29,30
 220 290 220 290 347 153 c 0,31,32
 360 138 360 138 377 126 c 0,33,34
 387 117 387 117 410 103 c 0,35,36
 435 85 435 85 459 81 c 1,37,38
 487 83 487 83 519 124 c 0,39,40
 555 170 555 170 571 244 c 1,41,-1
 571 752 l 1,23,24
EndSplineSet
EndChar

StartChar: R
Encoding: 82 82 51
Width: 809
Flags: W
LayerCount: 2
Fore
SplineSet
283 257 m 1,0,-1
 281 15 l 1,1,-1
 84 -21 l 1,2,-1
 90 702 l 1,3,-1
 82 751 l 2,4,5
 73 813 73 813 56 859 c 1,6,-1
 28 863 l 1,7,-1
 12 937 l 1,8,-1
 236 1011 l 1,9,-1
 270 894 l 1,10,11
 369 984 369 984 443 1015 c 1,12,13
 598 997 598 997 680 888 c 0,14,15
 756 788 756 788 756 634 c 0,16,17
 756 423 756 423 530 314 c 1,18,19
 684 76 684 76 754 76 c 2,20,-1
 764 76 l 1,21,-1
 803 82 l 1,22,-1
 803 12 l 1,23,24
 753 -23 753 -23 677 -29 c 0,25,26
 649 -31 649 -31 631 -31 c 0,27,28
 549 -31 549 -31 463 47 c 0,29,30
 418 89 418 89 341 190 c 2,31,-1
 328 207 l 2,32,33
 310 228 310 228 283 257 c 1,0,-1
285 339 m 1,34,-1
 299 339 l 2,35,36
 417 339 417 339 486.5 399.5 c 128,-1,37
 556 460 556 460 556 572 c 0,38,39
 556 682 556 682 493 772 c 0,40,41
 434 856 434 856 368 857 c 0,42,43
 358 855 358 855 338 847 c 1,44,45
 320 812 320 812 305 745 c 0,46,47
 287 664 287 664 287 597 c 2,48,-1
 285 339 l 1,34,-1
EndSplineSet
EndChar

StartChar: S
Encoding: 83 83 52
Width: 672
Flags: W
LayerCount: 2
Fore
SplineSet
303 -29 m 0,0,1
 184 -29 184 -29 112 30 c 0,2,3
 66 68 66 68 51 118 c 0,4,5
 41 153 41 153 41 225 c 2,6,-1
 41 273 l 1,7,-1
 260 294 l 1,8,-1
 246 210 l 1,9,10
 241 129 241 129 270 90 c 0,11,12
 294 59 294 59 324 59 c 0,13,14
 378 59 378 59 406 115 c 0,15,16
 427 159 427 159 427 216 c 0,17,18
 427 289 427 289 282 373 c 2,19,-1
 234 402 l 1,20,21
 47 520 47 520 47 634 c 0,22,23
 47 872 47 872 268 980 c 0,24,25
 295 995 295 995 366 1014 c 1,26,27
 413 1014 413 1014 467 970 c 1,28,29
 525 931 525 931 612 844 c 1,30,-1
 498 612 l 1,31,-1
 445 660 l 1,32,-1
 448 696 l 1,33,-1
 448 711 l 2,34,35
 448 753 448 753 375 812 c 128,-1,36
 302 871 302 871 256 871 c 0,37,38
 239 871 239 871 213 852 c 1,39,40
 199 825 199 825 191 758 c 1,41,42
 192 699 192 699 319 630 c 0,43,44
 465 551 465 551 519 506 c 0,45,46
 629 416 629 416 629 314 c 0,47,48
 629 167 629 167 539 69 c 128,-1,49
 449 -29 449 -29 303 -29 c 0,0,1
EndSplineSet
EndChar

StartChar: T
Encoding: 84 84 53
Width: 606
Flags: W
LayerCount: 2
Fore
SplineSet
120 976 m 1,0,-1
 120 1008 l 1,1,-1
 128 1061 l 1,2,-1
 331 1211 l 1,3,-1
 360 1156 l 1,4,5
 324 1076 324 1076 319 976 c 1,6,-1
 459 976 l 2,7,8
 514 976 514 976 583 1044 c 1,9,-1
 618 974 l 1,10,11
 584 917 584 917 539 889 c 0,12,13
 501 865 501 865 468 861 c 0,14,15
 465 861 465 861 390 861 c 2,16,-1
 318 860 l 1,17,-1
 318 196 l 1,18,19
 323 163 323 163 330 154 c 2,20,-1
 353 111 l 2,21,22
 357 101 357 101 364 92 c 0,23,24
 368 86 368 86 379 78 c 1,25,26
 428 159 428 159 428 331 c 1,27,-1
 595 301 l 1,28,29
 595 136 595 136 528 50 c 0,30,31
 466 -31 466 -31 353 -31 c 0,32,33
 297 -31 297 -31 252 -6 c 0,34,35
 234 2 234 2 216 19 c 0,36,37
 117 88 117 88 117 328 c 2,38,-1
 117 362 l 1,39,-1
 120 859 l 1,40,-1
 71 859 l 2,41,42
 54 859 54 859 41 851 c 0,43,44
 27 847 27 847 -8 815 c 1,45,-1
 -55 834 l 1,46,-1
 -40 930 l 1,47,48
 -38 976 -38 976 33 976 c 2,49,-1
 120 976 l 1,0,-1
EndSplineSet
EndChar

StartChar: U
Encoding: 85 85 54
Width: 877
Flags: W
LayerCount: 2
Fore
SplineSet
87 874 m 1,0,1
 86 876 86 876 85 878 c 2,2,-1
 51 871 l 1,3,-1
 44 954 l 1,4,-1
 298 1006 l 1,5,-1
 266 336 l 2,6,7
 262 274 262 274 329 203 c 128,-1,8
 396 132 396 132 459 129 c 1,9,10
 506 166 506 166 540 261 c 0,11,12
 570 346 570 346 571 414 c 2,13,-1
 578 972 l 1,14,-1
 775 1004 l 1,15,-1
 767 331 l 2,16,17
 767 245 767 245 784 187 c 0,18,19
 788 168 788 168 801 147 c 1,20,-1
 805 147 l 1,21,-1
 851 168 l 1,22,-1
 861 86 l 1,23,-1
 688 -16 l 1,24,25
 622 50 622 50 591 133 c 1,26,27
 479 17 479 17 349 -29 c 1,28,29
 223 -16 223 -16 142 96 c 0,30,31
 66 199 66 199 69 324 c 0,32,33
 72 359 72 359 77 432 c 0,34,35
 79 468 79 468 79 523 c 0,36,37
 79 567 79 567 85 655.5 c 128,-1,38
 91 744 91 744 91 788 c 0,39,40
 91 854 91 854 87 875 c 1,41,-1
 87 874 l 1,0,1
EndSplineSet
EndChar

StartChar: V
Encoding: 86 86 55
Width: 756
Flags: W
LayerCount: 2
Fore
SplineSet
655 624 m 1,0,-1
 650 614 l 1,1,-1
 508 118 l 1,2,-1
 515 83 l 1,3,-1
 521 11 l 1,4,-1
 317 -31 l 1,5,-1
 317 8 l 2,6,7
 317 81 317 81 283 171 c 2,8,-1
 85 701 l 2,9,10
 57 777 57 777 51 789 c 0,11,12
 20 849 20 849 -19 854 c 1,13,-1
 -19 910 l 1,14,-1
 179 1026 l 1,15,-1
 268 797 l 1,16,-1
 344 586 l 1,17,-1
 454 269 l 1,18,19
 487 385 487 385 548 618 c 0,20,21
 550 628 550 628 561 699 c 0,22,23
 583 831 583 831 576 899 c 2,24,-1
 568 986 l 1,25,-1
 724 986 l 1,26,-1
 724 934 l 2,27,28
 724 864 724 864 655 624 c 1,0,-1
EndSplineSet
EndChar

StartChar: W
Encoding: 87 87 56
Width: 1217
Flags: W
LayerCount: 2
Fore
SplineSet
1162 816 m 0,0,1
 1147 760 1147 760 1117 628 c 1,2,-1
 1114 617 l 1,3,-1
 970 118 l 1,4,-1
 976 83 l 1,5,-1
 984 12 l 1,6,-1
 778 -31 l 1,7,-1
 778 8 l 2,8,9
 778 80 778 80 744 171 c 2,10,-1
 622 506 l 1,11,-1
 507 118 l 1,12,-1
 514 83 l 1,13,-1
 520 11 l 1,14,-1
 317 -31 l 1,15,-1
 317 8 l 2,16,17
 317 82 317 82 283 171 c 2,18,-1
 84 701 l 2,19,20
 56 778 56 778 50 789 c 0,21,22
 19 849 19 849 -20 854 c 1,23,-1
 -20 910 l 1,24,-1
 179 1026 l 1,25,-1
 268 797 l 1,26,-1
 344 586 l 1,27,-1
 454 269 l 1,28,-1
 562 662 l 1,29,-1
 545 701 l 1,30,31
 529 761 529 761 514 791 c 0,32,33
 486 849 486 849 444 854 c 1,34,-1
 444 910 l 1,35,-1
 644 1025 l 1,36,-1
 665 972 l 1,37,-1
 917 268 l 1,38,-1
 976 484 l 1,39,-1
 1024 699 l 1,40,41
 1041 833 1041 833 1036 907 c 2,42,-1
 1030 986 l 1,43,-1
 1184 986 l 1,44,-1
 1184 934 l 2,45,46
 1184 903 1184 903 1162 816 c 0,0,1
EndSplineSet
EndChar

StartChar: X
Encoding: 88 88 57
Width: 721
Flags: W
LayerCount: 2
Fore
SplineSet
623 -24 m 1,0,-1
 584 -30 l 1,1,2
 518 -30 518 -30 439 107 c 1,3,-1
 433 120 l 1,4,-1
 326 319 l 1,5,6
 278 240 278 240 230 162 c 0,7,8
 160 53 160 53 112 3 c 0,9,10
 70 -41 70 -41 5 -67 c 1,11,-1
 -29 0 l 1,12,13
 48 61 48 61 85 130 c 2,14,-1
 89 138 l 1,15,-1
 265 429 l 1,16,-1
 111 723 l 2,17,18
 88 769 88 769 49 823 c 1,19,-1
 21 815 l 1,20,-1
 -1 875 l 1,21,-1
 173 994 l 1,22,-1
 195 1000 l 1,23,-1
 221 985 l 1,24,-1
 237 962 l 1,25,-1
 400 641 l 1,26,27
 498 799 498 799 501 805 c 0,28,29
 551 901 551 901 551 986 c 1,30,-1
 708 986 l 1,31,32
 696 910 696 910 624 796 c 2,33,-1
 457 529 l 1,34,-1
 629 188 l 2,35,36
 654 138 654 138 658 131 c 0,37,38
 681 96 681 96 706 92 c 1,39,-1
 713 93 l 1,40,-1
 757 98 l 1,41,-1
 767 11 l 1,42,-1
 623 -24 l 1,0,-1
EndSplineSet
EndChar

StartChar: Y
Encoding: 89 89 58
Width: 756
Flags: W
LayerCount: 2
Fore
SplineSet
680 706 m 2,0,-1
 651 612 l 1,1,2
 587 363 587 363 449 -131 c 0,3,4
 390 -328 390 -328 252 -328 c 0,5,6
 160 -328 160 -328 127 -240 c 0,7,8
 115 -216 115 -216 115 -170 c 1,9,-1
 301 -85 l 1,10,-1
 291 -148 l 1,11,-1
 291 -157 l 2,12,13
 291 -182 291 -182 300 -195 c 0,14,15
 304 -201 304 -201 306 -202 c 0,16,17
 321 -197 321 -197 349 -123 c 1,18,-1
 380 -9 l 1,19,-1
 306 -20 l 1,20,-1
 313 25 l 1,21,-1
 315 39 l 1,22,23
 288 178 288 178 211 378 c 0,24,25
 148 538 148 538 85 697 c 0,26,27
 56 776 56 776 51 787 c 0,28,29
 20 847 20 847 -19 852 c 1,30,-1
 -19 909 l 1,31,-1
 179 1026 l 1,32,-1
 268 795 l 1,33,-1
 344 581 l 1,34,-1
 454 261 l 1,35,36
 487 379 487 379 548 614 c 0,37,38
 550 624 550 624 561 696 c 0,39,40
 583 829 583 829 576 898 c 2,41,-1
 568 986 l 1,42,-1
 724 986 l 1,43,-1
 724 920 l 2,44,45
 724 850 724 850 680 706 c 2,0,-1
EndSplineSet
EndChar

StartChar: Z
Encoding: 90 90 59
Width: 717
Flags: W
LayerCount: 2
Fore
SplineSet
461 -21 m 0,1,2
 436 -21 436 -21 331 -2 c 0,3,4
 219 17 219 17 141 11 c 2,5,-1
 64 5 l 1,6,-1
 -2 125 l 1,7,-1
 433 878 l 1,8,-1
 189 878 l 2,9,10
 149 878 149 878 104 862 c 0,11,12
 93 859 93 859 35 807 c 1,13,-1
 60 985 l 1,14,-1
 615 985 l 1,15,16
 649 960 649 960 663 934 c 1,17,-1
 677 880 l 1,18,-1
 235 123 l 1,19,20
 417 84 417 84 463 84 c 0,21,22
 502 84 502 84 514 104.5 c 128,-1,23
 526 125 526 125 526 234 c 1,24,-1
 681 234 l 1,25,-1
 681 191 l 1,26,-1
 683 181 l 1,27,28
 683 85 683 85 624 32 c 128,-1,0
 565 -21 565 -21 461 -21 c 0,1,2
EndSplineSet
EndChar

StartChar: bracketleft
Encoding: 91 91 60
Width: 449
Flags: W
LayerCount: 2
Fore
SplineSet
306 1101 m 1,0,-1
 306 -147 l 1,1,-1
 315 -149 l 1,2,3
 356 -151 356 -151 399 -138 c 2,4,-1
 436 -127 l 1,5,-1
 450 -209 l 1,6,-1
 376 -240 l 1,7,-1
 317 -248 l 1,8,-1
 271 -244 l 1,9,-1
 197 -229 l 1,10,-1
 129 -252 l 1,11,-1
 129 1177 l 1,12,-1
 282 1205 l 1,13,14
 328 1193 328 1193 373 1196 c 1,15,-1
 435 1220 l 1,16,-1
 450 1142 l 1,17,-1
 387 1109 l 1,18,19
 354 1097 354 1097 328 1099 c 2,20,-1
 306 1101 l 1,0,-1
EndSplineSet
EndChar

StartChar: backslash
Encoding: 92 92 61
Width: 328
Flags: W
LayerCount: 2
Fore
SplineSet
298 -187 m 1,0,-1
 -74 1293 l 1,1,-1
 53 1293 l 1,2,3
 162 820 162 820 227 565 c 2,4,-1
 419 -187 l 1,5,-1
 298 -187 l 1,0,-1
EndSplineSet
EndChar

StartChar: bracketright
Encoding: 93 93 62
Width: 449
Flags: W
LayerCount: 2
Fore
SplineSet
157 -139 m 1,0,-1
 157 1107 l 1,1,-1
 146 1109 l 2,2,3
 119 1112 119 1112 61 1099 c 2,4,-1
 28 1092 l 1,5,-1
 10 1167 l 1,6,7
 53 1190 53 1190 88 1202 c 1,8,-1
 144 1211 l 2,9,10
 160 1211 160 1211 192 1207 c 0,11,12
 216 1202 216 1202 265 1191 c 1,13,-1
 332 1210 l 1,14,-1
 332 -215 l 1,15,-1
 181 -249 l 1,16,-1
 140 -236 l 1,17,-1
 115 -233 l 1,18,-1
 89 -236 l 1,19,-1
 25 -255 l 1,20,-1
 11 -179 l 1,21,-1
 74 -147 l 1,22,23
 107 -135 107 -135 157 -139 c 1,0,-1
EndSplineSet
EndChar

StartChar: asciicircum
Encoding: 94 94 63
Width: 1491
Flags: W
LayerCount: 2
Fore
SplineSet
1105 879 m 1,0,-1
 744 1245 l 1,1,-1
 382 879 l 1,2,-1
 251 879 l 1,3,-1
 661 1434 l 1,4,-1
 828 1434 l 1,5,-1
 1235 879 l 1,6,-1
 1105 879 l 1,0,-1
EndSplineSet
EndChar

StartChar: underscore
Encoding: 95 95 64
Width: 746
Flags: W
LayerCount: 2
Fore
SplineSet
-25 -473 m 1,0,-1
 -25 -334 l 1,1,-1
 771 -334 l 1,2,-1
 771 -473 l 1,3,-1
 -25 -473 l 1,0,-1
EndSplineSet
EndChar

StartChar: grave
Encoding: 96 96 65
Width: 746
Flags: W
LayerCount: 2
Fore
SplineSet
379 1057 m 1,0,-1
 131 1323 l 1,1,-1
 345 1323 l 1,2,-1
 515 1057 l 1,3,-1
 379 1057 l 1,0,-1
EndSplineSet
EndChar

StartChar: a
Encoding: 97 97 66
Width: 709
Flags: W
LayerCount: 2
Fore
SplineSet
550 -43 m 1,0,-1
 474 90 l 1,1,-1
 448 145 l 1,2,3
 288 7 288 7 132 -14 c 1,4,5
 71 10 71 10 32 63 c 128,-1,6
 -7 116 -7 116 -7 177 c 0,7,8
 -7 371 -7 371 330 564 c 1,9,10
 294 707 294 707 292 713 c 0,11,12
 262 802 262 802 213 845 c 1,13,-1
 143 786 l 1,14,-1
 97 853 l 1,15,16
 156 913 156 913 258 1002 c 1,17,-1
 295 1014 l 1,18,19
 374 1014 374 1014 444 896 c 0,20,21
 479 837 479 837 538 565 c 0,22,23
 601 281 601 281 712 96 c 1,24,-1
 550 -43 l 1,0,-1
353 467 m 1,25,-1
 377 448 l 1,26,-1
 365 448 l 1,27,-1
 353 450 l 1,28,29
 278 449 278 449 224 398.5 c 128,-1,30
 170 348 170 348 170 276 c 0,31,32
 170 217 170 217 256 129 c 1,33,-1
 269 128 l 1,34,35
 364 127 364 127 398 276 c 1,36,-1
 353 467 l 1,25,-1
EndSplineSet
EndChar

StartChar: b
Encoding: 98 98 67
Width: 766
Flags: W
LayerCount: 2
Fore
SplineSet
265 915 m 1,0,-1
 272 924 l 1,1,-1
 289 940 l 2,2,3
 303 953 303 953 327 963 c 2,4,-1
 409 1012 l 1,5,6
 507 1012 507 1012 566 964 c 0,7,8
 631 912 631 912 631 818 c 0,9,10
 631 718 631 718 533 618 c 1,11,12
 622 580 622 580 681 498 c 0,13,14
 742 413 742 413 742 322 c 0,15,16
 742 250 742 250 713 193 c 1,17,18
 679 108 679 108 558 38 c 0,19,20
 443 -29 443 -29 346 -29 c 1,21,-1
 304 -23 l 1,22,-1
 236 -6 l 1,23,-1
 75 36 l 1,24,-1
 83 117 l 1,25,-1
 87 179 l 1,26,-1
 94 663 l 1,27,28
 94 658 94 658 88 766 c 0,29,30
 85 776 85 776 84 782 c 2,31,-1
 64 857 l 2,32,33
 61 863 61 863 59 868 c 0,34,35
 57 869 57 869 55 870 c 2,36,-1
 49 869 l 1,37,-1
 17 869 l 1,38,-1
 -2 946 l 1,39,-1
 225 1016 l 1,40,41
 240 987 240 987 262 927 c 1,42,-1
 265 915 l 1,0,-1
485 395 m 0,43,44
 428 483 428 483 345 519 c 1,45,-1
 263 519 l 1,46,-1
 257 581 l 1,47,48
 475 624 475 624 475 724 c 0,49,50
 475 768 475 768 428 818 c 0,51,52
 392 856 392 856 333 869 c 1,53,54
 314 850 314 850 291 815 c 1,55,-1
 285 135 l 1,56,57
 326 112 326 112 432 72 c 1,58,59
 483 79 483 79 515 122 c 0,60,61
 545 162 545 162 545 212 c 0,62,63
 545 302 545 302 485 395 c 0,43,44
EndSplineSet
EndChar

StartChar: c
Encoding: 99 99 68
Width: 754
Flags: W
LayerCount: 2
Fore
SplineSet
616 40 m 0,0,1
 512 -29 512 -29 307 -29 c 2,2,-1
 280 -29 l 1,3,4
 26 113 26 113 26 459 c 0,5,6
 26 618 26 618 94 745 c 0,7,8
 170 887 170 887 312 949 c 2,9,-1
 464 1015 l 1,10,11
 609 990 609 990 726 856 c 1,12,-1
 591 724 l 1,13,14
 474 855 474 855 369 889 c 1,15,16
 286 860 286 860 247 725 c 0,17,18
 220 629 220 629 220 513 c 0,19,20
 220 374 220 374 280 251 c 0,21,22
 350 108 350 108 469 70 c 1,23,24
 522 100 522 100 552 214 c 0,25,26
 561 250 561 250 561 334 c 1,27,-1
 736 285 l 1,28,29
 736 119 736 119 616 40 c 0,0,1
EndSplineSet
EndChar

StartChar: d
Encoding: 100 100 69
Width: 834
Flags: W
LayerCount: 2
Fore
SplineSet
727 213 m 0,0,1
 672 118 672 118 584 62 c 0,2,3
 546 37 546 37 395 -30 c 1,4,5
 214 -8 214 -8 116 139 c 0,6,7
 28 270 28 270 28 454 c 0,8,9
 28 624 28 624 112 745 c 0,10,11
 188 854 188 854 349 947 c 1,12,-1
 381 878 l 1,13,14
 288 811 288 811 252 723 c 0,15,16
 220 647 220 647 220 525 c 0,17,18
 220 361 220 361 311 235 c 0,19,20
 399 114 399 114 510 113 c 1,21,22
 549 118 549 118 583 200 c 0,23,24
 620 290 620 290 620 426 c 0,25,26
 620 626 620 626 360 895 c 1,27,-1
 354 902 l 1,28,29
 178 1072 178 1072 178 1123 c 0,30,31
 178 1156 178 1156 220 1209 c 2,32,-1
 321 1338 l 1,33,-1
 372 1279 l 1,34,-1
 350 1240 l 1,35,-1
 652 912 l 2,36,37
 801 749 801 749 801 507 c 0,38,39
 801 342 801 342 727 213 c 0,0,1
EndSplineSet
EndChar

StartChar: e
Encoding: 101 101 70
Width: 768
Flags: W
LayerCount: 2
Fore
SplineSet
676 90 m 0,0,1
 632 38 632 38 537 8 c 1,2,3
 458 -11 458 -11 378 -29 c 1,4,5
 202 -1 202 -1 108 152 c 0,6,7
 27 284 27 284 27 466 c 0,8,9
 27 684 27 684 132 813 c 0,10,11
 229 933 229 933 450 1014 c 1,12,13
 592 1014 592 1014 736 840 c 1,14,-1
 598 697 l 1,15,16
 530 787 530 787 456 838 c 0,17,18
 395 881 395 881 368 884 c 0,19,20
 323 883 323 883 283 806 c 0,21,22
 256 751 256 751 241 688 c 0,23,24
 229 635 229 635 227 575 c 1,25,-1
 510 568 l 2,26,27
 545 568 545 568 567 576 c 0,28,29
 599 588 599 588 649 625 c 1,30,-1
 678 547 l 1,31,32
 568 458 568 458 476 441 c 0,33,34
 444 435 444 435 232 433 c 1,35,36
 238 312 238 312 329 201 c 0,37,38
 414 97 414 97 496 97 c 0,39,40
 572 97 572 97 614 347 c 1,41,-1
 751 284 l 1,42,43
 724 147 724 147 676 90 c 0,0,1
EndSplineSet
EndChar

StartChar: f
Encoding: 102 102 71
Width: 596
Flags: W
LayerCount: 2
Fore
SplineSet
512 998 m 1,0,1
 426 1082 426 1082 374 1119 c 0,2,3
 346 1139 346 1139 326 1142 c 1,4,5
 306 1129 306 1129 293 1109 c 1,6,7
 281 1079 281 1079 281 1027 c 0,8,9
 281 987 281 987 288 929 c 0,10,11
 293 894 293 894 298 860 c 0,12,13
 300 811 300 811 308 664 c 0,14,15
 312 604 312 604 312 553 c 2,16,-1
 312 394 l 2,17,18
 312 367 312 367 310 322 c 0,19,20
 309 268 309 268 308 250 c 1,21,-1
 506 240 l 1,22,-1
 532 245 l 2,23,24
 542 249 542 249 577 283 c 1,25,-1
 615 220 l 1,26,27
 572 173 572 173 519 136 c 1,28,29
 482 116 482 116 413 114 c 1,30,31
 455 115 455 115 306 117 c 1,32,-1
 306 -284 l 1,33,-1
 104 -316 l 1,34,-1
 108 121 l 1,35,-1
 30 126 l 1,36,-1
 108 235 l 1,37,-1
 108 405 l 2,38,39
 108 461 108 461 104 590 c 0,40,41
 99 749 99 749 90 910 c 0,42,43
 85 1006 85 1006 180 1119 c 0,44,45
 264 1220 264 1220 408 1294 c 1,46,47
 510 1274 510 1274 633 1139 c 1,48,-1
 512 998 l 1,0,1
EndSplineSet
EndChar

StartChar: g
Encoding: 103 103 72
Width: 846
Flags: W
LayerCount: 2
Fore
SplineSet
783 103 m 2,0,1
 780 -51 780 -51 721 -142 c 0,2,3
 658 -237 658 -237 509 -302 c 1,4,-1
 469 -231 l 1,5,6
 556 -197 556 -197 569 -120 c 0,7,8
 572 -103 572 -103 574 49 c 1,9,10
 453 -37 453 -37 369 -37 c 0,11,12
 242 -37 242 -37 130 103 c 0,13,14
 26 233 26 233 26 453 c 0,15,16
 26 669 26 669 133 799 c 0,17,18
 221 906 221 906 442 1015 c 1,19,20
 603 1001 603 1001 747 847 c 1,21,-1
 637 638 l 1,22,23
 528 840 528 840 385 876 c 1,24,25
 280 845 280 845 245 743 c 0,26,27
 224 679 224 679 224 538 c 0,28,29
 224 347 224 347 307 211 c 0,30,31
 386 81 386 81 477 81 c 0,32,33
 499 81 499 81 577 204 c 1,34,-1
 581 373 l 2,35,36
 582 404 582 404 576 418 c 0,37,38
 573 422 573 422 570 423 c 2,39,-1
 537 418 l 1,40,-1
 521 493 l 1,41,-1
 792 530 l 1,42,-1
 783 103 l 2,0,1
EndSplineSet
EndChar

StartChar: h
Encoding: 104 104 73
Width: 877
Flags: W
LayerCount: 2
Fore
SplineSet
755 102 m 1,0,-1
 796 106 l 1,1,-1
 800 22 l 1,2,-1
 623 -13 l 1,3,-1
 595 -16 l 1,4,5
 569 9 569 9 563 22 c 0,6,7
 549 59 549 59 553 114 c 2,8,-1
 569 336 l 2,9,10
 570 356 570 356 588 570 c 2,11,-1
 592 618 l 2,12,13
 597 673 597 673 569.5 725 c 128,-1,14
 542 777 542 777 473 830 c 1,15,16
 428 858 428 858 401 860 c 1,17,-1
 396 859 l 1,18,19
 352 820 352 820 318 726 c 0,20,21
 285 638 285 638 285 574 c 2,22,-1
 281 16 l 1,23,-1
 84 -20 l 1,24,-1
 74 1038 l 1,25,-1
 53 1132 l 2,26,27
 52 1141 52 1141 49 1146 c 0,28,29
 48 1146 48 1146 43 1146 c 2,30,-1
 10 1146 l 1,31,-1
 2 1224 l 1,32,-1
 224 1300 l 1,33,34
 284 1137 284 1137 296 887 c 1,35,36
 402 1000 402 1000 507 1025 c 1,37,38
 629 1004 629 1004 713 889 c 128,-1,39
 797 774 797 774 797 671 c 0,40,41
 797 654 797 654 795 637 c 2,42,-1
 791 594 l 1,43,-1
 750 143 l 2,44,45
 750 115 750 115 755 103 c 1,46,-1
 755 102 l 1,0,-1
EndSplineSet
EndChar

StartChar: i
Encoding: 105 105 74
Width: 377
Flags: W
LayerCount: 2
Fore
SplineSet
84 -23 m 1,0,-1
 87 701 l 2,1,2
 87 887 87 887 75 897 c 0,3,4
 43 917 43 917 36 968 c 1,5,-1
 287 1020 l 1,6,-1
 287 33 l 1,7,-1
 84 -23 l 1,0,-1
EndSplineSet
EndChar

StartChar: j
Encoding: 106 106 75
Width: 441
Flags: W
LayerCount: 2
Fore
SplineSet
230 -211 m 0,0,1
 127 -324 127 -324 -30 -324 c 1,2,-1
 -72 -320 l 1,3,-1
 -118 -302 l 1,4,-1
 -178 -172 l 1,5,-1
 55 -31 l 1,6,-1
 50 -109 l 1,7,-1
 50 -140 l 2,8,9
 50 -174 50 -174 61 -190 c 128,-1,10
 72 -206 72 -206 82 -206 c 0,11,12
 101 -206 101 -206 113 -151 c 0,13,14
 128 -78 128 -78 128 144 c 2,15,-1
 124 875 l 1,16,-1
 35 885 l 1,17,-1
 35 986 l 1,18,-1
 213 972 l 1,19,-1
 225 975 l 1,20,-1
 261 986 l 1,21,-1
 330 1010 l 1,22,-1
 328 167 l 1,23,24
 332 27 332 27 320 -33 c 0,25,26
 301 -132 301 -132 230 -211 c 0,0,1
EndSplineSet
EndChar

StartChar: k
Encoding: 107 107 76
Width: 715
Flags: W
LayerCount: 2
Fore
SplineSet
410 488 m 1,0,1
 462 455 462 455 535 340 c 2,2,-1
 585 262 l 1,3,-1
 596 241 l 2,4,5
 685 79 685 79 753 79 c 1,6,-1
 763 14 l 1,7,-1
 673 -22 l 1,8,9
 643 -28 643 -28 601 -33 c 1,10,11
 514 -33 514 -33 383 196 c 1,12,-1
 370 213 l 1,13,14
 316 303 316 303 297 314 c 1,15,-1
 281 293 l 1,16,-1
 281 18 l 1,17,-1
 83 -21 l 1,18,-1
 83 755 l 2,19,20
 83 914 83 914 65 1050 c 0,21,22
 63 1067 63 1067 60 1121 c 0,23,24
 59 1145 59 1145 51 1145 c 2,25,-1
 44 1145 l 1,26,-1
 13 1138 l 1,27,-1
 -1 1217 l 1,28,-1
 222 1297 l 1,29,30
 261 1195 261 1195 269 1054 c 0,31,32
 281 845 281 845 281 706 c 2,33,-1
 281 485 l 1,34,35
 461 750 461 750 494 996 c 1,36,-1
 702 996 l 1,37,38
 629 805 629 805 410 488 c 1,0,1
EndSplineSet
EndChar

StartChar: l
Encoding: 108 108 77
Width: 453
Flags: W
LayerCount: 2
Fore
SplineSet
430 28 m 0,0,1
 395 -2 395 -2 352 -2 c 2,2,-1
 287 4 l 1,3,-1
 213 9 l 1,4,-1
 168 6 l 1,5,-1
 83 -3 l 1,6,-1
 77 956 l 1,7,8
 65 1155 65 1155 43 1155 c 2,9,-1
 39 1155 l 1,10,11
 7 1176 7 1176 4 1222 c 1,12,-1
 231 1301 l 1,13,14
 287 1069 287 1069 287 904 c 2,15,-1
 287 767 l 1,16,-1
 280 131 l 1,17,-1
 323 123 l 1,18,-1
 345 121 l 1,19,-1
 360 119 l 2,20,21
 364 120 364 120 377 127 c 2,22,-1
 463 194 l 1,23,-1
 506 130 l 1,24,25
 462 55 462 55 430 28 c 0,0,1
EndSplineSet
EndChar

StartChar: m
Encoding: 109 109 78
Width: 1235
Flags: W
LayerCount: 2
Fore
SplineSet
952 -17 m 1,0,1
 914 29 914 29 914 80 c 2,2,-1
 914 112 l 1,3,-1
 916 138 l 1,4,-1
 951 602 l 2,5,6
 956 708 956 708 907 782 c 0,7,8
 863 845 863 845 811 845 c 0,9,10
 802 845 802 845 778 837 c 1,11,12
 753 791 753 791 713 696 c 1,13,-1
 707 16 l 1,14,-1
 510 -20 l 1,15,-1
 520 631 l 2,16,17
 521 723 521 723 477 787 c 0,18,19
 438 844 438 844 387 845 c 1,20,-1
 372 842 l 1,21,-1
 348 833 l 1,22,-1
 304 745 l 1,23,-1
 287 695 l 1,24,-1
 281 16 l 1,25,-1
 84 -20 l 1,26,-1
 90 702 l 1,27,-1
 82 751 l 2,28,29
 73 813 73 813 56 860 c 1,30,-1
 28 863 l 1,31,-1
 12 937 l 1,32,-1
 236 1011 l 1,33,34
 261 927 261 927 272 880 c 1,35,36
 349 976 349 976 450 1014 c 1,37,38
 585 1014 585 1014 675 848 c 1,39,40
 765 980 765 980 877 1014 c 1,41,42
 964 1014 964 1014 1042 933 c 0,43,44
 1107 866 1107 866 1139 775 c 0,45,46
 1158 720 1158 720 1158 653 c 1,47,-1
 1154 626 l 1,48,-1
 1152 586 l 1,49,-1
 1113 166 l 2,50,51
 1109 119 1109 119 1116 99 c 1,52,-1
 1156 108 l 1,53,-1
 1161 22 l 1,54,-1
 952 -17 l 1,0,1
EndSplineSet
EndChar

StartChar: n
Encoding: 110 110 79
Width: 877
Flags: W
LayerCount: 2
Fore
SplineSet
757 101 m 1,0,-1
 794 106 l 1,1,-1
 803 22 l 1,2,-1
 597 -17 l 1,3,4
 564 17 564 17 557 39.5 c 128,-1,5
 550 62 550 62 554 113 c 2,6,-1
 556 138 l 1,7,-1
 594 634 l 1,8,9
 594 706 594 706 534 775.5 c 128,-1,10
 474 845 474 845 399 849 c 1,11,12
 352 811 352 811 318 720 c 0,13,14
 288 638 288 638 287 568 c 2,15,-1
 280 16 l 1,16,-1
 83 -20 l 1,17,-1
 89 702 l 1,18,-1
 81 751 l 2,19,20
 72 813 72 813 55 860 c 1,21,-1
 27 863 l 1,22,-1
 11 937 l 1,23,-1
 236 1012 l 1,24,-1
 272 884 l 1,25,-1
 279 849 l 1,26,27
 395 987 395 987 507 1015 c 1,28,29
 625 995 625 995 711 880 c 128,-1,30
 797 765 797 765 797 656 c 2,31,-1
 797 627 l 2,32,33
 797 602 797 602 793 586 c 2,34,-1
 752 141 l 2,35,36
 752 117 752 117 757 101 c 1,0,-1
EndSplineSet
EndChar

StartChar: o
Encoding: 111 111 80
Width: 852
Flags: W
LayerCount: 2
Fore
SplineSet
739 193 m 0,0,1
 677 93 677 93 585 44 c 0,2,3
 537 18 537 18 383 -29 c 1,4,-1
 361 -29 l 2,5,6
 264 -29 264 -29 139 115 c 0,7,8
 26 244 26 244 26 462 c 0,9,10
 26 624 26 624 102 758 c 0,11,12
 185 901 185 901 332 965 c 2,13,-1
 445 1015 l 1,14,15
 632 996 632 996 735 840 c 0,16,17
 824 705 824 705 824 515 c 0,18,19
 824 330 824 330 739 193 c 0,0,1
542 736 m 0,20,21
 466 844 466 844 320 866 c 1,22,23
 222 772 222 772 222 541 c 0,24,25
 222 390 222 390 261 299 c 0,26,27
 310 188 310 188 430 125 c 0,28,29
 467 106 467 106 498 102 c 1,30,-1
 510 104 l 1,31,-1
 518 104 l 1,32,33
 624 186 624 186 624 421 c 0,34,35
 624 621 624 621 542 736 c 0,20,21
EndSplineSet
EndChar

StartChar: p
Encoding: 112 112 81
Width: 852
Flags: W
LayerCount: 2
Fore
SplineSet
58 845 m 1,0,-1
 57 845 l 1,1,-1
 32 845 l 1,2,-1
 19 921 l 1,3,-1
 235 996 l 1,4,-1
 249 962 l 1,5,6
 269 899 269 899 278 855 c 1,7,8
 387 980 387 980 500 1015 c 1,9,10
 640 993 640 993 734 852 c 0,11,12
 826 715 826 715 826 539 c 0,13,14
 826 308 826 308 733 173 c 0,15,16
 636 33 636 33 415 -43 c 1,17,18
 368 -38 368 -38 335 -18 c 0,19,20
 323 -14 323 -14 294 7 c 2,21,-1
 287 12 l 1,22,-1
 285 -368 l 1,23,-1
 88 -434 l 1,24,-1
 94 681 l 2,25,26
 92 692 92 692 92 707 c 0,27,28
 90 718 90 718 85 732 c 2,29,-1
 58 845 l 1,0,-1
561 749 m 0,30,31
 490 862 490 862 406 867 c 1,32,33
 295 779 295 779 294 677 c 2,34,-1
 291 239 l 1,35,36
 318 157 318 157 471 72 c 1,37,38
 541 76 541 76 586 178 c 0,39,40
 636 291 636 291 636 483 c 0,41,42
 636 630 636 630 561 749 c 0,30,31
EndSplineSet
EndChar

StartChar: q
Encoding: 113 113 82
Width: 858
Flags: W
LayerCount: 2
Fore
SplineSet
571 -432 m 1,0,-1
 571 53 l 1,1,2
 421 -42 421 -42 326 -42 c 1,3,4
 180 7 180 7 100 147 c 0,5,6
 28 272 28 272 28 431 c 0,7,8
 28 664 28 664 131 800 c 0,9,10
 231 931 231 931 460 1014 c 1,11,12
 508 1014 508 1014 553 987 c 2,13,-1
 672 915 l 1,14,-1
 790 970 l 1,15,-1
 773 824 l 1,16,-1
 771 701 l 1,17,-1
 771 -162 l 2,18,19
 771 -259 771 -259 780 -293 c 0,20,21
 787 -321 787 -321 835 -359 c 1,22,-1
 571 -432 l 1,0,-1
571 752 m 1,23,24
 443 871 443 871 348 871 c 0,25,26
 310 871 310 871 267 767 c 0,27,28
 220 652 220 652 220 501 c 0,29,30
 220 290 220 290 347 153 c 0,31,32
 360 138 360 138 377 126 c 0,33,34
 387 117 387 117 410 103 c 0,35,36
 435 85 435 85 459 81 c 1,37,38
 487 83 487 83 519 124 c 0,39,40
 555 170 555 170 571 244 c 1,41,-1
 571 752 l 1,23,24
EndSplineSet
EndChar

StartChar: r
Encoding: 114 114 83
Width: 809
Flags: W
LayerCount: 2
Fore
SplineSet
283 257 m 1,0,-1
 281 15 l 1,1,-1
 84 -21 l 1,2,-1
 90 702 l 1,3,-1
 82 751 l 2,4,5
 73 813 73 813 56 859 c 1,6,-1
 28 863 l 1,7,-1
 12 937 l 1,8,-1
 236 1011 l 1,9,-1
 270 894 l 1,10,11
 369 984 369 984 443 1015 c 1,12,13
 598 997 598 997 680 888 c 0,14,15
 756 788 756 788 756 634 c 0,16,17
 756 423 756 423 530 314 c 1,18,19
 684 76 684 76 754 76 c 2,20,-1
 764 76 l 1,21,-1
 803 82 l 1,22,-1
 803 12 l 1,23,24
 753 -23 753 -23 677 -29 c 0,25,26
 649 -31 649 -31 631 -31 c 0,27,28
 549 -31 549 -31 463 47 c 0,29,30
 418 89 418 89 341 190 c 2,31,-1
 328 207 l 2,32,33
 310 228 310 228 283 257 c 1,0,-1
285 339 m 1,34,-1
 299 339 l 2,35,36
 417 339 417 339 486.5 399.5 c 128,-1,37
 556 460 556 460 556 572 c 0,38,39
 556 682 556 682 493 772 c 0,40,41
 434 856 434 856 368 857 c 0,42,43
 358 855 358 855 338 847 c 1,44,45
 320 812 320 812 305 745 c 0,46,47
 287 664 287 664 287 597 c 2,48,-1
 285 339 l 1,34,-1
EndSplineSet
EndChar

StartChar: s
Encoding: 115 115 84
Width: 672
Flags: W
LayerCount: 2
Fore
SplineSet
303 -29 m 0,0,1
 184 -29 184 -29 112 30 c 0,2,3
 66 68 66 68 51 118 c 0,4,5
 41 153 41 153 41 225 c 2,6,-1
 41 273 l 1,7,-1
 260 294 l 1,8,-1
 246 210 l 1,9,10
 241 129 241 129 270 90 c 0,11,12
 294 59 294 59 324 59 c 0,13,14
 378 59 378 59 406 115 c 0,15,16
 427 159 427 159 427 216 c 0,17,18
 427 289 427 289 282 373 c 2,19,-1
 234 402 l 1,20,21
 47 520 47 520 47 634 c 0,22,23
 47 872 47 872 268 980 c 0,24,25
 295 995 295 995 366 1014 c 1,26,27
 413 1014 413 1014 467 970 c 1,28,29
 525 931 525 931 612 844 c 1,30,-1
 498 612 l 1,31,-1
 445 660 l 1,32,-1
 448 696 l 1,33,-1
 448 711 l 2,34,35
 448 753 448 753 375 812 c 128,-1,36
 302 871 302 871 256 871 c 0,37,38
 239 871 239 871 213 852 c 1,39,40
 199 825 199 825 191 758 c 1,41,42
 192 699 192 699 319 630 c 0,43,44
 465 551 465 551 519 506 c 0,45,46
 629 416 629 416 629 314 c 0,47,48
 629 167 629 167 539 69 c 128,-1,49
 449 -29 449 -29 303 -29 c 0,0,1
EndSplineSet
EndChar

StartChar: t
Encoding: 116 116 85
Width: 606
Flags: W
LayerCount: 2
Fore
SplineSet
120 976 m 1,0,-1
 120 1008 l 1,1,-1
 128 1061 l 1,2,-1
 331 1211 l 1,3,-1
 360 1156 l 1,4,5
 324 1076 324 1076 319 976 c 1,6,-1
 459 976 l 2,7,8
 514 976 514 976 583 1044 c 1,9,-1
 618 974 l 1,10,11
 584 917 584 917 539 889 c 0,12,13
 501 865 501 865 468 861 c 0,14,15
 465 861 465 861 390 861 c 2,16,-1
 318 860 l 1,17,-1
 318 196 l 1,18,19
 323 163 323 163 330 154 c 2,20,-1
 353 111 l 2,21,22
 357 101 357 101 364 92 c 0,23,24
 368 86 368 86 379 78 c 1,25,26
 428 159 428 159 428 331 c 1,27,-1
 595 301 l 1,28,29
 595 136 595 136 528 50 c 0,30,31
 466 -31 466 -31 353 -31 c 0,32,33
 297 -31 297 -31 252 -6 c 0,34,35
 234 2 234 2 216 19 c 0,36,37
 117 88 117 88 117 328 c 2,38,-1
 117 362 l 1,39,-1
 120 859 l 1,40,-1
 71 859 l 2,41,42
 54 859 54 859 41 851 c 0,43,44
 27 847 27 847 -8 815 c 1,45,-1
 -55 834 l 1,46,-1
 -40 930 l 1,47,48
 -38 976 -38 976 33 976 c 2,49,-1
 120 976 l 1,0,-1
EndSplineSet
EndChar

StartChar: u
Encoding: 117 117 86
Width: 877
Flags: W
LayerCount: 2
Fore
SplineSet
87 874 m 1,0,1
 86 876 86 876 85 878 c 2,2,-1
 51 871 l 1,3,-1
 44 954 l 1,4,-1
 298 1006 l 1,5,-1
 266 336 l 2,6,7
 262 274 262 274 329 203 c 128,-1,8
 396 132 396 132 459 129 c 1,9,10
 506 166 506 166 540 261 c 0,11,12
 570 346 570 346 571 414 c 2,13,-1
 578 972 l 1,14,-1
 775 1004 l 1,15,-1
 767 331 l 2,16,17
 767 245 767 245 784 187 c 0,18,19
 788 168 788 168 801 147 c 1,20,-1
 805 147 l 1,21,-1
 851 168 l 1,22,-1
 861 86 l 1,23,-1
 688 -16 l 1,24,25
 622 50 622 50 591 133 c 1,26,27
 479 17 479 17 349 -29 c 1,28,29
 223 -16 223 -16 142 96 c 0,30,31
 66 199 66 199 69 324 c 0,32,33
 72 359 72 359 77 432 c 0,34,35
 79 468 79 468 79 523 c 0,36,37
 79 567 79 567 85 655.5 c 128,-1,38
 91 744 91 744 91 788 c 0,39,40
 91 854 91 854 87 875 c 1,41,-1
 87 874 l 1,0,1
EndSplineSet
EndChar

StartChar: v
Encoding: 118 118 87
Width: 756
Flags: W
LayerCount: 2
Fore
SplineSet
655 624 m 1,0,-1
 650 614 l 1,1,-1
 508 118 l 1,2,-1
 515 83 l 1,3,-1
 521 11 l 1,4,-1
 317 -31 l 1,5,-1
 317 8 l 2,6,7
 317 81 317 81 283 171 c 2,8,-1
 85 701 l 2,9,10
 57 777 57 777 51 789 c 0,11,12
 20 849 20 849 -19 854 c 1,13,-1
 -19 910 l 1,14,-1
 179 1026 l 1,15,-1
 268 797 l 1,16,-1
 344 586 l 1,17,-1
 454 269 l 1,18,19
 487 385 487 385 548 618 c 0,20,21
 550 628 550 628 561 699 c 0,22,23
 583 831 583 831 576 899 c 2,24,-1
 568 986 l 1,25,-1
 724 986 l 1,26,-1
 724 934 l 2,27,28
 724 864 724 864 655 624 c 1,0,-1
EndSplineSet
EndChar

StartChar: w
Encoding: 119 119 88
Width: 1217
Flags: W
LayerCount: 2
Fore
SplineSet
1162 816 m 0,0,1
 1147 760 1147 760 1117 628 c 1,2,-1
 1114 617 l 1,3,-1
 970 118 l 1,4,-1
 976 83 l 1,5,-1
 984 12 l 1,6,-1
 778 -31 l 1,7,-1
 778 8 l 2,8,9
 778 80 778 80 744 171 c 2,10,-1
 622 506 l 1,11,-1
 507 118 l 1,12,-1
 514 83 l 1,13,-1
 520 11 l 1,14,-1
 317 -31 l 1,15,-1
 317 8 l 2,16,17
 317 82 317 82 283 171 c 2,18,-1
 84 701 l 2,19,20
 56 778 56 778 50 789 c 0,21,22
 19 849 19 849 -20 854 c 1,23,-1
 -20 910 l 1,24,-1
 179 1026 l 1,25,-1
 268 797 l 1,26,-1
 344 586 l 1,27,-1
 454 269 l 1,28,-1
 562 662 l 1,29,-1
 545 701 l 1,30,31
 529 761 529 761 514 791 c 0,32,33
 486 849 486 849 444 854 c 1,34,-1
 444 910 l 1,35,-1
 644 1025 l 1,36,-1
 665 972 l 1,37,-1
 917 268 l 1,38,-1
 976 484 l 1,39,-1
 1024 699 l 1,40,41
 1041 833 1041 833 1036 907 c 2,42,-1
 1030 986 l 1,43,-1
 1184 986 l 1,44,-1
 1184 934 l 2,45,46
 1184 903 1184 903 1162 816 c 0,0,1
EndSplineSet
EndChar

StartChar: x
Encoding: 120 120 89
Width: 721
Flags: W
LayerCount: 2
Fore
SplineSet
623 -24 m 1,0,-1
 584 -30 l 1,1,2
 518 -30 518 -30 439 107 c 1,3,-1
 433 120 l 1,4,-1
 326 319 l 1,5,6
 278 240 278 240 230 162 c 0,7,8
 160 53 160 53 112 3 c 0,9,10
 70 -41 70 -41 5 -67 c 1,11,-1
 -29 0 l 1,12,13
 48 61 48 61 85 130 c 2,14,-1
 89 138 l 1,15,-1
 265 429 l 1,16,-1
 111 723 l 2,17,18
 88 769 88 769 49 823 c 1,19,-1
 21 815 l 1,20,-1
 -1 875 l 1,21,-1
 173 994 l 1,22,-1
 195 1000 l 1,23,-1
 221 985 l 1,24,-1
 237 962 l 1,25,-1
 400 641 l 1,26,27
 498 799 498 799 501 805 c 0,28,29
 551 901 551 901 551 986 c 1,30,-1
 708 986 l 1,31,32
 696 910 696 910 624 796 c 2,33,-1
 457 529 l 1,34,-1
 629 188 l 2,35,36
 654 138 654 138 658 131 c 0,37,38
 681 96 681 96 706 92 c 1,39,-1
 713 93 l 1,40,-1
 757 98 l 1,41,-1
 767 11 l 1,42,-1
 623 -24 l 1,0,-1
EndSplineSet
EndChar

StartChar: y
Encoding: 121 121 90
Width: 756
Flags: W
LayerCount: 2
Fore
SplineSet
680 706 m 2,0,-1
 651 612 l 1,1,2
 587 363 587 363 449 -131 c 0,3,4
 390 -328 390 -328 252 -328 c 0,5,6
 160 -328 160 -328 127 -240 c 0,7,8
 115 -216 115 -216 115 -170 c 1,9,-1
 301 -85 l 1,10,-1
 291 -148 l 1,11,-1
 291 -157 l 2,12,13
 291 -182 291 -182 300 -195 c 0,14,15
 304 -201 304 -201 306 -202 c 0,16,17
 321 -197 321 -197 349 -123 c 1,18,-1
 380 -9 l 1,19,-1
 306 -20 l 1,20,-1
 313 25 l 1,21,-1
 315 39 l 1,22,23
 288 178 288 178 211 378 c 0,24,25
 148 538 148 538 85 697 c 0,26,27
 56 776 56 776 51 787 c 0,28,29
 20 847 20 847 -19 852 c 1,30,-1
 -19 909 l 1,31,-1
 179 1026 l 1,32,-1
 268 795 l 1,33,-1
 344 581 l 1,34,-1
 454 261 l 1,35,36
 487 379 487 379 548 614 c 0,37,38
 550 624 550 624 561 696 c 0,39,40
 583 829 583 829 576 898 c 2,41,-1
 568 986 l 1,42,-1
 724 986 l 1,43,-1
 724 920 l 2,44,45
 724 850 724 850 680 706 c 2,0,-1
EndSplineSet
EndChar

StartChar: z
Encoding: 122 122 91
Width: 717
Flags: W
LayerCount: 2
Fore
SplineSet
461 -21 m 0,1,2
 436 -21 436 -21 331 -2 c 0,3,4
 219 17 219 17 141 11 c 2,5,-1
 64 5 l 1,6,-1
 -2 125 l 1,7,-1
 433 878 l 1,8,-1
 189 878 l 2,9,10
 149 878 149 878 104 862 c 0,11,12
 93 859 93 859 35 807 c 1,13,-1
 60 985 l 1,14,-1
 615 985 l 1,15,16
 649 960 649 960 663 934 c 1,17,-1
 677 880 l 1,18,-1
 235 123 l 1,19,20
 417 84 417 84 463 84 c 0,21,22
 502 84 502 84 514 104.5 c 128,-1,23
 526 125 526 125 526 234 c 1,24,-1
 681 234 l 1,25,-1
 681 191 l 1,26,-1
 683 181 l 1,27,28
 683 85 683 85 624 32 c 128,-1,0
 565 -21 565 -21 461 -21 c 0,1,2
EndSplineSet
EndChar

StartChar: braceleft
Encoding: 123 123 92
Width: 746
Flags: W
LayerCount: 2
Fore
SplineSet
611 -240 m 2,0,1
 437 -240 437 -240 371 -160.5 c 128,-1,2
 305 -81 305 -81 305 116 c 2,3,-1
 305 312 l 2,4,5
 305 450 305 450 278 494 c 0,6,7
 240 554 240 554 104 572 c 1,8,-1
 104 679 l 1,9,10
 227 679 227 679 269 736 c 0,11,12
 305 786 305 786 305 935 c 2,13,-1
 305 1132 l 2,14,15
 305 1314 305 1314 363 1393 c 0,16,17
 433 1487 433 1487 611 1487 c 2,18,-1
 644 1487 l 1,19,-1
 644 1387 l 1,20,21
 532 1387 532 1387 502 1345 c 128,-1,22
 472 1303 472 1303 472 1159 c 2,23,-1
 472 1025 l 2,24,25
 472 801 472 801 426 718 c 0,26,27
 392 657 392 657 317 623 c 1,28,29
 393 588 393 588 426 527 c 0,30,31
 472 442 472 442 472 221 c 2,32,-1
 472 88 l 2,33,34
 472 -54 472 -54 505 -100 c 0,35,36
 533 -140 533 -140 644 -140 c 1,37,-1
 644 -240 l 1,38,-1
 611 -240 l 2,0,1
EndSplineSet
EndChar

StartChar: bar
Encoding: 124 124 93
Width: 746
Flags: W
LayerCount: 2
Fore
SplineSet
294 -473 m 1,0,-1
 294 1534 l 1,1,-1
 453 1534 l 1,2,-1
 453 -473 l 1,3,-1
 294 -473 l 1,0,-1
EndSplineSet
EndChar

StartChar: braceright
Encoding: 125 125 94
Width: 746
Flags: W
LayerCount: 2
Fore
SplineSet
480 507 m 0,0,1
 441 452 441 452 441 312 c 2,2,-1
 441 116 l 2,3,4
 441 -83 441 -83 374 -161.5 c 128,-1,5
 307 -240 307 -240 135 -240 c 2,6,-1
 102 -240 l 1,7,-1
 102 -140 l 1,8,9
 216 -140 216 -140 241 -98 c 1,10,11
 274 -56 274 -56 274 88 c 2,12,-1
 274 221 l 2,13,14
 274 441 274 441 320 525 c 0,15,16
 354 587 354 587 430 623 c 1,17,18
 354 658 354 658 320 718 c 0,19,20
 274 800 274 800 274 1025 c 2,21,-1
 274 1159 l 2,22,23
 274 1303 274 1303 242 1348 c 0,24,25
 213 1387 213 1387 102 1387 c 1,26,-1
 102 1487 l 1,27,-1
 135 1487 l 2,28,29
 318 1487 318 1487 385 1396 c 0,30,31
 441 1320 441 1320 441 1132 c 2,32,-1
 441 935 l 2,33,34
 441 789 441 789 479 736 c 0,35,36
 514 690 514 690 644 677 c 1,37,-1
 644 571 l 1,38,39
 515 558 515 558 480 507 c 0,0,1
EndSplineSet
EndChar

StartChar: asciitilde
Encoding: 126 126 95
Width: 1241
Flags: W
LayerCount: 2
Fore
SplineSet
980 493 m 0,0,1
 909 462 909 462 832 462 c 0,2,3
 738 462 738 462 608 523 c 1,4,5
 457 575 457 575 410 575 c 0,6,7
 303 575 303 575 103 415 c 1,8,-1
 103 605 l 1,9,10
 281 738 281 738 412 738 c 0,11,12
 487 738 487 738 568 711 c 1,13,14
 635 684 635 684 702 657 c 0,15,16
 790 623 790 623 834 623 c 0,17,18
 864 623 864 623 890 632 c 1,19,20
 971 644 971 644 1139 786 c 1,21,-1
 1139 592 l 1,22,23
 1048 522 1048 522 980 493 c 0,0,1
EndSplineSet
EndChar

StartChar: dagger
Encoding: 8224 8224 96
Width: 746
Flags: W
LayerCount: 2
Fore
SplineSet
427 769 m 1,0,1
 437 659 437 659 470 462 c 1,2,3
 445 286 445 286 441 162 c 2,4,-1
 422 -381 l 1,5,-1
 319 -381 l 1,6,7
 319 -249 319 -249 309 -80 c 0,8,9
 305 32 305 32 296 255 c 0,10,11
 295 280 295 280 292 301 c 0,12,13
 288 339 288 339 268 461 c 1,14,-1
 294 613 l 1,15,-1
 313 769 l 1,16,-1
 75 715 l 1,17,-1
 75 963 l 1,18,-1
 313 903 l 1,19,-1
 267 1293 l 1,20,-1
 473 1293 l 1,21,-1
 427 903 l 1,22,-1
 668 963 l 1,23,-1
 668 713 l 1,24,-1
 427 769 l 1,0,1
EndSplineSet
EndChar

StartChar: cent
Encoding: 162 162 97
Width: 787
Flags: W
LayerCount: 2
Fore
SplineSet
455 878 m 1,0,-1
 456 879 l 1,1,2
 548 866 548 866 603 816 c 0,3,4
 613 807 613 807 652 761 c 1,5,-1
 530 630 l 1,6,7
 487 680 487 680 467 699 c 0,8,9
 432 730 432 730 390 750 c 1,10,11
 330 687 330 687 330 523 c 0,12,13
 330 349 330 349 456 240 c 1,14,15
 486 271 486 271 506 404 c 1,16,-1
 658 366 l 1,17,18
 646 264 646 264 605 216 c 0,19,20
 561 166 561 166 459 147 c 1,21,-1
 459 -27 l 1,22,-1
 360 -27 l 1,23,-1
 360 134 l 1,24,-1
 348 136 l 1,25,-1
 329 136 l 1,26,27
 145 235 145 235 145 484 c 0,28,29
 145 716 145 716 348 832 c 1,30,-1
 356 836 l 1,31,-1
 356 981 l 1,32,-1
 455 981 l 1,33,-1
 455 878 l 1,0,-1
EndSplineSet
EndChar

StartChar: sterling
Encoding: 163 163 98
Width: 676
Flags: W
LayerCount: 2
Fore
SplineSet
558 50 m 0,0,1
 490 -27 490 -27 418 -27 c 0,2,3
 396 -27 396 -27 326.5 -3 c 128,-1,4
 257 21 257 21 219 21 c 0,5,6
 178 21 178 21 115 -3 c 0,7,8
 101 -12 101 -12 19 -57 c 1,9,-1
 110 270 l 1,10,-1
 175 229 l 1,11,12
 192 231 192 231 207 245 c 1,13,14
 226 272 226 272 231 306 c 1,15,16
 230 357 230 357 194 385 c 1,17,-1
 71 385 l 1,18,-1
 71 490 l 1,19,-1
 113 490 l 1,20,21
 53 594 53 594 53 690 c 0,22,23
 53 817 53 817 139.5 918.5 c 128,-1,24
 226 1020 226 1020 338 1020 c 0,25,26
 400 1020 400 1020 494 942 c 0,27,28
 574 876 574 876 614 813 c 0,29,30
 644 766 644 766 644 727 c 0,31,32
 644 661 644 661 610 599 c 0,33,34
 599 577 599 577 564 533 c 1,35,-1
 377 671 l 1,36,37
 492 734 492 734 492 824 c 0,38,39
 492 844 492 844 426 871 c 0,40,41
 408 879 408 879 387 879 c 0,42,43
 353 879 353 879 301 804 c 0,44,45
 246 724 246 724 246 649 c 0,46,47
 246 604 246 604 307 490 c 1,48,-1
 530 490 l 1,49,-1
 529 385 l 1,50,-1
 350 385 l 1,51,-1
 353 368 l 1,52,-1
 355 345 l 2,53,54
 365 236 365 236 267 159 c 1,55,-1
 323 115 l 1,56,57
 351 100 351 100 366 95 c 1,58,59
 380 98 380 98 425 165 c 1,60,61
 473 253 473 253 488 377 c 1,62,-1
 655 249 l 1,63,64
 621 121 621 121 558 50 c 0,0,1
EndSplineSet
EndChar

StartChar: section
Encoding: 167 167 99
Width: 746
Flags: W
LayerCount: 2
Fore
SplineSet
613 369 m 0,0,1
 584 318 584 318 531 274 c 1,2,3
 620 180 620 180 620 93 c 0,4,5
 620 -32 620 -32 538 -141.5 c 128,-1,6
 456 -251 456 -251 334 -293 c 1,7,8
 227 -293 227 -293 104 -139 c 1,9,-1
 210 13 l 1,10,11
 332 -144 332 -144 385 -144 c 0,12,13
 409 -144 409 -144 446 -120 c 1,14,-1
 468 -64 l 1,15,-1
 475 -17 l 1,16,17
 474 32 474 32 445 73 c 0,18,19
 412 121 412 121 290 211 c 1,20,-1
 266 232 l 2,21,22
 98 380 98 380 98 484 c 0,23,24
 98 616 98 616 217 729 c 1,25,26
 127 831 127 831 127 913 c 0,27,28
 127 1035 127 1035 207 1145 c 128,-1,29
 287 1255 287 1255 406 1293 c 1,30,31
 501 1293 501 1293 613 1157 c 1,32,-1
 510 1002 l 1,33,34
 398 1145 398 1145 348 1145 c 0,35,36
 339 1145 339 1145 329 1140 c 2,37,-1
 296 1117 l 1,38,39
 280 1078 280 1078 271 1023 c 1,40,41
 272 923 272 923 436 810 c 0,42,43
 648 664 648 664 648 512 c 0,44,45
 648 432 648 432 613 369 c 0,0,1
469 509 m 0,46,47
 460 528 460 528 283 664 c 1,48,49
 263 621 263 621 263 574 c 0,50,51
 263 532 263 532 278 496 c 0,52,53
 282 481 282 481 461 341 c 1,54,55
 480 376 480 376 480 430 c 0,56,57
 480 485 480 485 469 509 c 0,46,47
EndSplineSet
EndChar

StartChar: bullet
Encoding: 8226 8226 100
Width: 879
Flags: W
LayerCount: 2
Fore
SplineSet
612 545 m 0,0,1
 540 457 540 457 439 457 c 0,2,3
 326 457 326 457 258 555 c 0,4,5
 200 639 200 639 200 748 c 0,6,7
 200 870 200 870 270 953.5 c 128,-1,8
 340 1037 340 1037 441 1037 c 0,9,10
 540 1037 540 1037 612 949 c 0,11,12
 681 863 681 863 681 748 c 0,13,14
 681 631 681 631 612 545 c 0,0,1
EndSplineSet
EndChar

StartChar: paragraph
Encoding: 182 182 101
Width: 746
Flags: W
LayerCount: 2
Fore
SplineSet
636 1320 m 1,0,-1
 636 0 l 1,1,-1
 504 0 l 1,2,-1
 504 1320 l 1,3,-1
 427 1320 l 1,4,-1
 427 0 l 1,5,-1
 295 0 l 1,6,-1
 295 742 l 1,7,8
 182 752 182 752 102 848 c 128,-1,9
 22 944 22 944 22 1095 c 0,10,11
 22 1243 22 1243 100 1341 c 0,12,13
 186 1450 186 1450 334 1450 c 2,14,-1
 724 1450 l 1,15,-1
 724 1320 l 1,16,-1
 636 1320 l 1,0,-1
EndSplineSet
EndChar

StartChar: germandbls
Encoding: 223 223 102
Width: 811
Flags: W
LayerCount: 2
Fore
SplineSet
571 784 m 1,0,1
 680 738 680 738 735 613 c 0,2,3
 781 509 781 509 781 379 c 0,4,5
 781 223 781 223 733 114 c 0,6,7
 667 -35 667 -35 525 -35 c 0,8,9
 429 -35 429 -35 371 32 c 0,10,11
 317 95 317 95 317 190 c 0,12,13
 317 238 317 238 341 277 c 0,14,15
 369 323 369 323 416 323 c 0,16,17
 458 323 458 323 485 287 c 0,18,19
 509 254 509 254 509 212 c 0,20,21
 509 174 509 174 480 101 c 1,22,23
 482 93 482 93 492.5 83.5 c 128,-1,24
 503 74 503 74 518 72 c 0,25,26
 547 73 547 73 562 115 c 0,27,28
 581 172 581 172 581 337 c 0,29,30
 581 589 581 589 545 666 c 0,31,32
 517 725 517 725 436 718 c 2,33,-1
 415 716 l 2,34,35
 382 716 382 716 363 730 c 0,36,37
 338 744 338 744 338 773 c 0,38,39
 338 799 338 799 359 820 c 1,40,41
 376 830 376 830 410 835 c 1,42,-1
 435 830 l 1,43,-1
 455 827 l 1,44,45
 557 829 557 829 557 1064 c 0,46,47
 557 1396 557 1396 410 1396 c 0,48,49
 335 1396 335 1396 301 1331 c 0,50,51
 263 1259 263 1259 263 1083 c 2,52,-1
 263 -1 l 1,53,-1
 -25 -1 l 1,54,-1
 -25 121 l 1,55,56
 59 121 59 121 77 141 c 1,57,58
 92 166 92 166 92 267 c 2,59,-1
 92 1077 l 2,60,61
 92 1269 92 1269 176 1386 c 0,62,63
 264 1508 264 1508 410 1508 c 0,64,65
 565 1508 565 1508 652 1373 c 0,66,67
 726 1258 726 1258 726 1094 c 0,68,69
 726 869 726 869 571 784 c 1,0,1
EndSplineSet
EndChar

StartChar: acute
Encoding: 180 180 103
Width: 746
Flags: W
LayerCount: 2
Fore
SplineSet
367 1057 m 1,0,-1
 230 1057 l 1,1,-1
 401 1323 l 1,2,-1
 614 1323 l 1,3,-1
 367 1057 l 1,0,-1
EndSplineSet
EndChar

StartChar: dieresis
Encoding: 168 168 104
Width: 746
Flags: W
LayerCount: 2
Fore
SplineSet
401 1081 m 1,0,-1
 401 1272 l 1,1,-1
 576 1272 l 1,2,-1
 576 1081 l 1,3,-1
 401 1081 l 1,0,-1
170 1081 m 1,4,-1
 170 1272 l 1,5,-1
 345 1272 l 1,6,-1
 345 1081 l 1,7,-1
 170 1081 l 1,4,-1
EndSplineSet
EndChar

StartChar: AE
Encoding: 198 198 105
Width: 1086
Flags: W
LayerCount: 2
Fore
SplineSet
994 91 m 0,0,1
 948 38 948 38 863 9 c 0,2,3
 857 7 857 7 709 -29 c 1,4,5
 547 -13 547 -13 450 146 c 1,6,7
 289 7 289 7 132 -14 c 1,8,9
 71 10 71 10 32 63 c 128,-1,10
 -7 116 -7 116 -7 177 c 0,11,12
 -7 371 -7 371 330 564 c 1,13,14
 294 707 294 707 292 713 c 0,15,16
 262 802 262 802 213 845 c 1,17,-1
 143 786 l 1,18,-1
 97 853 l 1,19,-1
 213 964 l 1,20,-1
 256 1002 l 1,21,-1
 295 1014 l 1,22,23
 357 1014 357 1014 414 940 c 0,24,25
 459 883 459 883 480 813 c 1,26,27
 501 849 501 849 534 882 c 0,28,29
 599 938 599 938 778 1014 c 1,30,31
 917 1014 917 1014 1055 840 c 1,32,-1
 922 697 l 1,33,34
 853 785 853 785 782 839 c 0,35,36
 726 880 726 880 696 884 c 1,37,38
 652 883 652 883 615 805 c 0,39,40
 588 750 588 750 576 688 c 0,41,42
 566 640 566 640 564 575 c 1,43,-1
 834 568 l 2,44,45
 880 568 880 568 907 581 c 0,46,47
 921 588 921 588 968 625 c 1,48,-1
 998 547 l 1,49,50
 922 481 922 481 861 455 c 1,51,52
 797 435 797 435 567 433 c 1,53,54
 572 315 572 315 663 201 c 0,55,56
 745 97 745 97 821 97 c 0,57,58
 889 97 889 97 936 347 c 1,59,-1
 1071 284 l 1,60,61
 1047 152 1047 152 994 91 c 0,0,1
353 467 m 1,62,-1
 377 448 l 1,63,-1
 365 448 l 1,64,-1
 353 450 l 1,65,66
 278 449 278 449 224 398.5 c 128,-1,67
 170 348 170 348 170 276 c 0,68,69
 170 217 170 217 256 129 c 1,70,-1
 269 128 l 1,71,72
 364 127 364 127 398 276 c 1,73,-1
 353 467 l 1,62,-1
EndSplineSet
EndChar

StartChar: Oslash
Encoding: 216 216 106
Width: 852
Flags: W
LayerCount: 2
Fore
SplineSet
739 190 m 0,0,1
 677 89 677 89 585 40 c 0,2,3
 537 14 537 14 383 -34 c 1,4,-1
 362 -34 l 1,5,-1
 326 -25 l 1,6,-1
 302 -14 l 1,7,-1
 254 -150 l 1,8,-1
 140 -150 l 1,9,-1
 209 44 l 1,10,11
 26 185 26 185 26 462 c 0,12,13
 26 625 26 625 102 759 c 0,14,15
 185 904 185 904 332 968 c 2,16,-1
 444 1018 l 1,17,18
 462 1018 462 1018 509 1008 c 0,19,20
 528 1004 528 1004 547 999 c 1,21,-1
 550 997 l 1,22,-1
 596 1114 l 1,23,-1
 709 1114 l 1,24,-1
 644 936 l 1,25,26
 824 791 824 791 824 515 c 0,27,28
 824 329 824 329 739 190 c 0,0,1
620 532 m 0,29,30
 607 640 607 640 563 711 c 1,31,-1
 366 165 l 1,32,-1
 446 114 l 1,33,34
 481 98 481 98 498 98 c 2,35,-1
 510 98 l 1,36,-1
 517 99 l 1,37,38
 624 182 624 182 624 419 c 0,39,40
 624 500 624 500 620 532 c 0,29,30
322 870 m 1,41,42
 222 772 222 772 222 527 c 0,43,44
 222 343 222 343 284 252 c 1,45,-1
 479 798 l 1,46,47
 384 870 384 870 322 870 c 1,41,42
EndSplineSet
EndChar

StartChar: yen
Encoding: 165 165 107
Width: 787
Flags: W
LayerCount: 2
Fore
SplineSet
482 347 m 1,0,-1
 482 0 l 1,1,-1
 311 0 l 1,2,-1
 311 347 l 1,3,-1
 41 347 l 1,4,-1
 41 448 l 1,5,-1
 292 448 l 1,6,-1
 232 562 l 1,7,-1
 41 562 l 1,8,-1
 41 662 l 1,9,-1
 180 662 l 1,10,-1
 141 736 l 1,11,-1
 131 758 l 2,12,13
 99 828 99 828 88 831 c 1,14,-1
 63 825 l 1,15,-1
 40 880 l 1,16,-1
 197 994 l 1,17,-1
 219 1000 l 1,18,-1
 243 985 l 1,19,-1
 260 964 l 1,20,-1
 428 596 l 1,21,22
 475 688 475 688 552 874 c 1,23,24
 563 931 563 931 563 978 c 1,25,-1
 701 987 l 1,26,27
 701 923 701 923 677 860 c 0,28,29
 671 846 671 846 619 738 c 2,30,-1
 582 662 l 1,31,-1
 736 662 l 1,32,-1
 736 562 l 1,33,-1
 530 562 l 1,34,-1
 485 474 l 1,35,-1
 483 448 l 1,36,-1
 736 448 l 1,37,-1
 736 347 l 1,38,-1
 482 347 l 1,0,-1
EndSplineSet
EndChar

StartChar: ordfeminine
Encoding: 170 170 108
Width: 469
Flags: W
LayerCount: 2
Fore
SplineSet
361 365 m 1,0,-1
 306 448 l 1,1,-1
 293 472 l 1,2,3
 186 394 186 394 86 384 c 1,4,5
 -13 424 -13 424 -13 505 c 0,6,7
 -13 623 -13 623 207 734 c 1,8,9
 187 808 187 808 185 814 c 0,10,11
 169 858 169 858 140 884 c 1,12,-1
 92 845 l 1,13,-1
 51 901 l 1,14,-1
 136 971 l 1,15,-1
 166 994 l 1,16,-1
 193 1002 l 1,17,18
 222 1002 222 1002 253 978 c 1,19,-1
 302 931 l 1,20,21
 333 874 333 874 363 732 c 0,22,23
 375 674 375 674 411 585 c 0,24,25
 436 526 436 526 482 458 c 1,26,-1
 361 365 l 1,0,-1
226 671 m 1,27,-1
 244 655 l 1,28,-1
 239 656 l 1,29,-1
 234 656 l 2,30,31
 191 656 191 656 156 630 c 128,-1,32
 121 604 121 604 121 565 c 0,33,34
 121 529 121 529 169 488 c 1,35,-1
 176 488 l 2,36,37
 238 488 238 488 255 564 c 1,38,-1
 226 671 l 1,27,-1
EndSplineSet
EndChar

StartChar: ordmasculine
Encoding: 186 186 109
Width: 563
Flags: W
LayerCount: 2
Fore
SplineSet
493 507 m 0,0,1
 451 448 451 448 388 419 c 0,2,3
 355 404 355 404 253 377 c 1,4,-1
 238 377 l 2,5,6
 166 377 166 377 86 465 c 0,7,8
 8 550 8 550 8 670 c 0,9,10
 8 769 8 769 63 851 c 0,11,12
 120 937 120 937 217 973 c 2,13,-1
 293 1002 l 1,14,15
 417 993 417 993 488 904 c 0,16,17
 552 823 552 823 552 704 c 0,18,19
 552 589 552 589 493 507 c 0,0,1
213 895 m 1,20,21
 154 842 154 842 154 717 c 0,22,23
 154 662 154 662 158 644 c 0,24,25
 164 588 164 588 219 528 c 1,26,27
 284 473 284 473 326 469 c 1,28,-1
 336 471 l 1,29,-1
 339 471 l 1,30,31
 403 518 403 518 403 646 c 0,32,33
 403 869 403 869 213 895 c 1,20,21
EndSplineSet
EndChar

StartChar: ae
Encoding: 230 230 110
Width: 1086
Flags: W
LayerCount: 2
Fore
SplineSet
994 91 m 0,0,1
 948 38 948 38 863 9 c 0,2,3
 857 7 857 7 709 -29 c 1,4,5
 547 -13 547 -13 450 146 c 1,6,7
 289 7 289 7 132 -14 c 1,8,9
 71 10 71 10 32 63 c 128,-1,10
 -7 116 -7 116 -7 177 c 0,11,12
 -7 371 -7 371 330 564 c 1,13,14
 294 707 294 707 292 713 c 0,15,16
 262 802 262 802 213 845 c 1,17,-1
 143 786 l 1,18,-1
 97 853 l 1,19,-1
 213 964 l 1,20,-1
 256 1002 l 1,21,-1
 295 1014 l 1,22,23
 357 1014 357 1014 414 940 c 0,24,25
 459 883 459 883 480 813 c 1,26,27
 501 849 501 849 534 882 c 0,28,29
 599 938 599 938 778 1014 c 1,30,31
 917 1014 917 1014 1055 840 c 1,32,-1
 922 697 l 1,33,34
 853 785 853 785 782 839 c 0,35,36
 726 880 726 880 696 884 c 1,37,38
 652 883 652 883 615 805 c 0,39,40
 588 750 588 750 576 688 c 0,41,42
 566 640 566 640 564 575 c 1,43,-1
 834 568 l 2,44,45
 880 568 880 568 907 581 c 0,46,47
 921 588 921 588 968 625 c 1,48,-1
 998 547 l 1,49,50
 922 481 922 481 861 455 c 1,51,52
 797 435 797 435 567 433 c 1,53,54
 572 315 572 315 663 201 c 0,55,56
 745 97 745 97 821 97 c 0,57,58
 889 97 889 97 936 347 c 1,59,-1
 1071 284 l 1,60,61
 1047 152 1047 152 994 91 c 0,0,1
353 467 m 1,62,-1
 377 448 l 1,63,-1
 365 448 l 1,64,-1
 353 450 l 1,65,66
 278 449 278 449 224 398.5 c 128,-1,67
 170 348 170 348 170 276 c 0,68,69
 170 217 170 217 256 129 c 1,70,-1
 269 128 l 1,71,72
 364 127 364 127 398 276 c 1,73,-1
 353 467 l 1,62,-1
EndSplineSet
EndChar

StartChar: oslash
Encoding: 248 248 111
Width: 852
Flags: W
LayerCount: 2
Fore
SplineSet
739 190 m 0,0,1
 677 89 677 89 585 40 c 0,2,3
 537 14 537 14 383 -34 c 1,4,-1
 362 -34 l 1,5,-1
 326 -25 l 1,6,-1
 302 -14 l 1,7,-1
 254 -150 l 1,8,-1
 140 -150 l 1,9,-1
 209 44 l 1,10,11
 26 185 26 185 26 462 c 0,12,13
 26 625 26 625 102 759 c 0,14,15
 185 904 185 904 332 968 c 2,16,-1
 444 1018 l 1,17,18
 462 1018 462 1018 509 1008 c 0,19,20
 528 1004 528 1004 547 999 c 1,21,-1
 550 997 l 1,22,-1
 596 1114 l 1,23,-1
 709 1114 l 1,24,-1
 644 936 l 1,25,26
 824 791 824 791 824 515 c 0,27,28
 824 329 824 329 739 190 c 0,0,1
620 532 m 0,29,30
 607 640 607 640 563 711 c 1,31,-1
 366 165 l 1,32,-1
 446 114 l 1,33,34
 481 98 481 98 498 98 c 2,35,-1
 510 98 l 1,36,-1
 517 99 l 1,37,38
 624 182 624 182 624 419 c 0,39,40
 624 500 624 500 620 532 c 0,29,30
322 870 m 1,41,42
 222 772 222 772 222 527 c 0,43,44
 222 343 222 343 284 252 c 1,45,-1
 479 798 l 1,46,47
 384 870 384 870 322 870 c 1,41,42
EndSplineSet
EndChar

StartChar: questiondown
Encoding: 191 191 112
Width: 496
Flags: W
LayerCount: 2
Fore
SplineSet
221 869 m 1,0,-1
 131 1024 l 1,1,-1
 286 1169 l 1,2,-1
 369 1018 l 1,3,-1
 221 869 l 1,0,-1
348 51 m 0,4,5
 276 -17 276 -17 221 -17 c 0,6,7
 153 -17 153 -17 97 50 c 0,8,9
 46 111 46 111 46 194 c 0,10,11
 46 238 46 238 145 445 c 0,12,13
 200 560 200 560 200 601 c 0,14,15
 200 646 200 646 179 679 c 1,16,17
 168 704 168 704 157 708 c 1,18,-1
 146 703 l 1,19,20
 107 708 107 708 85 750 c 1,21,22
 221 902 221 902 266 902 c 0,23,24
 310 902 310 902 351 844 c 0,25,26
 386 794 386 794 386 737 c 0,27,28
 386 702 386 702 372 674 c 0,29,30
 368 658 368 658 311 552 c 0,31,32
 250 439 250 439 250 385 c 0,33,34
 250 314 250 314 283 262 c 0,35,36
 314 214 314 214 342 214 c 0,37,38
 366 214 366 214 439 311 c 1,39,-1
 503 253 l 1,40,41
 402 103 402 103 348 51 c 0,4,5
EndSplineSet
EndChar

StartChar: exclamdown
Encoding: 161 161 113
Width: 393
Flags: W
LayerCount: 2
Fore
SplineSet
187 903 m 1,0,-1
 100 1054 l 1,1,-1
 252 1202 l 1,2,-1
 339 1047 l 1,3,-1
 187 903 l 1,0,-1
294 818 m 0,4,5
 287 791 287 791 292 642 c 2,6,-1
 300 374 l 2,7,8
 300 241 300 241 245 149 c 0,9,10
 205 82 205 82 85 -29 c 1,11,-1
 35 48 l 1,12,13
 73 74 73 74 82 112 c 128,-1,14
 91 150 91 150 91 248 c 2,15,-1
 92 547 l 2,16,17
 92 701 92 701 134 789 c 0,18,19
 175 872 175 872 298 979 c 1,20,-1
 352 915 l 1,21,22
 305 856 305 856 294 818 c 0,4,5
EndSplineSet
EndChar

StartChar: florin
Encoding: 402 402 114
Width: 606
Flags: W
LayerCount: 2
Fore
SplineSet
380 593 m 1,0,-1
 521 593 l 1,1,-1
 521 482 l 1,2,-1
 372 482 l 1,3,-1
 355 310 l 1,4,5
 355 217 355 217 328 76 c 0,6,7
 299 -76 299 -76 262.5 -144 c 128,-1,8
 226 -212 226 -212 162 -261 c 0,9,10
 90 -316 90 -316 19 -316 c 0,11,12
 -120 -316 -120 -316 -150 -123 c 1,13,-1
 24 -25 l 1,14,-1
 60 -86 l 1,15,-1
 35 -111 l 1,16,17
 37 -147 37 -147 54 -175.5 c 128,-1,18
 71 -204 71 -204 81 -204 c 0,19,20
 100 -204 100 -204 126 -96 c 0,21,22
 147 -4 147 -4 158 63 c 1,23,24
 164 139 164 139 176 293 c 2,25,-1
 192 481 l 1,26,-1
 86 481 l 1,27,-1
 86 593 l 1,28,-1
 203 593 l 1,29,30
 207 653 207 653 215 773 c 0,31,32
 226 908 226 908 279 980 c 1,33,34
 340 1046 340 1046 542 1137 c 1,35,36
 627 1107 627 1107 702 997 c 1,37,-1
 554 851 l 1,38,-1
 506 906 l 1,39,-1
 531 932 l 1,40,-1
 533 939 l 1,41,42
 520 985 520 985 449 1001 c 1,43,44
 380 901 380 901 380 593 c 1,0,-1
EndSplineSet
EndChar

StartChar: guillemotleft
Encoding: 171 171 115
Width: 631
Flags: W
LayerCount: 2
Fore
SplineSet
464 76 m 1,0,-1
 285 492 l 1,1,-1
 464 909 l 1,2,-1
 601 812 l 1,3,-1
 457 492 l 1,4,-1
 601 176 l 1,5,-1
 464 76 l 1,0,-1
211 75 m 1,6,-1
 28 492 l 1,7,-1
 210 909 l 1,8,-1
 342 812 l 1,9,-1
 203 492 l 1,10,-1
 342 176 l 1,11,-1
 211 75 l 1,6,-1
EndSplineSet
EndChar

StartChar: guillemotright
Encoding: 187 187 116
Width: 631
Flags: W
LayerCount: 2
Fore
SplineSet
420 75 m 1,0,-1
 288 176 l 1,1,-1
 428 492 l 1,2,-1
 288 812 l 1,3,-1
 421 909 l 1,4,-1
 603 492 l 1,5,-1
 420 75 l 1,0,-1
167 76 m 1,6,-1
 33 176 l 1,7,-1
 174 492 l 1,8,-1
 33 812 l 1,9,-1
 167 909 l 1,10,-1
 347 492 l 1,11,-1
 167 76 l 1,6,-1
EndSplineSet
EndChar

StartChar: ellipsis
Encoding: 8230 8230 117
Width: 1491
Flags: W
LayerCount: 2
Fore
SplineSet
2432 -29 m 1,0,-1
 2310 72 l 1,1,-1
 2412 239 l 1,2,-1
 2536 146 l 1,3,-1
 2432 -29 l 1,0,-1
1381 -29 m 1,4,-1
 1257 72 l 1,5,-1
 1361 239 l 1,6,-1
 1485 146 l 1,7,-1
 1381 -29 l 1,4,-1
333 -29 m 1,8,-1
 208 72 l 1,9,-1
 315 239 l 1,10,-1
 436 145 l 1,11,-1
 333 -29 l 1,8,-1
EndSplineSet
EndChar

StartChar: OE
Encoding: 338 338 118
Width: 1305
Flags: W
LayerCount: 2
Fore
SplineSet
1227 89 m 0,0,1
 1185 38 1185 38 1094 9 c 0,2,3
 1092 8 1092 8 940 -29 c 1,4,5
 789 -14 789 -14 682 143 c 1,6,7
 621 68 621 68 544 31 c 0,8,9
 510 14 510 14 375 -29 c 1,10,-1
 350 -29 l 2,11,12
 289 -29 289 -29 189 61 c 0,13,14
 26 209 26 209 26 462 c 0,15,16
 26 622 26 622 100 755 c 0,17,18
 181 900 181 900 323 965 c 2,19,-1
 430 1014 l 1,20,21
 591 1014 591 1014 717 835 c 1,22,23
 780 908 780 908 1006 1014 c 1,24,25
 1151 1014 1151 1014 1284 840 c 1,26,-1
 1151 696 l 1,27,28
 1079 791 1079 791 1017 837 c 0,29,30
 958 880 958 880 927 884 c 1,31,32
 851 882 851 882 807 687 c 0,33,34
 795 633 795 633 793 577 c 1,35,-1
 1065 568 l 2,36,37
 1126 568 1126 568 1198 624 c 1,38,-1
 1232 547 l 1,39,40
 1151 481 1151 481 1093 455 c 1,41,42
 1028 435 1028 435 798 433 c 1,43,44
 804 314 804 314 893 201 c 0,45,46
 975 97 975 97 1053 97 c 0,47,48
 1124 97 1124 97 1164 347 c 1,49,-1
 1302 284 l 1,50,51
 1273 146 1273 146 1227 89 c 0,0,1
600 540 m 0,52,53
 575 750 575 750 398 842 c 0,54,55
 350 867 350 867 322 867 c 2,56,-1
 313 867 l 1,57,58
 218 774 218 774 218 541 c 0,59,60
 218 238 218 238 409 131 c 0,61,62
 453 106 453 106 486 102 c 1,63,-1
 496 102 l 1,64,-1
 502 102 l 1,65,66
 606 187 606 187 606 421 c 0,67,68
 606 491 606 491 600 540 c 0,52,53
EndSplineSet
EndChar

StartChar: oe
Encoding: 339 339 119
Width: 1305
Flags: W
LayerCount: 2
Fore
SplineSet
1227 89 m 0,0,1
 1185 38 1185 38 1094 9 c 0,2,3
 1092 8 1092 8 940 -29 c 1,4,5
 789 -14 789 -14 682 143 c 1,6,7
 621 68 621 68 544 31 c 0,8,9
 510 14 510 14 375 -29 c 1,10,-1
 350 -29 l 2,11,12
 289 -29 289 -29 189 61 c 0,13,14
 26 209 26 209 26 462 c 0,15,16
 26 622 26 622 100 755 c 0,17,18
 181 900 181 900 323 965 c 2,19,-1
 430 1014 l 1,20,21
 591 1014 591 1014 717 835 c 1,22,23
 780 908 780 908 1006 1014 c 1,24,25
 1151 1014 1151 1014 1284 840 c 1,26,-1
 1151 696 l 1,27,28
 1079 791 1079 791 1017 837 c 0,29,30
 958 880 958 880 927 884 c 1,31,32
 851 882 851 882 807 687 c 0,33,34
 795 633 795 633 793 577 c 1,35,-1
 1065 568 l 2,36,37
 1126 568 1126 568 1198 624 c 1,38,-1
 1232 547 l 1,39,40
 1151 481 1151 481 1093 455 c 1,41,42
 1028 435 1028 435 798 433 c 1,43,44
 804 314 804 314 893 201 c 0,45,46
 975 97 975 97 1053 97 c 0,47,48
 1124 97 1124 97 1164 347 c 1,49,-1
 1302 284 l 1,50,51
 1273 146 1273 146 1227 89 c 0,0,1
600 540 m 0,52,53
 575 750 575 750 398 842 c 0,54,55
 350 867 350 867 322 867 c 2,56,-1
 313 867 l 1,57,58
 218 774 218 774 218 541 c 0,59,60
 218 238 218 238 409 131 c 0,61,62
 453 106 453 106 486 102 c 1,63,-1
 496 102 l 1,64,-1
 502 102 l 1,65,66
 606 187 606 187 606 421 c 0,67,68
 606 491 606 491 600 540 c 0,52,53
EndSplineSet
EndChar

StartChar: endash
Encoding: 8211 8211 120
Width: 746
Flags: W
LayerCount: 2
Fore
SplineSet
-25 459 m 1,0,-1
 -25 551 l 1,1,-1
 771 551 l 1,2,-1
 771 459 l 1,3,-1
 -25 459 l 1,0,-1
EndSplineSet
EndChar

StartChar: emdash
Encoding: 8212 8212 121
Width: 1491
Flags: W
LayerCount: 2
Fore
SplineSet
-26 459 m 1,0,-1
 -26 551 l 1,1,-1
 1516 551 l 1,2,-1
 1516 459 l 1,3,-1
 -26 459 l 1,0,-1
EndSplineSet
EndChar

StartChar: quotedblleft
Encoding: 8220 8220 122
Width: 496
Flags: W
LayerCount: 2
Fore
SplineSet
344 922 m 1,0,-1
 210 1006 l 1,1,-1
 336 1293 l 1,2,-1
 419 1293 l 1,3,4
 403 1262 403 1262 382 1197 c 1,5,-1
 380 1183 l 1,6,-1
 377 1168 l 2,7,8
 376 1163 376 1163 376 1161 c 0,9,10
 376 1147 376 1147 381 1142 c 0,11,12
 388 1133 388 1133 426 1108 c 1,13,-1
 344 922 l 1,0,-1
178 922 m 1,14,-1
 43 1006 l 1,15,-1
 170 1293 l 1,16,-1
 255 1293 l 1,17,-1
 217 1202 l 1,18,-1
 210 1160 l 2,19,20
 210 1150 210 1150 216 1141 c 128,-1,21
 222 1132 222 1132 260 1108 c 1,22,-1
 178 922 l 1,14,-1
EndSplineSet
EndChar

StartChar: quotedblright
Encoding: 8221 8221 123
Width: 496
Flags: W
LayerCount: 2
Fore
SplineSet
345 934 m 1,0,-1
 261 934 l 1,1,2
 303 1044 303 1044 303 1062 c 0,3,4
 303 1074 303 1074 298 1084 c 0,5,6
 290 1095 290 1095 253 1120 c 1,7,-1
 334 1306 l 1,8,-1
 469 1219 l 1,9,-1
 345 934 l 1,0,-1
177 934 m 1,10,-1
 93 934 l 1,11,-1
 132 1024 l 1,12,-1
 137 1063 l 2,13,14
 137 1083 137 1083 121.5 1096 c 128,-1,15
 106 1109 106 1109 90 1122 c 1,16,-1
 172 1306 l 1,17,-1
 305 1219 l 1,18,-1
 177 934 l 1,10,-1
EndSplineSet
EndChar

StartChar: quoteleft
Encoding: 8216 8216 124
Width: 330
Flags: W
LayerCount: 2
Fore
SplineSet
178 922 m 1,0,-1
 43 1006 l 1,1,-1
 170 1293 l 1,2,-1
 256 1293 l 1,3,-1
 217 1202 l 1,4,-1
 210 1160 l 1,5,6
 211 1141 211 1141 260 1107 c 1,7,-1
 178 922 l 1,0,-1
EndSplineSet
EndChar

StartChar: quoteright
Encoding: 8217 8217 125
Width: 330
Flags: W
LayerCount: 2
Fore
SplineSet
177 934 m 1,0,-1
 93 934 l 1,1,-1
 132 1024 l 1,2,-1
 137 1063 l 2,3,4
 137 1083 137 1083 121.5 1096 c 128,-1,5
 106 1109 106 1109 90 1122 c 1,6,-1
 172 1306 l 1,7,-1
 305 1219 l 1,8,-1
 177 934 l 1,0,-1
EndSplineSet
EndChar

StartChar: currency
Encoding: 164 164 126
Width: 903
Flags: W
LayerCount: 2
Fore
SplineSet
787 324 m 1,0,-1
 636 520 l 1,1,2
 555 452 555 452 453 452 c 0,3,4
 349 452 349 452 272 519 c 1,5,-1
 119 324 l 1,6,-1
 28 440 l 1,7,-1
 179 634 l 1,8,9
 122 734 122 734 122 867 c 0,10,11
 122 994 122 994 179 1101 c 1,12,-1
 28 1297 l 1,13,-1
 119 1411 l 1,14,-1
 272 1215 l 1,15,16
 353 1285 353 1285 453 1285 c 0,17,18
 548 1285 548 1285 635 1215 c 1,19,-1
 787 1411 l 1,20,-1
 877 1297 l 1,21,-1
 728 1101 l 1,22,23
 783 991 783 991 783 867 c 0,24,25
 783 813 783 813 781 791 c 0,26,27
 764 705 764 705 728 635 c 1,28,-1
 877 440 l 1,29,-1
 787 324 l 1,0,-1
590 1056 m 0,30,31
 534 1129 534 1129 453 1129 c 0,32,33
 362 1129 362 1129 305 1038 c 0,34,35
 256 961 256 961 256 869 c 0,36,37
 256 762 256 762 316 684.5 c 128,-1,38
 376 607 376 607 453 607 c 0,39,40
 533 607 533 607 591 683.5 c 128,-1,41
 649 760 649 760 649 869 c 0,42,43
 649 980 649 980 590 1056 c 0,30,31
EndSplineSet
EndChar

StartChar: guilsinglleft
Encoding: 8249 8249 127
Width: 377
Flags: W
LayerCount: 2
Fore
SplineSet
211 75 m 1,0,-1
 28 492 l 1,1,-1
 210 909 l 1,2,-1
 342 812 l 1,3,-1
 203 492 l 1,4,-1
 342 176 l 1,5,-1
 211 75 l 1,0,-1
EndSplineSet
EndChar

StartChar: guilsinglright
Encoding: 8250 8250 128
Width: 377
Flags: W
LayerCount: 2
Fore
SplineSet
167 76 m 1,0,-1
 33 176 l 1,1,-1
 174 492 l 1,2,-1
 33 812 l 1,3,-1
 167 909 l 1,4,-1
 347 492 l 1,5,-1
 167 76 l 1,0,-1
EndSplineSet
EndChar

StartChar: daggerdbl
Encoding: 8225 8225 129
Width: 746
Flags: W
LayerCount: 2
Fore
SplineSet
429 29 m 1,0,-1
 475 -361 l 1,1,-1
 271 -361 l 1,2,-1
 317 29 l 1,3,-1
 77 -30 l 1,4,-1
 77 222 l 1,5,-1
 319 165 l 1,6,7
 294 350 294 350 270 465 c 1,8,-1
 300 646 l 1,9,-1
 315 769 l 1,10,-1
 77 715 l 1,11,-1
 77 963 l 1,12,-1
 317 903 l 1,13,-1
 271 1293 l 1,14,-1
 475 1293 l 1,15,-1
 429 903 l 1,16,-1
 668 963 l 1,17,-1
 668 713 l 1,18,-1
 427 769 l 1,19,-1
 443 641 l 1,20,-1
 474 467 l 1,21,-1
 447 313 l 1,22,-1
 431 165 l 1,23,-1
 668 219 l 1,24,-1
 668 -30 l 1,25,-1
 429 29 l 1,0,-1
EndSplineSet
EndChar

StartChar: periodcentered
Encoding: 183 183 130
AltUni2: 002219.ffffffff.0
Width: 330
Flags: W
LayerCount: 2
Fore
SplineSet
223 422 m 0,0,1
 191 389 191 389 146 389 c 0,2,3
 103 389 103 389 72 425 c 0,4,5
 44 458 44 458 44 494 c 0,6,7
 44 531 44 531 72.5 563.5 c 128,-1,8
 101 596 101 596 146 596 c 0,9,10
 193 596 193 596 222 564 c 128,-1,11
 251 532 251 532 251 494 c 0,12,13
 251 451 251 451 223 422 c 0,0,1
EndSplineSet
EndChar

StartChar: quotesinglbase
Encoding: 8218 8218 131
Width: 330
Flags: W
LayerCount: 2
Fore
SplineSet
134 -131 m 1,0,-1
 51 -131 l 1,1,2
 61 -105 61 -105 77 -67 c 0,3,4
 85 -49 85 -49 96 1 c 1,5,6
 95 20 95 20 43 52 c 1,7,-1
 125 238 l 1,8,-1
 260 156 l 1,9,-1
 134 -131 l 1,0,-1
EndSplineSet
EndChar

StartChar: quotedblbase
Encoding: 8222 8222 132
Width: 496
Flags: W
LayerCount: 2
Fore
SplineSet
300 -131 m 1,0,-1
 217 -131 l 1,1,-1
 253 -41 l 1,2,3
 260 -12 260 -12 260 -1 c 0,4,5
 260 12 260 12 256 18.5 c 128,-1,6
 252 25 252 25 245 29 c 2,7,-1
 210 53 l 1,8,-1
 291 238 l 1,9,-1
 426 156 l 1,10,-1
 300 -131 l 1,0,-1
134 -131 m 1,11,-1
 51 -131 l 1,12,13
 66 -98 66 -98 86 -42 c 1,14,-1
 96 1 l 1,15,16
 95 20 95 20 43 52 c 1,17,-1
 125 238 l 1,18,-1
 260 156 l 1,19,-1
 134 -131 l 1,11,-1
EndSplineSet
EndChar

StartChar: perthousand
Encoding: 8240 8240 133
Width: 1282
Flags: W
LayerCount: 2
Fore
SplineSet
1259 215 m 0,0,1
 1239 128 1239 128 1183 79 c 0,2,3
 1135 38 1135 38 1088 7 c 0,4,5
 1086 6 1086 6 1077 -2 c 1,6,7
 1015 -2 1015 -2 959 60 c 0,8,9
 912 112 912 112 892 178 c 0,10,11
 876 228 876 228 876 283 c 0,12,13
 876 398 876 398 918 474 c 0,14,15
 956 541 956 541 1052 617 c 1,16,17
 1272 617 1272 617 1272 347 c 0,18,19
 1272 269 1272 269 1259 215 c 0,0,1
850 193 m 0,20,21
 827 123 827 123 780 80 c 0,22,23
 752 49 752 49 687 7 c 0,24,25
 685 6 685 6 676 -2 c 1,26,27
 601 -2 601 -2 536 87 c 0,28,29
 475 171 475 171 475 283 c 0,30,31
 475 401 475 401 516 475 c 0,32,33
 553 543 553 543 651 617 c 1,34,35
 871 617 871 617 871 347 c 0,36,37
 871 257 871 257 850 193 c 0,20,21
584 672 m 0,38,39
 400 304 400 304 260 -53 c 1,40,-1
 138 33 l 1,41,42
 189 127 189 127 247 235 c 0,43,44
 408 542 408 542 535 870 c 1,45,-1
 501 856 l 1,46,-1
 398 826 l 1,47,-1
 402 781 l 1,48,-1
 404 733 l 2,49,50
 410 596 410 596 348 515 c 0,51,52
 297 448 297 448 206 395 c 1,53,54
 133 395 133 395 69 486 c 0,55,56
 8 572 8 572 8 679 c 0,57,58
 8 793 8 793 49 868 c 0,59,60
 87 937 87 937 184 1014 c 1,61,62
 289 1014 289 1014 349 936 c 1,63,-1
 355 936 l 2,64,65
 459 936 459 936 620 1019 c 1,66,-1
 721 940 l 1,67,68
 645 795 645 795 584 672 c 0,38,39
1099 441 m 1,69,70
 1068 489 1068 489 1037 489 c 1,71,72
 1026 456 1026 456 1021 428 c 0,73,74
 1014 352 1014 352 1014 321 c 0,75,76
 1014 176 1014 176 1098 129 c 1,77,78
 1128 196 1128 196 1128 302 c 0,79,80
 1128 385 1128 385 1099 441 c 1,69,70
634 489 m 1,81,82
 626 464 626 464 619 428 c 1,83,84
 614 356 614 356 614 328 c 0,85,86
 614 177 614 177 697 129 c 1,87,88
 728 203 728 203 728 302 c 0,89,90
 728 387 728 387 695 441 c 0,91,92
 667 488 667 488 634 489 c 1,81,82
165 885 m 1,93,-1
 162 884 l 1,94,-1
 150 884 l 1,95,-1
 174 902 l 1,96,-1
 152 824 l 1,97,98
 146 751 146 751 146 722 c 0,99,100
 146 569 146 569 231 525 c 1,101,102
 239 542 239 542 250 586 c 1,103,104
 262 677 262 677 262 709 c 0,105,106
 260 738 260 738 247 796 c 1,107,-1
 204 789 l 1,108,-1
 195 874 l 1,109,-1
 182 882 l 1,110,-1
 165 885 l 1,93,-1
EndSplineSet
EndChar

StartChar: circumflex
Encoding: 710 710 134
Width: 746
Flags: W
LayerCount: 2
Fore
SplineSet
492 1057 m 1,0,-1
 373 1182 l 1,1,-1
 254 1057 l 1,2,-1
 115 1057 l 1,3,-1
 288 1323 l 1,4,-1
 458 1323 l 1,5,-1
 630 1057 l 1,6,-1
 492 1057 l 1,0,-1
EndSplineSet
EndChar

StartChar: tilde
Encoding: 732 732 135
Width: 746
Flags: W
LayerCount: 2
Fore
SplineSet
551 1144 m 0,0,1
 505 1091 505 1091 411 1098 c 1,2,-1
 383 1105 l 1,3,-1
 311 1128 l 1,4,-1
 303 1129 l 1,5,-1
 288 1131 l 1,6,7
 265 1129 265 1129 247 1077 c 1,8,-1
 134 1077 l 1,9,10
 155 1165 155 1165 182 1205 c 0,11,12
 228 1273 228 1273 313 1273 c 0,13,14
 329 1272 329 1272 357 1267 c 2,15,-1
 442 1242 l 1,16,-1
 463 1240 l 2,17,18
 471 1240 471 1240 478 1245 c 0,19,20
 487 1257 487 1257 495 1295 c 1,21,-1
 606 1295 l 1,22,23
 590 1188 590 1188 551 1144 c 0,0,1
EndSplineSet
EndChar

StartChar: macron
Encoding: 175 175 136
AltUni2: 0002c9.ffffffff.0
Width: 746
Flags: W
LayerCount: 2
Fore
SplineSet
157 1112 m 1,0,-1
 157 1243 l 1,1,-1
 588 1243 l 1,2,-1
 588 1112 l 1,3,-1
 157 1112 l 1,0,-1
EndSplineSet
EndChar

StartChar: cedilla
Encoding: 184 184 137
Width: 746
Flags: W
LayerCount: 2
Fore
SplineSet
551 -363 m 0,0,1
 491 -417 491 -417 403 -410 c 2,2,-1
 332 -404 l 1,3,-1
 221 -378 l 1,4,-1
 240 -287 l 1,5,-1
 339 -310 l 1,6,-1
 391 -316 l 1,7,8
 430 -316 430 -316 442 -301 c 128,-1,9
 454 -286 454 -286 454 -248 c 0,10,11
 454 -189 454 -189 405 -189 c 1,12,-1
 358 -193 l 1,13,-1
 321 -203 l 1,14,-1
 321 8 l 1,15,-1
 412 8 l 1,16,-1
 412 -98 l 1,17,-1
 429 -95 l 1,18,19
 527 -90 527 -90 566 -132 c 0,20,21
 601 -169 601 -169 601 -230 c 0,22,23
 601 -318 601 -318 551 -363 c 0,0,1
EndSplineSet
EndChar

StartChar: trademark
Encoding: 8482 8482 138
Width: 1225
Flags: W
LayerCount: 2
Fore
SplineSet
842 885 m 1,0,-1
 842 955 l 1,1,-1
 888 959 l 2,2,3
 895 959 895 959 896 984 c 2,4,-1
 896 1156 l 1,5,-1
 816 883 l 1,6,-1
 762 883 l 1,7,-1
 681 1158 l 1,8,-1
 681 983 l 2,9,10
 681 969 681 969 686 962 c 0,11,12
 687 960 687 960 690 959 c 2,13,-1
 736 955 l 1,14,-1
 736 885 l 1,15,-1
 545 885 l 1,16,-1
 545 955 l 1,17,18
 566 956 566 956 587 957 c 0,19,20
 598 960 598 960 598 983 c 2,21,-1
 598 1315 l 2,22,23
 598 1330 598 1330 593 1336 c 0,24,25
 589 1346 589 1346 570 1347 c 0,26,27
 557 1347 557 1347 545 1347 c 1,28,-1
 545 1413 l 1,29,-1
 726 1413 l 1,30,-1
 807 1129 l 1,31,-1
 891 1413 l 1,32,-1
 1068 1413 l 1,33,-1
 1068 1347 l 1,34,-1
 1022 1344 l 1,35,-1
 1014 1317 l 1,36,-1
 1014 983 l 2,37,38
 1014 977 1014 977 1016 972 c 0,39,40
 1016 961 1016 961 1024 959 c 2,41,-1
 1068 955 l 1,42,-1
 1068 885 l 1,43,-1
 842 885 l 1,0,-1
280 1339 m 1,44,45
 220 1330 220 1330 220 1205 c 1,46,-1
 150 1205 l 1,47,-1
 159 1413 l 1,48,-1
 530 1413 l 1,49,-1
 540 1205 l 1,50,-1
 469 1205 l 1,51,52
 469 1329 469 1329 408 1339 c 1,53,-1
 408 983 l 2,54,55
 408 962 408 962 418 959 c 2,56,-1
 461 955 l 1,57,-1
 461 885 l 1,58,-1
 227 885 l 1,59,-1
 227 955 l 1,60,61
 248 956 248 956 269 957 c 0,62,63
 280 960 280 960 280 983 c 2,64,-1
 280 1339 l 1,44,45
EndSplineSet
EndChar

StartChar: Ydieresis
Encoding: 376 376 139
Width: 756
Flags: W
LayerCount: 2
Fore
SplineSet
399 1016 m 1,0,-1
 399 1247 l 1,1,-1
 572 1247 l 1,2,-1
 572 1016 l 1,3,-1
 399 1016 l 1,0,-1
176 1016 m 1,4,-1
 176 1247 l 1,5,-1
 349 1247 l 1,6,-1
 349 1016 l 1,7,-1
 176 1016 l 1,4,-1
680 712 m 2,8,-1
 651 617 l 1,9,10
 586 365 586 365 449 -130 c 1,11,12
 390 -328 390 -328 252 -328 c 0,13,14
 160 -328 160 -328 127 -240 c 0,15,16
 115 -216 115 -216 115 -169 c 1,17,-1
 298 -85 l 1,18,-1
 292 -146 l 1,19,-1
 292 -156 l 2,20,21
 292 -193 292 -193 306 -202 c 1,22,23
 321 -197 321 -197 349 -122 c 1,24,-1
 380 -8 l 1,25,-1
 306 -19 l 1,26,-1
 313 27 l 1,27,-1
 315 41 l 1,28,29
 288 181 288 181 211 382 c 0,30,31
 148 542 148 542 85 703 c 0,32,33
 56 782 56 782 51 793 c 0,34,35
 20 853 20 853 -19 858 c 1,36,-1
 -19 916 l 1,37,-1
 179 1033 l 1,38,-1
 268 801 l 1,39,-1
 344 586 l 1,40,-1
 454 264 l 1,41,42
 528 538 528 538 532 556 c 0,43,44
 582 763 582 763 577 861 c 2,45,-1
 575 905 l 1,46,-1
 567 993 l 1,47,-1
 724 993 l 1,48,-1
 724 927 l 2,49,50
 724 856 724 856 680 712 c 2,8,-1
EndSplineSet
EndChar

StartChar: copyright
Encoding: 169 169 141
Width: 1225
Flags: W
LayerCount: 2
Fore
SplineSet
1116 400 m 0,0,1
 1061 224 1061 224 934 103 c 0,2,3
 790 -33 790 -33 613 -33 c 0,4,5
 392 -33 392 -33 228 174 c 0,6,7
 71 374 71 374 71 664 c 0,8,9
 71 858 71 858 152 1030 c 0,10,11
 242 1222 242 1222 402 1310 c 0,12,13
 501 1364 501 1364 615 1364 c 0,14,15
 792 1364 792 1364 933 1228 c 0,16,17
 1054 1111 1054 1111 1114 932 c 0,18,19
 1154 813 1154 813 1154 664 c 0,20,21
 1154 523 1154 523 1116 400 c 0,0,1
942 1026 m 0,22,23
 876 1132 876 1132 772 1191 c 0,24,25
 694 1235 694 1235 615 1235 c 0,26,27
 449 1235 449 1235 326 1082 c 0,28,29
 221 950 221 950 195 777 c 0,30,31
 187 726 187 726 187 664 c 0,32,33
 187 432 187 432 319 261 c 0,34,35
 445 98 445 98 613 98 c 0,36,37
 790 98 790 98 911 263 c 0,38,39
 1038 435 1038 435 1038 664 c 0,40,41
 1038 872 1038 872 942 1026 c 0,22,23
766 283 m 0,42,43
 694 228 694 228 606 228 c 0,44,45
 467 228 467 228 373 358 c 0,46,47
 280 484 280 484 280 658 c 0,48,49
 280 839 280 839 371.5 964.5 c 128,-1,50
 463 1090 463 1090 604 1090 c 0,51,52
 662 1090 662 1090 775 1029 c 0,53,54
 778 1029 778 1029 782.5 1034.5 c 128,-1,55
 787 1040 787 1040 793 1086 c 1,56,-1
 869 1086 l 1,57,-1
 871 738 l 1,58,-1
 792 738 l 1,59,60
 749 997 749 997 611 997 c 0,61,62
 459 997 459 997 459 670 c 0,63,64
 459 334 459 334 625 334 c 0,65,66
 729 334 729 334 822 514 c 1,67,-1
 888 459 l 1,68,69
 830 333 830 333 766 283 c 0,42,43
EndSplineSet
EndChar

StartChar: logicalnot
Encoding: 172 172 142
Width: 1241
Flags: W
LayerCount: 2
Fore
SplineSet
931 350 m 1,0,-1
 931 673 l 1,1,-1
 160 673 l 1,2,-1
 160 844 l 1,3,-1
 1082 844 l 1,4,-1
 1082 350 l 1,5,-1
 931 350 l 1,0,-1
EndSplineSet
EndChar

StartChar: registered
Encoding: 174 174 143
Width: 1225
Flags: W
LayerCount: 2
Fore
SplineSet
1112 389 m 0,0,1
 1024 128 1024 128 817 20 c 0,2,3
 715 -33 715 -33 606 -33 c 0,4,5
 391 -33 391 -33 228 174 c 0,6,7
 71 374 71 374 71 664 c 0,8,9
 71 861 71 861 151 1030 c 0,10,11
 240 1219 240 1219 404 1308 c 0,12,13
 507 1364 507 1364 615 1364 c 0,14,15
 793 1364 793 1364 934 1228 c 0,16,17
 1059 1108 1059 1108 1114 930 c 0,18,19
 1154 800 1154 800 1154 660 c 0,20,21
 1154 515 1154 515 1112 389 c 0,0,1
1004 886 m 0,22,23
 941 1096 941 1096 772 1191 c 0,24,25
 694 1235 694 1235 615 1235 c 0,26,27
 449 1235 449 1235 326 1082 c 0,28,29
 221 950 221 950 195 777 c 0,30,31
 187 726 187 726 187 664 c 0,32,33
 187 432 187 432 317 261 c 0,34,35
 440 98 440 98 613 98 c 0,36,37
 751 98 751 98 863 210 c 0,38,39
 960 307 960 307 1004 447 c 0,40,41
 1036 549 1036 549 1036 664 c 256,42,43
 1036 779 1036 779 1004 886 c 0,22,23
562 640 m 1,44,-1
 562 432 l 2,45,46
 562 395 562 395 575 382 c 0,47,48
 589 366 589 366 648 359 c 1,49,-1
 648 272 l 1,50,-1
 315 272 l 1,51,-1
 315 362 l 1,52,53
 368 362 368 362 381 370 c 0,54,55
 403 382 403 382 403 432 c 2,56,-1
 403 921 l 2,57,58
 403 959 403 959 391 975 c 0,59,60
 378 987 378 987 315 994 c 1,61,-1
 315 1081 l 1,62,-1
 629 1081 l 2,63,64
 737 1081 737 1081 807 1031 c 0,65,66
 885 975 885 975 885 874 c 0,67,68
 885 728 885 728 722 672 c 1,69,70
 785 634 785 634 812 563 c 0,71,72
 829 520 829 520 842 424 c 0,73,74
 850 362 850 362 858 362 c 0,75,76
 863 362 863 362 870 378 c 0,77,78
 880 404 880 404 880 486 c 1,79,-1
 963 486 l 1,80,-1
 963 442 l 2,81,82
 963 254 963 254 821 254 c 0,83,84
 682 254 682 254 682 440 c 0,85,86
 682 637 682 637 562 640 c 1,44,-1
564 728 m 1,87,-1
 582 728 l 2,88,89
 718 728 718 728 718 866 c 0,90,91
 718 993 718 993 611 993 c 0,92,93
 562 993 562 993 562 951 c 2,94,-1
 564 728 l 1,87,-1
EndSplineSet
EndChar

StartChar: degree
Encoding: 176 176 144
Width: 490
Flags: W
LayerCount: 2
Fore
SplineSet
413 948 m 0,0,1
 343 862 343 862 244 862 c 0,2,3
 136 862 136 862 68 957 c 0,4,5
 10 1040 10 1040 10 1145 c 0,6,7
 10 1258 10 1258 77 1341 c 0,8,9
 146 1428 146 1428 246 1428 c 0,10,11
 344 1428 344 1428 413 1341 c 0,12,13
 480 1258 480 1258 480 1145 c 256,14,15
 480 1032 480 1032 413 948 c 0,0,1
246 1298 m 0,16,17
 194 1298 194 1298 159 1244 c 0,18,19
 130 1198 130 1198 130 1147 c 0,20,21
 130 1092 130 1092 157 1047 c 0,22,23
 190 993 190 993 246 993 c 0,24,25
 301 993 301 993 333 1048 c 0,26,27
 360 1093 360 1093 360 1147 c 0,28,29
 360 1205 360 1205 333 1248 c 0,30,31
 301 1298 301 1298 246 1298 c 0,16,17
EndSplineSet
EndChar

StartChar: plusminus
Encoding: 177 177 145
Width: 1241
Flags: W
LayerCount: 2
Fore
SplineSet
699 671 m 1,0,-1
 699 353 l 1,1,-1
 544 353 l 1,2,-1
 544 671 l 1,3,-1
 160 671 l 1,4,-1
 160 850 l 1,5,-1
 544 850 l 1,6,-1
 544 1168 l 1,7,-1
 699 1168 l 1,8,-1
 699 850 l 1,9,-1
 1082 850 l 1,10,-1
 1082 671 l 1,11,-1
 699 671 l 1,0,-1
160 28 m 1,12,-1
 160 210 l 1,13,-1
 1082 210 l 1,14,-1
 1082 28 l 1,15,-1
 160 28 l 1,12,-1
EndSplineSet
EndChar

StartChar: mu
Encoding: 181 181 146
AltUni2: 0003bc.ffffffff.0
Width: 852
Flags: W
LayerCount: 2
Fore
SplineSet
829 336 m 1,0,-1
 829 337 l 1,1,-1
 836 314 l 1,2,3
 836 239 836 239 806 148 c 0,4,5
 773 45 773 45 724 5 c 1,6,7
 680 -40 680 -40 619 -40 c 0,8,9
 507 -40 507 -40 479 94 c 1,10,11
 405 -40 405 -40 281 -40 c 0,12,13
 175 -40 175 -40 128 61 c 1,14,-1
 122 15 l 2,15,16
 112 -50 112 -50 99 -146 c 0,17,18
 70 -412 70 -412 -10 -412 c 0,19,20
 -53 -412 -53 -412 -81 -377 c 1,21,22
 -99 -343 -99 -343 -99 -299 c 0,23,24
 -99 -256 -99 -256 -47 -31 c 0,25,26
 9 213 9 213 114 867 c 1,27,-1
 285 867 l 1,28,-1
 197 268 l 2,29,30
 193 219 193 219 220 182 c 1,31,32
 248 155 248 155 289 155 c 0,33,34
 405 155 405 155 436 347 c 2,35,-1
 522 867 l 1,36,-1
 697 867 l 1,37,38
 661 675 661 675 603 303 c 0,39,40
 601 289 601 289 601 268 c 2,41,-1
 595 218 l 1,42,43
 596 151 596 151 645 151 c 0,44,45
 692 151 692 151 724 223 c 1,46,47
 744 301 744 301 745 303 c 0,48,49
 764 355 764 355 797 363 c 1,50,51
 824 352 824 352 829 336 c 1,0,-1
EndSplineSet
EndChar

StartChar: Agrave
Encoding: 192 192 147
Width: 709
Flags: W
LayerCount: 2
Fore
SplineSet
275 1120 m 1,0,-1
 27 1426 l 1,1,-1
 241 1426 l 1,2,-1
 411 1120 l 1,3,-1
 275 1120 l 1,0,-1
550 -43 m 1,4,-1
 474 92 l 1,5,-1
 448 147 l 1,6,7
 288 8 288 8 132 -14 c 1,8,9
 71 11 71 11 32 64.5 c 128,-1,10
 -7 118 -7 118 -7 180 c 0,11,12
 -7 376 -7 376 330 571 c 1,13,14
 294 717 294 717 292 723 c 0,15,16
 262 813 262 813 213 857 c 1,17,-1
 143 797 l 1,18,-1
 97 865 l 1,19,20
 156 926 156 926 258 1016 c 1,21,-1
 295 1028 l 1,22,23
 374 1028 374 1028 444 908 c 0,24,25
 479 848 479 848 538 572 c 0,26,27
 601 285 601 285 712 98 c 1,28,-1
 550 -43 l 1,4,-1
353 473 m 1,29,-1
 377 454 l 1,30,-1
 365 454 l 1,31,-1
 353 456 l 1,32,33
 278 456 278 456 224 404.5 c 128,-1,34
 170 353 170 353 170 280 c 0,35,36
 170 221 170 221 256 131 c 1,37,-1
 269 131 l 2,38,39
 364 129 364 129 398 280 c 1,40,-1
 353 473 l 1,29,-1
EndSplineSet
EndChar

StartChar: Aacute
Encoding: 193 193 148
Width: 709
Flags: W
LayerCount: 2
Fore
SplineSet
231 1018 m 1,0,-1
 95 1018 l 1,1,-1
 266 1323 l 1,2,-1
 479 1323 l 1,3,-1
 231 1018 l 1,0,-1
550 -43 m 1,4,-1
 474 91 l 1,5,-1
 448 146 l 1,6,7
 288 8 288 8 132 -14 c 1,8,9
 71 11 71 11 32 64.5 c 128,-1,10
 -7 118 -7 118 -7 179 c 0,11,12
 -7 375 -7 375 330 570 c 1,13,14
 294 715 294 715 292 721 c 0,15,16
 262 810 262 810 213 854 c 1,17,-1
 143 795 l 1,18,-1
 97 862 l 1,19,20
 156 923 156 923 258 1013 c 1,21,-1
 295 1025 l 1,22,23
 374 1025 374 1025 444 906 c 0,24,25
 479 846 479 846 538 571 c 0,26,27
 601 284 601 284 712 97 c 1,28,-1
 550 -43 l 1,4,-1
353 472 m 1,29,-1
 377 453 l 1,30,-1
 365 453 l 1,31,-1
 353 455 l 1,32,33
 278 454 278 454 224 403 c 128,-1,34
 170 352 170 352 170 280 c 0,35,36
 170 220 170 220 256 130 c 1,37,-1
 269 130 l 2,38,39
 364 128 364 128 398 279 c 1,40,-1
 353 472 l 1,29,-1
EndSplineSet
EndChar

StartChar: Acircumflex
Encoding: 194 194 149
Width: 709
Flags: W
LayerCount: 2
Fore
SplineSet
357 1018 m 1,0,-1
 238 1162 l 1,1,-1
 119 1018 l 1,2,-1
 -20 1018 l 1,3,-1
 153 1323 l 1,4,-1
 322 1323 l 1,5,-1
 495 1018 l 1,6,-1
 357 1018 l 1,0,-1
550 -43 m 1,7,-1
 474 91 l 1,8,-1
 448 146 l 1,9,10
 288 8 288 8 132 -14 c 1,11,12
 71 11 71 11 32 64.5 c 128,-1,13
 -7 118 -7 118 -7 179 c 0,14,15
 -7 375 -7 375 330 570 c 1,16,17
 294 715 294 715 292 721 c 0,18,19
 262 810 262 810 213 854 c 1,20,-1
 143 795 l 1,21,-1
 97 862 l 1,22,23
 156 923 156 923 258 1013 c 1,24,-1
 295 1025 l 1,25,26
 374 1025 374 1025 444 906 c 0,27,28
 479 846 479 846 538 571 c 0,29,30
 601 284 601 284 712 97 c 1,31,-1
 550 -43 l 1,7,-1
353 472 m 1,32,-1
 377 453 l 1,33,-1
 365 453 l 1,34,-1
 353 455 l 1,35,36
 278 454 278 454 224 403 c 128,-1,37
 170 352 170 352 170 280 c 0,38,39
 170 220 170 220 256 130 c 1,40,-1
 269 130 l 2,41,42
 364 128 364 128 398 279 c 1,43,-1
 353 472 l 1,32,-1
EndSplineSet
EndChar

StartChar: Atilde
Encoding: 195 195 150
Width: 709
Flags: W
LayerCount: 2
Fore
SplineSet
416 1116 m 0,0,1
 370 1054 370 1054 276 1061 c 1,2,-1
 248 1070 l 1,3,-1
 176 1097 l 1,4,-1
 168 1099 l 1,5,-1
 153 1100 l 2,6,7
 130 1099 130 1099 110 1037 c 1,8,-1
 -2 1037 l 1,9,10
 46 1269 46 1269 177 1269 c 0,11,12
 193 1267 193 1267 222 1261 c 2,13,-1
 307 1233 l 1,14,-1
 328 1230 l 2,15,16
 336 1230 336 1230 344 1236 c 1,17,18
 352 1251 352 1251 360 1295 c 1,19,-1
 472 1295 l 1,20,21
 454 1168 454 1168 416 1116 c 0,0,1
550 -43 m 1,22,-1
 474 91 l 1,23,-1
 448 146 l 1,24,25
 288 7 288 7 132 -14 c 1,26,27
 71 11 71 11 32 64 c 128,-1,28
 -7 117 -7 117 -7 179 c 0,29,30
 -7 375 -7 375 330 569 c 1,31,32
 294 715 294 715 292 720 c 0,33,34
 262 810 262 810 213 854 c 1,35,-1
 143 794 l 1,36,-1
 97 862 l 1,37,38
 156 922 156 922 258 1012 c 1,39,-1
 295 1024 l 1,40,41
 374 1024 374 1024 444 905 c 0,42,43
 479 845 479 845 538 570 c 0,44,45
 601 284 601 284 712 97 c 1,46,-1
 550 -43 l 1,22,-1
353 472 m 1,47,-1
 377 453 l 1,48,-1
 365 453 l 1,49,-1
 353 455 l 1,50,51
 278 454 278 454 224 403 c 128,-1,52
 170 352 170 352 170 279 c 0,53,54
 170 220 170 220 256 130 c 1,55,-1
 269 130 l 2,56,57
 364 128 364 128 398 279 c 1,58,-1
 353 472 l 1,47,-1
EndSplineSet
EndChar

StartChar: Adieresis
Encoding: 196 196 151
Width: 709
Flags: W
LayerCount: 2
Fore
SplineSet
266 1040 m 1,0,-1
 266 1272 l 1,1,-1
 441 1272 l 1,2,-1
 441 1040 l 1,3,-1
 266 1040 l 1,0,-1
35 1040 m 1,4,-1
 35 1272 l 1,5,-1
 210 1272 l 1,6,-1
 210 1040 l 1,7,-1
 35 1040 l 1,4,-1
550 -43 m 1,8,-1
 474 91 l 1,9,-1
 448 146 l 1,10,11
 288 7 288 7 132 -14 c 1,12,13
 -6 43 -6 43 -6 179 c 0,14,15
 -6 375 -6 375 330 569 c 1,16,17
 294 714 294 714 292 720 c 0,18,19
 262 809 262 809 213 853 c 1,20,-1
 142 793 l 1,21,-1
 98 861 l 1,22,23
 156 922 156 922 258 1012 c 1,24,-1
 295 1024 l 1,25,26
 374 1024 374 1024 444 904 c 0,27,28
 479 845 479 845 538 570 c 0,29,30
 601 284 601 284 712 97 c 1,31,-1
 550 -43 l 1,8,-1
353 471 m 1,32,-1
 377 452 l 1,33,-1
 365 452 l 1,34,-1
 353 454 l 1,35,36
 278 454 278 454 224.5 403 c 128,-1,37
 171 352 171 352 171 279 c 0,38,39
 171 219 171 219 256 130 c 1,40,-1
 269 130 l 2,41,42
 364 128 364 128 398 279 c 1,43,-1
 353 471 l 1,32,-1
EndSplineSet
EndChar

StartChar: Aring
Encoding: 197 197 152
Width: 709
Flags: W
LayerCount: 2
Fore
SplineSet
314 1024 m 0,1,2
 231 1024 231 1024 181 1096 c 0,3,4
 138 1160 138 1160 138 1244 c 0,5,6
 138 1325 138 1325 183 1388 c 0,7,8
 233 1458 233 1458 314 1458 c 0,9,10
 394 1458 394 1458 443 1386 c 0,11,12
 486 1323 486 1323 486 1242 c 0,13,14
 486 1156 486 1156 435.5 1090 c 128,-1,0
 385 1024 385 1024 314 1024 c 0,1,2
550 -43 m 1,15,-1
 474 92 l 1,16,-1
 448 147 l 1,17,18
 288 8 288 8 132 -14 c 1,19,20
 -6 43 -6 43 -6 180 c 0,21,22
 -6 377 -6 377 329 572 c 1,23,24
 292 719 292 719 291 723 c 0,25,26
 262 814 262 814 213 857 c 1,27,-1
 143 797 l 1,28,-1
 97 865 l 1,29,30
 156 926 156 926 258 1016 c 1,31,-1
 295 1028 l 1,32,33
 374 1028 374 1028 444 909 c 0,34,35
 479 849 479 849 538 573 c 0,36,37
 601 285 601 285 712 98 c 1,38,-1
 550 -43 l 1,15,-1
314 1309 m 0,39,40
 266 1309 266 1309 266 1240 c 0,41,42
 266 1215 266 1215 282 1191 c 0,43,44
 296 1177 296 1177 315 1174 c 0,45,46
 358 1176 358 1176 358 1240 c 0,47,48
 358 1257 358 1257 355 1270 c 0,49,50
 346 1309 346 1309 314 1309 c 0,39,40
353 474 m 1,51,-1
 377 455 l 1,52,-1
 365 455 l 1,53,-1
 353 457 l 1,54,55
 278 456 278 456 224.5 405 c 128,-1,56
 171 354 171 354 171 281 c 0,57,58
 171 260 171 260 192 211 c 1,59,60
 213 177 213 177 256 131 c 1,61,-1
 269 131 l 2,62,63
 364 129 364 129 398 280 c 1,64,-1
 353 474 l 1,51,-1
EndSplineSet
EndChar

StartChar: Ccedilla
Encoding: 199 199 153
Width: 754
Flags: W
LayerCount: 2
Fore
SplineSet
616 28 m 0,0,1
 512 -42 512 -42 307 -42 c 2,2,-1
 280 -42 l 1,3,4
 26 102 26 102 26 452 c 0,5,6
 26 613 26 613 94 742 c 0,7,8
 170 886 170 886 312 948 c 2,9,-1
 464 1015 l 1,10,11
 609 990 609 990 726 854 c 1,12,-1
 591 720 l 1,13,14
 474 853 474 853 369 887 c 1,15,16
 286 858 286 858 247 721 c 0,17,18
 220 624 220 624 220 507 c 0,19,20
 220 367 220 367 280 242 c 0,21,22
 349 97 349 97 469 58 c 1,23,24
 522 88 522 88 552 204 c 0,25,26
 561 240 561 240 561 326 c 1,27,-1
 736 276 l 1,28,29
 736 108 736 108 616 28 c 0,0,1
575 -359 m 0,30,31
 515 -417 515 -417 427 -410 c 2,32,-1
 357 -404 l 1,33,-1
 246 -375 l 1,34,-1
 265 -277 l 1,35,-1
 364 -302 l 1,36,-1
 416 -309 l 1,37,38
 456 -308 456 -308 469 -290 c 0,39,40
 479 -275 479 -275 479 -235 c 0,41,42
 479 -171 479 -171 429 -170 c 1,43,-1
 383 -176 l 1,44,-1
 346 -186 l 1,45,-1
 346 42 l 1,46,-1
 437 42 l 1,47,-1
 437 -73 l 1,48,-1
 454 -69 l 1,49,50
 552 -64 552 -64 591 -110 c 0,51,52
 625 -149 625 -149 625 -216 c 0,53,54
 625 -311 625 -311 575 -359 c 0,30,31
EndSplineSet
EndChar

StartChar: Egrave
Encoding: 200 200 154
Width: 768
Flags: W
LayerCount: 2
Fore
SplineSet
515 1018 m 1,0,-1
 265 1323 l 1,1,-1
 480 1323 l 1,2,-1
 651 1018 l 1,3,-1
 515 1018 l 1,0,-1
676 91 m 0,4,5
 632 38 632 38 537 9 c 1,6,7
 458 -10 458 -10 378 -30 c 1,8,9
 202 -1 202 -1 108 154 c 0,10,11
 27 287 27 287 27 471 c 0,12,13
 27 691 27 691 132 822 c 0,14,15
 229 943 229 943 450 1025 c 1,16,17
 592 1025 592 1025 736 849 c 1,18,-1
 598 704 l 1,19,20
 530 796 530 796 456 847 c 0,21,22
 395 890 395 890 368 894 c 1,23,24
 323 893 323 893 283 814 c 0,25,26
 256 760 256 760 241 696 c 0,27,28
 229 642 229 642 227 582 c 1,29,-1
 510 575 l 2,30,31
 545 575 545 575 567 583 c 0,32,33
 599 594 599 594 649 632 c 1,34,-1
 678 553 l 1,35,36
 568 463 568 463 476 446 c 0,37,38
 444 440 444 440 232 438 c 1,39,40
 238 316 238 316 329 204 c 0,41,42
 414 98 414 98 496 98 c 0,43,44
 572 98 572 98 614 351 c 1,45,-1
 751 288 l 1,46,47
 724 149 724 149 676 91 c 0,4,5
EndSplineSet
EndChar

StartChar: Eacute
Encoding: 201 201 155
Width: 768
Flags: W
LayerCount: 2
Fore
SplineSet
502 1018 m 1,0,-1
 365 1018 l 1,1,-1
 536 1323 l 1,2,-1
 750 1323 l 1,3,-1
 502 1018 l 1,0,-1
676 91 m 0,4,5
 632 38 632 38 537 9 c 1,6,7
 458 -10 458 -10 378 -30 c 1,8,9
 202 -1 202 -1 108 154 c 0,10,11
 27 287 27 287 27 471 c 0,12,13
 27 691 27 691 132 822 c 0,14,15
 229 943 229 943 450 1025 c 1,16,17
 592 1025 592 1025 736 849 c 1,18,-1
 598 704 l 1,19,20
 530 796 530 796 456 847 c 0,21,22
 395 890 395 890 368 894 c 1,23,24
 323 893 323 893 283 814 c 0,25,26
 256 760 256 760 241 696 c 0,27,28
 229 642 229 642 227 582 c 1,29,-1
 510 575 l 2,30,31
 545 575 545 575 567 583 c 0,32,33
 599 594 599 594 649 632 c 1,34,-1
 678 553 l 1,35,36
 568 463 568 463 476 446 c 0,37,38
 444 440 444 440 232 438 c 1,39,40
 238 316 238 316 329 204 c 0,41,42
 414 98 414 98 496 98 c 0,43,44
 572 98 572 98 614 351 c 1,45,-1
 751 288 l 1,46,47
 724 149 724 149 676 91 c 0,4,5
EndSplineSet
EndChar

StartChar: Ecircumflex
Encoding: 202 202 156
Width: 768
Flags: W
LayerCount: 2
Fore
SplineSet
627 1018 m 1,0,-1
 508 1162 l 1,1,-1
 389 1018 l 1,2,-1
 251 1018 l 1,3,-1
 424 1323 l 1,4,-1
 593 1323 l 1,5,-1
 765 1018 l 1,6,-1
 627 1018 l 1,0,-1
676 91 m 0,7,8
 632 38 632 38 537 9 c 1,9,10
 458 -10 458 -10 378 -30 c 1,11,12
 202 -1 202 -1 108 154 c 0,13,14
 27 287 27 287 27 471 c 0,15,16
 27 691 27 691 132 822 c 0,17,18
 229 943 229 943 450 1025 c 1,19,20
 592 1025 592 1025 736 849 c 1,21,-1
 598 704 l 1,22,23
 530 796 530 796 456 847 c 0,24,25
 395 890 395 890 368 894 c 1,26,27
 323 893 323 893 283 814 c 0,28,29
 256 760 256 760 241 696 c 0,30,31
 229 642 229 642 227 582 c 1,32,-1
 510 575 l 2,33,34
 545 575 545 575 567 583 c 0,35,36
 599 594 599 594 649 632 c 1,37,-1
 678 553 l 1,38,39
 568 463 568 463 476 446 c 0,40,41
 444 440 444 440 232 438 c 1,42,43
 238 316 238 316 329 204 c 0,44,45
 414 98 414 98 496 98 c 0,46,47
 572 98 572 98 614 351 c 1,48,-1
 751 288 l 1,49,50
 724 149 724 149 676 91 c 0,7,8
EndSplineSet
EndChar

StartChar: Edieresis
Encoding: 203 203 157
Width: 768
Flags: W
LayerCount: 2
Fore
SplineSet
536 1040 m 1,0,-1
 536 1272 l 1,1,-1
 711 1272 l 1,2,-1
 711 1040 l 1,3,-1
 536 1040 l 1,0,-1
305 1040 m 1,4,-1
 305 1272 l 1,5,-1
 480 1272 l 1,6,-1
 480 1040 l 1,7,-1
 305 1040 l 1,4,-1
676 91 m 0,8,9
 632 38 632 38 537 9 c 1,10,11
 458 -10 458 -10 378 -30 c 1,12,13
 202 -1 202 -1 109 154 c 0,14,15
 28 287 28 287 28 471 c 0,16,17
 28 690 28 690 133 821 c 0,18,19
 230 942 230 942 450 1024 c 1,20,21
 592 1024 592 1024 736 848 c 1,22,-1
 598 703 l 1,23,24
 530 795 530 795 456 846 c 0,25,26
 395 889 395 889 368 893 c 1,27,28
 323 891 323 891 283 813 c 0,29,30
 256 759 256 759 241 695 c 0,31,32
 230 644 230 644 228 581 c 1,33,-1
 510 574 l 2,34,35
 545 574 545 574 567 582 c 0,36,37
 599 593 599 593 649 631 c 1,38,-1
 678 552 l 1,39,40
 572 463 572 463 476 446 c 0,41,42
 441 439 441 439 233 437 c 1,43,44
 239 313 239 313 329 203 c 0,45,46
 414 98 414 98 496 98 c 0,47,48
 572 98 572 98 614 350 c 1,49,-1
 751 287 l 1,50,51
 724 149 724 149 676 91 c 0,8,9
EndSplineSet
EndChar

StartChar: Igrave
Encoding: 204 204 158
Width: 377
Flags: W
LayerCount: 2
Fore
SplineSet
211 1090 m 1,0,-1
 -34 1395 l 1,1,-1
 179 1395 l 1,2,-1
 347 1090 l 1,3,-1
 211 1090 l 1,0,-1
84 -23 m 1,4,-1
 87 710 l 2,5,6
 87 899 87 899 75 908 c 0,7,8
 43 928 43 928 36 980 c 1,9,-1
 287 1033 l 1,10,-1
 287 33 l 1,11,-1
 84 -23 l 1,4,-1
EndSplineSet
EndChar

StartChar: Iacute
Encoding: 205 205 159
Width: 377
Flags: W
LayerCount: 2
Fore
SplineSet
115 1120 m 1,0,-1
 -21 1120 l 1,1,-1
 149 1426 l 1,2,-1
 363 1426 l 1,3,-1
 115 1120 l 1,0,-1
84 -23 m 1,4,-1
 87 711 l 2,5,6
 87 900 87 900 75 909 c 0,7,8
 43 929 43 929 36 981 c 1,9,-1
 287 1034 l 1,10,-1
 287 33 l 1,11,-1
 84 -23 l 1,4,-1
EndSplineSet
EndChar

StartChar: Icircumflex
Encoding: 206 206 160
Width: 377
Flags: W
LayerCount: 2
Fore
SplineSet
263 1120 m 1,0,-1
 146 1264 l 1,1,-1
 25 1120 l 1,2,-1
 -114 1120 l 1,3,-1
 59 1426 l 1,4,-1
 228 1426 l 1,5,-1
 401 1120 l 1,6,-1
 263 1120 l 1,0,-1
84 -23 m 1,7,-1
 87 711 l 2,8,9
 87 900 87 900 75 909 c 0,10,11
 43 929 43 929 36 981 c 1,12,-1
 287 1034 l 1,13,-1
 287 33 l 1,14,-1
 84 -23 l 1,7,-1
EndSplineSet
EndChar

StartChar: Idieresis
Encoding: 207 207 161
Width: 377
Flags: W
LayerCount: 2
Fore
SplineSet
188 1091 m 1,0,-1
 188 1323 l 1,1,-1
 363 1323 l 1,2,-1
 363 1091 l 1,3,-1
 188 1091 l 1,0,-1
-45 1091 m 1,4,-1
 -45 1323 l 1,5,-1
 132 1323 l 1,6,-1
 132 1091 l 1,7,-1
 -45 1091 l 1,4,-1
84 -23 m 1,8,-1
 87 709 l 2,9,10
 87 897 87 897 75 907 c 0,11,12
 43 927 43 927 36 978 c 1,13,-1
 287 1031 l 1,14,-1
 287 33 l 1,15,-1
 84 -23 l 1,8,-1
EndSplineSet
EndChar

StartChar: Ntilde
Encoding: 209 209 162
Width: 877
Flags: W
LayerCount: 2
Fore
SplineSet
717 1100 m 0,0,1
 675 1054 675 1054 591 1061 c 1,2,-1
 562 1070 l 1,3,-1
 491 1097 l 1,4,-1
 484 1099 l 1,5,-1
 468 1100 l 2,6,7
 461 1100 461 1100 451 1090 c 0,8,9
 438 1079 438 1079 428 1037 c 1,10,-1
 314 1037 l 1,11,12
 359 1269 359 1269 493 1269 c 0,13,14
 510 1267 510 1267 538 1262 c 1,15,-1
 623 1233 l 1,16,-1
 643 1230 l 2,17,18
 651 1230 651 1230 658 1236 c 0,19,20
 667 1251 667 1251 677 1295 c 1,21,-1
 786 1295 l 1,22,23
 768 1154 768 1154 717 1100 c 0,0,1
757 102 m 1,24,-1
 794 107 l 1,25,-1
 803 23 l 1,26,-1
 597 -17 l 1,27,28
 564 17 564 17 557 40 c 128,-1,29
 550 63 550 63 554 114 c 2,30,-1
 556 140 l 1,31,-1
 594 641 l 1,32,33
 594 714 594 714 534 783.5 c 128,-1,34
 474 853 474 853 399 857 c 1,35,36
 352 820 352 820 318 728 c 0,37,38
 288 644 288 644 287 574 c 2,39,-1
 280 16 l 1,40,-1
 83 -20 l 1,41,-1
 89 710 l 1,42,-1
 81 759 l 2,43,44
 72 821 72 821 55 868 c 1,45,-1
 27 872 l 1,46,-1
 11 947 l 1,47,-1
 236 1022 l 1,48,-1
 272 893 l 1,49,-1
 279 857 l 1,50,51
 395 997 395 997 507 1025 c 1,52,53
 625 1005 625 1005 711 889 c 128,-1,54
 797 773 797 773 797 663 c 2,55,-1
 797 633 l 2,56,57
 797 609 797 609 793 592 c 2,58,-1
 752 143 l 2,59,60
 752 118 752 118 757 102 c 1,24,-1
EndSplineSet
EndChar

StartChar: Ograve
Encoding: 210 210 163
Width: 852
Flags: W
LayerCount: 2
Fore
SplineSet
549 1018 m 1,0,-1
 304 1323 l 1,1,-1
 517 1323 l 1,2,-1
 685 1018 l 1,3,-1
 549 1018 l 1,0,-1
739 195 m 0,4,5
 677 94 677 94 585 45 c 0,6,7
 537 19 537 19 383 -29 c 1,8,-1
 361 -29 l 2,9,10
 264 -29 264 -29 139 116 c 0,11,12
 26 247 26 247 26 468 c 0,13,14
 26 631 26 631 102 766 c 0,15,16
 185 911 185 911 332 976 c 2,17,-1
 445 1026 l 1,18,19
 632 1007 632 1007 735 850 c 0,20,21
 824 713 824 713 824 521 c 0,22,23
 824 334 824 334 739 195 c 0,4,5
542 744 m 0,24,25
 466 854 466 854 320 875 c 1,26,27
 222 781 222 781 222 547 c 0,28,29
 222 394 222 394 261 303 c 0,30,31
 309 191 309 191 430 127 c 0,32,33
 467 107 467 107 498 103 c 1,34,-1
 510 105 l 1,35,-1
 518 105 l 1,36,37
 624 188 624 188 624 426 c 0,38,39
 624 628 624 628 542 744 c 0,24,25
EndSplineSet
EndChar

StartChar: Oacute
Encoding: 211 211 164
Width: 852
Flags: W
LayerCount: 2
Fore
SplineSet
537 1018 m 1,0,-1
 401 1018 l 1,1,-1
 571 1323 l 1,2,-1
 788 1323 l 1,3,-1
 537 1018 l 1,0,-1
739 195 m 0,4,5
 677 94 677 94 585 45 c 0,6,7
 537 19 537 19 383 -29 c 1,8,-1
 361 -29 l 2,9,10
 264 -29 264 -29 139 116 c 0,11,12
 26 247 26 247 26 468 c 0,13,14
 26 631 26 631 102 766 c 0,15,16
 185 911 185 911 332 976 c 2,17,-1
 445 1026 l 1,18,19
 632 1007 632 1007 735 850 c 0,20,21
 824 713 824 713 824 521 c 0,22,23
 824 334 824 334 739 195 c 0,4,5
542 744 m 0,24,25
 466 854 466 854 320 875 c 1,26,27
 222 781 222 781 222 547 c 0,28,29
 222 394 222 394 261 303 c 0,30,31
 309 191 309 191 430 127 c 0,32,33
 467 107 467 107 498 103 c 1,34,-1
 510 105 l 1,35,-1
 518 105 l 1,36,37
 624 188 624 188 624 426 c 0,38,39
 624 628 624 628 542 744 c 0,24,25
EndSplineSet
EndChar

StartChar: Ocircumflex
Encoding: 212 212 165
Width: 852
Flags: W
LayerCount: 2
Fore
SplineSet
525 1049 m 1,0,-1
 406 1193 l 1,1,-1
 287 1049 l 1,2,-1
 149 1049 l 1,3,-1
 321 1354 l 1,4,-1
 490 1354 l 1,5,-1
 661 1049 l 1,6,-1
 525 1049 l 1,0,-1
739 195 m 0,7,8
 677 94 677 94 585 45 c 0,9,10
 537 19 537 19 383 -29 c 1,11,-1
 361 -29 l 2,12,13
 264 -29 264 -29 139 116 c 0,14,15
 26 248 26 248 26 468 c 0,16,17
 26 632 26 632 102 767 c 0,18,19
 185 911 185 911 332 976 c 2,20,-1
 445 1026 l 1,21,22
 632 1008 632 1008 735 850 c 0,23,24
 824 713 824 713 824 521 c 0,25,26
 824 335 824 335 739 195 c 0,7,8
542 745 m 0,27,28
 466 854 466 854 320 876 c 1,29,30
 222 781 222 781 222 547 c 0,31,32
 222 395 222 395 261 303 c 0,33,34
 309 191 309 191 430 127 c 0,35,36
 467 108 467 108 498 103 c 1,37,-1
 510 105 l 1,38,-1
 518 105 l 1,39,40
 624 188 624 188 624 427 c 0,41,42
 624 629 624 629 542 745 c 0,27,28
EndSplineSet
EndChar

StartChar: Otilde
Encoding: 213 213 166
Width: 852
Flags: W
LayerCount: 2
Fore
SplineSet
583 1137 m 0,0,1
 536 1074 536 1074 470 1080 c 2,2,-1
 444 1082 l 1,3,-1
 414 1091 l 1,4,-1
 343 1117 l 1,5,-1
 335 1119 l 1,6,-1
 321 1121 l 2,7,8
 314 1120 314 1120 304 1110 c 0,9,10
 291 1099 291 1099 279 1058 c 1,11,-1
 166 1058 l 1,12,13
 188 1161 188 1161 215 1209 c 0,14,15
 261 1289 261 1289 345 1289 c 0,16,17
 361 1287 361 1287 390 1282 c 1,18,-1
 476 1253 l 1,19,-1
 496 1250 l 2,20,21
 504 1250 504 1250 512 1257 c 0,22,23
 520 1270 520 1270 528 1315 c 1,24,-1
 640 1315 l 1,25,26
 622 1189 622 1189 583 1137 c 0,0,1
739 195 m 0,27,28
 677 94 677 94 585 45 c 0,29,30
 537 19 537 19 383 -29 c 1,31,-1
 361 -29 l 2,32,33
 264 -29 264 -29 139 116 c 0,34,35
 26 247 26 247 26 468 c 0,36,37
 26 631 26 631 102 766 c 0,38,39
 185 910 185 910 332 975 c 2,40,-1
 445 1025 l 1,41,42
 632 1007 632 1007 735 849 c 0,43,44
 824 712 824 712 824 521 c 0,45,46
 824 334 824 334 739 195 c 0,27,28
542 744 m 0,47,48
 466 853 466 853 320 875 c 1,49,50
 222 780 222 780 222 547 c 0,51,52
 222 394 222 394 261 303 c 0,53,54
 309 191 309 191 430 127 c 0,55,56
 467 107 467 107 498 103 c 1,57,-1
 510 105 l 1,58,-1
 518 105 l 1,59,60
 624 188 624 188 624 426 c 0,61,62
 624 628 624 628 542 744 c 0,47,48
EndSplineSet
EndChar

StartChar: Odieresis
Encoding: 214 214 167
Width: 852
Flags: W
LayerCount: 2
Fore
SplineSet
448 1061 m 1,0,-1
 448 1293 l 1,1,-1
 625 1293 l 1,2,-1
 625 1061 l 1,3,-1
 448 1061 l 1,0,-1
217 1061 m 1,4,-1
 217 1293 l 1,5,-1
 392 1293 l 1,6,-1
 392 1061 l 1,7,-1
 217 1061 l 1,4,-1
739 195 m 0,8,9
 677 94 677 94 585 45 c 0,10,11
 537 19 537 19 383 -29 c 1,12,-1
 361 -29 l 2,13,14
 264 -29 264 -29 139 116 c 0,15,16
 26 247 26 247 26 467 c 0,17,18
 26 631 26 631 102 765 c 0,19,20
 185 910 185 910 332 975 c 2,21,-1
 445 1025 l 1,22,23
 632 1006 632 1006 735 849 c 0,24,25
 824 712 824 712 824 520 c 0,26,27
 824 334 824 334 739 195 c 0,8,9
542 744 m 0,28,29
 466 853 466 853 320 874 c 1,30,31
 222 780 222 780 222 546 c 0,32,33
 222 394 222 394 261 303 c 0,34,35
 309 191 309 191 430 126 c 0,36,37
 467 107 467 107 498 103 c 1,38,-1
 510 105 l 1,39,-1
 518 105 l 1,40,41
 624 188 624 188 624 426 c 0,42,43
 624 628 624 628 542 744 c 0,28,29
EndSplineSet
EndChar

StartChar: Ugrave
Encoding: 217 217 168
Width: 877
Flags: W
LayerCount: 2
Fore
SplineSet
539 1018 m 1,0,-1
 291 1323 l 1,1,-1
 505 1323 l 1,2,-1
 675 1018 l 1,3,-1
 539 1018 l 1,0,-1
87 884 m 1,4,5
 86 886 86 886 85 888 c 2,6,-1
 51 881 l 1,7,-1
 44 965 l 1,8,-1
 298 1018 l 1,9,-1
 266 340 l 2,10,11
 262 277 262 277 328.5 205.5 c 128,-1,12
 395 134 395 134 459 130 c 1,13,14
 506 168 506 168 540 264 c 0,15,16
 570 350 570 350 571 419 c 2,17,-1
 578 984 l 1,18,-1
 775 1016 l 1,19,-1
 767 336 l 2,20,21
 767 248 767 248 784 190 c 0,22,23
 788 170 788 170 801 149 c 1,24,-1
 805 149 l 1,25,-1
 851 170 l 1,26,-1
 861 88 l 1,27,-1
 688 -15 l 1,28,29
 622 50 622 50 591 135 c 1,30,31
 479 18 479 18 349 -30 c 1,32,33
 223 -16 223 -16 142 97 c 0,34,35
 66 202 66 202 69 328 c 0,36,37
 72 364 72 364 77 437 c 0,38,39
 79 474 79 474 79 529 c 0,40,41
 79 574 79 574 85 663.5 c 128,-1,42
 91 753 91 753 91 797 c 0,43,44
 91 864 91 864 87 885 c 1,45,-1
 87 884 l 1,4,5
EndSplineSet
EndChar

StartChar: Uacute
Encoding: 218 218 169
Width: 877
Flags: W
LayerCount: 2
Fore
SplineSet
526 1018 m 1,0,-1
 390 1018 l 1,1,-1
 561 1323 l 1,2,-1
 776 1323 l 1,3,-1
 526 1018 l 1,0,-1
87 884 m 1,4,5
 86 886 86 886 85 888 c 2,6,-1
 51 881 l 1,7,-1
 44 965 l 1,8,-1
 298 1018 l 1,9,-1
 266 340 l 2,10,11
 262 277 262 277 328.5 205.5 c 128,-1,12
 395 134 395 134 459 130 c 1,13,14
 506 168 506 168 540 264 c 0,15,16
 570 350 570 350 571 419 c 2,17,-1
 578 984 l 1,18,-1
 775 1016 l 1,19,-1
 767 336 l 2,20,21
 767 248 767 248 784 190 c 0,22,23
 788 170 788 170 801 149 c 1,24,-1
 805 149 l 1,25,-1
 851 170 l 1,26,-1
 861 88 l 1,27,-1
 688 -15 l 1,28,29
 622 50 622 50 591 135 c 1,30,31
 479 18 479 18 349 -30 c 1,32,33
 223 -16 223 -16 142 97 c 0,34,35
 66 202 66 202 69 328 c 0,36,37
 72 364 72 364 77 437 c 0,38,39
 79 474 79 474 79 529 c 0,40,41
 79 574 79 574 85 663.5 c 128,-1,42
 91 753 91 753 91 797 c 0,43,44
 91 864 91 864 87 885 c 1,45,-1
 87 884 l 1,4,5
EndSplineSet
EndChar

StartChar: Ucircumflex
Encoding: 219 219 170
Width: 877
Flags: W
LayerCount: 2
Fore
SplineSet
568 1018 m 1,0,-1
 449 1162 l 1,1,-1
 330 1018 l 1,2,-1
 191 1018 l 1,3,-1
 364 1323 l 1,4,-1
 533 1323 l 1,5,-1
 704 1018 l 1,6,-1
 568 1018 l 1,0,-1
87 884 m 1,7,8
 86 886 86 886 85 888 c 2,9,-1
 51 881 l 1,10,-1
 44 965 l 1,11,-1
 298 1018 l 1,12,-1
 266 340 l 2,13,14
 262 277 262 277 328.5 205.5 c 128,-1,15
 395 134 395 134 459 130 c 1,16,17
 506 168 506 168 540 264 c 0,18,19
 570 350 570 350 571 419 c 2,20,-1
 578 984 l 1,21,-1
 775 1016 l 1,22,-1
 767 336 l 2,23,24
 767 248 767 248 784 190 c 0,25,26
 788 170 788 170 801 149 c 1,27,-1
 805 149 l 1,28,-1
 851 170 l 1,29,-1
 861 88 l 1,30,-1
 688 -15 l 1,31,32
 622 50 622 50 591 135 c 1,33,34
 479 18 479 18 349 -30 c 1,35,36
 223 -16 223 -16 142 97 c 0,37,38
 66 202 66 202 69 328 c 0,39,40
 72 364 72 364 77 437 c 0,41,42
 79 474 79 474 79 529 c 0,43,44
 79 574 79 574 85 663.5 c 128,-1,45
 91 753 91 753 91 797 c 0,46,47
 91 864 91 864 87 885 c 1,48,-1
 87 884 l 1,7,8
EndSplineSet
EndChar

StartChar: Udieresis
Encoding: 220 220 171
Width: 877
Flags: W
LayerCount: 2
Fore
SplineSet
452 1071 m 1,0,-1
 452 1303 l 1,1,-1
 629 1303 l 1,2,-1
 629 1071 l 1,3,-1
 452 1071 l 1,0,-1
221 1071 m 1,4,-1
 221 1303 l 1,5,-1
 398 1303 l 1,6,-1
 398 1071 l 1,7,-1
 221 1071 l 1,4,-1
688 -15 m 1,8,9
 622 50 622 50 591 135 c 1,10,11
 479 18 479 18 349 -30 c 1,12,13
 222 -16 222 -16 142 97 c 0,14,15
 69 200 69 200 69 329 c 1,16,17
 80 441 80 441 80 529 c 0,18,19
 80 574 80 574 86 663 c 128,-1,20
 92 752 92 752 92 797 c 0,21,22
 92 864 92 864 87 883 c 0,23,24
 87 885 87 885 85 887 c 2,25,-1
 51 881 l 1,26,-1
 46 965 l 1,27,-1
 297 1017 l 1,28,-1
 267 340 l 2,29,30
 263 277 263 277 329 205.5 c 128,-1,31
 395 134 395 134 459 130 c 1,32,33
 506 168 506 168 540 264 c 0,34,35
 570 350 570 350 571 418 c 2,36,-1
 577 983 l 1,37,-1
 775 1015 l 1,38,-1
 767 335 l 2,39,40
 767 248 767 248 784 190 c 0,41,42
 788 170 788 170 801 148 c 1,43,-1
 805 149 l 1,44,-1
 851 170 l 1,45,-1
 861 88 l 1,46,-1
 688 -15 l 1,8,9
EndSplineSet
EndChar

StartChar: agrave
Encoding: 224 224 172
Width: 709
Flags: W
LayerCount: 2
Fore
SplineSet
306 1079 m 1,0,-1
 57 1385 l 1,1,-1
 271 1385 l 1,2,-1
 442 1079 l 1,3,-1
 306 1079 l 1,0,-1
550 -43 m 1,4,-1
 474 92 l 1,5,-1
 448 147 l 1,6,7
 288 8 288 8 132 -14 c 1,8,9
 71 11 71 11 32 64.5 c 128,-1,10
 -7 118 -7 118 -7 180 c 0,11,12
 -7 376 -7 376 330 571 c 1,13,14
 294 716 294 716 292 722 c 0,15,16
 262 812 262 812 213 856 c 1,17,-1
 143 796 l 1,18,-1
 97 864 l 1,19,20
 156 925 156 925 258 1015 c 1,21,-1
 295 1027 l 1,22,23
 374 1027 374 1027 444 907 c 0,24,25
 479 847 479 847 538 572 c 0,26,27
 601 285 601 285 712 97 c 1,28,-1
 550 -43 l 1,4,-1
353 473 m 1,29,-1
 377 454 l 1,30,-1
 365 454 l 1,31,-1
 353 456 l 1,32,33
 278 455 278 455 224 403.5 c 128,-1,34
 170 352 170 352 170 280 c 0,35,36
 170 220 170 220 256 131 c 1,37,-1
 269 130 l 1,38,39
 364 128 364 128 398 280 c 1,40,-1
 353 473 l 1,29,-1
EndSplineSet
EndChar

StartChar: aacute
Encoding: 225 225 173
Width: 709
Flags: W
LayerCount: 2
Fore
SplineSet
231 1018 m 1,0,-1
 95 1018 l 1,1,-1
 266 1323 l 1,2,-1
 479 1323 l 1,3,-1
 231 1018 l 1,0,-1
550 -43 m 1,4,-1
 474 91 l 1,5,-1
 448 146 l 1,6,7
 288 8 288 8 132 -14 c 1,8,9
 71 11 71 11 32 64.5 c 128,-1,10
 -7 118 -7 118 -7 179 c 0,11,12
 -7 375 -7 375 330 570 c 1,13,14
 294 715 294 715 292 721 c 0,15,16
 262 810 262 810 213 854 c 1,17,-1
 143 795 l 1,18,-1
 97 862 l 1,19,20
 156 923 156 923 258 1013 c 1,21,-1
 295 1025 l 1,22,23
 374 1025 374 1025 444 906 c 0,24,25
 479 846 479 846 538 571 c 0,26,27
 601 284 601 284 712 97 c 1,28,-1
 550 -43 l 1,4,-1
353 472 m 1,29,-1
 377 453 l 1,30,-1
 365 453 l 1,31,-1
 353 455 l 1,32,33
 278 454 278 454 224 403 c 128,-1,34
 170 352 170 352 170 280 c 0,35,36
 170 220 170 220 256 130 c 1,37,-1
 269 130 l 2,38,39
 364 128 364 128 398 279 c 1,40,-1
 353 472 l 1,29,-1
EndSplineSet
EndChar

StartChar: acircumflex
Encoding: 226 226 174
Width: 709
Flags: W
LayerCount: 2
Fore
SplineSet
357 1018 m 1,0,-1
 238 1162 l 1,1,-1
 119 1018 l 1,2,-1
 -20 1018 l 1,3,-1
 153 1323 l 1,4,-1
 322 1323 l 1,5,-1
 495 1018 l 1,6,-1
 357 1018 l 1,0,-1
550 -43 m 1,7,-1
 474 91 l 1,8,-1
 448 146 l 1,9,10
 288 8 288 8 132 -14 c 1,11,12
 71 11 71 11 32 64.5 c 128,-1,13
 -7 118 -7 118 -7 179 c 0,14,15
 -7 375 -7 375 330 570 c 1,16,17
 294 715 294 715 292 721 c 0,18,19
 262 810 262 810 213 854 c 1,20,-1
 143 795 l 1,21,-1
 97 862 l 1,22,23
 156 923 156 923 258 1013 c 1,24,-1
 295 1025 l 1,25,26
 374 1025 374 1025 444 906 c 0,27,28
 479 846 479 846 538 571 c 0,29,30
 601 284 601 284 712 97 c 1,31,-1
 550 -43 l 1,7,-1
353 472 m 1,32,-1
 377 453 l 1,33,-1
 365 453 l 1,34,-1
 353 455 l 1,35,36
 278 454 278 454 224 403 c 128,-1,37
 170 352 170 352 170 280 c 0,38,39
 170 220 170 220 256 130 c 1,40,-1
 269 130 l 2,41,42
 364 128 364 128 398 279 c 1,43,-1
 353 472 l 1,32,-1
EndSplineSet
EndChar

StartChar: atilde
Encoding: 227 227 175
Width: 709
Flags: W
LayerCount: 2
Fore
SplineSet
416 1116 m 0,0,1
 370 1054 370 1054 276 1061 c 1,2,-1
 248 1070 l 1,3,-1
 176 1097 l 1,4,-1
 168 1099 l 1,5,-1
 153 1100 l 2,6,7
 130 1099 130 1099 110 1037 c 1,8,-1
 -2 1037 l 1,9,10
 46 1269 46 1269 177 1269 c 0,11,12
 193 1267 193 1267 222 1261 c 2,13,-1
 307 1233 l 1,14,-1
 328 1230 l 2,15,16
 336 1230 336 1230 344 1236 c 1,17,18
 352 1251 352 1251 360 1295 c 1,19,-1
 472 1295 l 1,20,21
 454 1168 454 1168 416 1116 c 0,0,1
550 -43 m 1,22,-1
 474 91 l 1,23,-1
 448 146 l 1,24,25
 288 7 288 7 132 -14 c 1,26,27
 71 11 71 11 32 64 c 128,-1,28
 -7 117 -7 117 -7 179 c 0,29,30
 -7 375 -7 375 330 569 c 1,31,32
 294 715 294 715 292 720 c 0,33,34
 262 810 262 810 213 854 c 1,35,-1
 143 794 l 1,36,-1
 97 862 l 1,37,38
 156 922 156 922 258 1012 c 1,39,-1
 295 1024 l 1,40,41
 374 1024 374 1024 444 905 c 0,42,43
 479 845 479 845 538 570 c 0,44,45
 601 284 601 284 712 97 c 1,46,-1
 550 -43 l 1,22,-1
353 472 m 1,47,-1
 377 453 l 1,48,-1
 365 453 l 1,49,-1
 353 455 l 1,50,51
 278 454 278 454 224 403 c 128,-1,52
 170 352 170 352 170 279 c 0,53,54
 170 220 170 220 256 130 c 1,55,-1
 269 130 l 2,56,57
 364 128 364 128 398 279 c 1,58,-1
 353 472 l 1,47,-1
EndSplineSet
EndChar

StartChar: adieresis
Encoding: 228 228 176
Width: 709
Flags: W
LayerCount: 2
Fore
SplineSet
266 1040 m 1,0,-1
 266 1272 l 1,1,-1
 441 1272 l 1,2,-1
 441 1040 l 1,3,-1
 266 1040 l 1,0,-1
35 1040 m 1,4,-1
 35 1272 l 1,5,-1
 210 1272 l 1,6,-1
 210 1040 l 1,7,-1
 35 1040 l 1,4,-1
550 -43 m 1,8,-1
 474 91 l 1,9,-1
 448 146 l 1,10,11
 288 7 288 7 132 -14 c 1,12,13
 -6 43 -6 43 -6 179 c 0,14,15
 -6 375 -6 375 330 569 c 1,16,17
 294 714 294 714 292 720 c 0,18,19
 262 809 262 809 213 853 c 1,20,-1
 142 793 l 1,21,-1
 98 861 l 1,22,23
 156 922 156 922 258 1012 c 1,24,-1
 295 1024 l 1,25,26
 374 1024 374 1024 444 904 c 0,27,28
 479 845 479 845 538 570 c 0,29,30
 601 284 601 284 712 97 c 1,31,-1
 550 -43 l 1,8,-1
353 471 m 1,32,-1
 377 452 l 1,33,-1
 365 452 l 1,34,-1
 353 454 l 1,35,36
 278 454 278 454 224.5 403 c 128,-1,37
 171 352 171 352 171 279 c 0,38,39
 171 219 171 219 256 130 c 1,40,-1
 269 130 l 2,41,42
 364 128 364 128 398 279 c 1,43,-1
 353 471 l 1,32,-1
EndSplineSet
EndChar

StartChar: aring
Encoding: 229 229 177
Width: 709
Flags: W
LayerCount: 2
Fore
SplineSet
314 1024 m 0,1,2
 231 1024 231 1024 181 1096 c 0,3,4
 138 1160 138 1160 138 1244 c 0,5,6
 138 1325 138 1325 183 1388 c 0,7,8
 233 1458 233 1458 314 1458 c 0,9,10
 394 1458 394 1458 443 1386 c 0,11,12
 486 1323 486 1323 486 1242 c 0,13,14
 486 1156 486 1156 435.5 1090 c 128,-1,0
 385 1024 385 1024 314 1024 c 0,1,2
550 -43 m 1,15,-1
 474 92 l 1,16,-1
 448 147 l 1,17,18
 288 8 288 8 132 -14 c 1,19,20
 -6 43 -6 43 -6 180 c 0,21,22
 -6 377 -6 377 329 572 c 1,23,24
 292 719 292 719 291 723 c 0,25,26
 262 814 262 814 213 857 c 1,27,-1
 143 797 l 1,28,-1
 97 865 l 1,29,30
 156 926 156 926 258 1016 c 1,31,-1
 295 1028 l 1,32,33
 374 1028 374 1028 444 909 c 0,34,35
 479 849 479 849 538 573 c 0,36,37
 601 285 601 285 712 98 c 1,38,-1
 550 -43 l 1,15,-1
314 1309 m 0,39,40
 266 1309 266 1309 266 1240 c 0,41,42
 266 1215 266 1215 282 1191 c 0,43,44
 296 1177 296 1177 315 1174 c 0,45,46
 358 1176 358 1176 358 1240 c 0,47,48
 358 1257 358 1257 355 1270 c 0,49,50
 346 1309 346 1309 314 1309 c 0,39,40
353 474 m 1,51,-1
 377 455 l 1,52,-1
 365 455 l 1,53,-1
 353 457 l 1,54,55
 278 456 278 456 224.5 405 c 128,-1,56
 171 354 171 354 171 281 c 0,57,58
 171 260 171 260 192 211 c 1,59,60
 213 177 213 177 256 131 c 1,61,-1
 269 131 l 2,62,63
 364 129 364 129 398 280 c 1,64,-1
 353 474 l 1,51,-1
EndSplineSet
EndChar

StartChar: ccedilla
Encoding: 231 231 178
Width: 754
Flags: W
LayerCount: 2
Fore
SplineSet
616 28 m 0,0,1
 512 -42 512 -42 307 -42 c 2,2,-1
 280 -42 l 1,3,4
 26 102 26 102 26 452 c 0,5,6
 26 613 26 613 94 742 c 0,7,8
 170 886 170 886 312 948 c 2,9,-1
 464 1015 l 1,10,11
 609 990 609 990 726 854 c 1,12,-1
 591 720 l 1,13,14
 474 853 474 853 369 887 c 1,15,16
 286 858 286 858 247 721 c 0,17,18
 220 624 220 624 220 507 c 0,19,20
 220 367 220 367 280 242 c 0,21,22
 349 97 349 97 469 58 c 1,23,24
 522 88 522 88 552 204 c 0,25,26
 561 240 561 240 561 326 c 1,27,-1
 736 276 l 1,28,29
 736 108 736 108 616 28 c 0,0,1
575 -359 m 0,30,31
 515 -417 515 -417 427 -410 c 2,32,-1
 357 -404 l 1,33,-1
 246 -375 l 1,34,-1
 265 -277 l 1,35,-1
 364 -302 l 1,36,-1
 416 -309 l 1,37,38
 456 -308 456 -308 469 -290 c 0,39,40
 479 -275 479 -275 479 -235 c 0,41,42
 479 -171 479 -171 429 -170 c 1,43,-1
 383 -176 l 1,44,-1
 346 -186 l 1,45,-1
 346 42 l 1,46,-1
 437 42 l 1,47,-1
 437 -73 l 1,48,-1
 454 -69 l 1,49,50
 552 -64 552 -64 591 -110 c 0,51,52
 625 -149 625 -149 625 -216 c 0,53,54
 625 -311 625 -311 575 -359 c 0,30,31
EndSplineSet
EndChar

StartChar: egrave
Encoding: 232 232 179
Width: 768
Flags: W
LayerCount: 2
Fore
SplineSet
515 1018 m 1,0,-1
 265 1323 l 1,1,-1
 480 1323 l 1,2,-1
 651 1018 l 1,3,-1
 515 1018 l 1,0,-1
676 91 m 0,4,5
 632 38 632 38 537 9 c 1,6,7
 458 -10 458 -10 378 -30 c 1,8,9
 202 -1 202 -1 108 154 c 0,10,11
 27 287 27 287 27 471 c 0,12,13
 27 691 27 691 132 822 c 0,14,15
 229 943 229 943 450 1025 c 1,16,17
 592 1025 592 1025 736 849 c 1,18,-1
 598 704 l 1,19,20
 530 796 530 796 456 847 c 0,21,22
 395 890 395 890 368 894 c 1,23,24
 323 893 323 893 283 814 c 0,25,26
 256 760 256 760 241 696 c 0,27,28
 229 642 229 642 227 582 c 1,29,-1
 510 575 l 2,30,31
 545 575 545 575 567 583 c 0,32,33
 599 594 599 594 649 632 c 1,34,-1
 678 553 l 1,35,36
 568 463 568 463 476 446 c 0,37,38
 444 440 444 440 232 438 c 1,39,40
 238 316 238 316 329 204 c 0,41,42
 414 98 414 98 496 98 c 0,43,44
 572 98 572 98 614 351 c 1,45,-1
 751 288 l 1,46,47
 724 149 724 149 676 91 c 0,4,5
EndSplineSet
EndChar

StartChar: eacute
Encoding: 233 233 180
Width: 768
Flags: W
LayerCount: 2
Fore
SplineSet
502 1018 m 1,0,-1
 365 1018 l 1,1,-1
 536 1323 l 1,2,-1
 750 1323 l 1,3,-1
 502 1018 l 1,0,-1
676 91 m 0,4,5
 632 38 632 38 537 9 c 1,6,7
 458 -10 458 -10 378 -30 c 1,8,9
 202 -1 202 -1 108 154 c 0,10,11
 27 287 27 287 27 471 c 0,12,13
 27 691 27 691 132 822 c 0,14,15
 229 943 229 943 450 1025 c 1,16,17
 592 1025 592 1025 736 849 c 1,18,-1
 598 704 l 1,19,20
 530 796 530 796 456 847 c 0,21,22
 395 890 395 890 368 894 c 1,23,24
 323 893 323 893 283 814 c 0,25,26
 256 760 256 760 241 696 c 0,27,28
 229 642 229 642 227 582 c 1,29,-1
 510 575 l 2,30,31
 545 575 545 575 567 583 c 0,32,33
 599 594 599 594 649 632 c 1,34,-1
 678 553 l 1,35,36
 568 463 568 463 476 446 c 0,37,38
 444 440 444 440 232 438 c 1,39,40
 238 316 238 316 329 204 c 0,41,42
 414 98 414 98 496 98 c 0,43,44
 572 98 572 98 614 351 c 1,45,-1
 751 288 l 1,46,47
 724 149 724 149 676 91 c 0,4,5
EndSplineSet
EndChar

StartChar: ecircumflex
Encoding: 234 234 181
Width: 768
Flags: W
LayerCount: 2
Fore
SplineSet
627 1018 m 1,0,-1
 508 1162 l 1,1,-1
 389 1018 l 1,2,-1
 251 1018 l 1,3,-1
 424 1323 l 1,4,-1
 593 1323 l 1,5,-1
 765 1018 l 1,6,-1
 627 1018 l 1,0,-1
676 91 m 0,7,8
 632 38 632 38 537 9 c 1,9,10
 458 -10 458 -10 378 -30 c 1,11,12
 202 -1 202 -1 108 154 c 0,13,14
 27 287 27 287 27 471 c 0,15,16
 27 691 27 691 132 822 c 0,17,18
 229 943 229 943 450 1025 c 1,19,20
 592 1025 592 1025 736 849 c 1,21,-1
 598 704 l 1,22,23
 530 796 530 796 456 847 c 0,24,25
 395 890 395 890 368 894 c 1,26,27
 323 893 323 893 283 814 c 0,28,29
 256 760 256 760 241 696 c 0,30,31
 229 642 229 642 227 582 c 1,32,-1
 510 575 l 2,33,34
 545 575 545 575 567 583 c 0,35,36
 599 594 599 594 649 632 c 1,37,-1
 678 553 l 1,38,39
 568 463 568 463 476 446 c 0,40,41
 444 440 444 440 232 438 c 1,42,43
 238 316 238 316 329 204 c 0,44,45
 414 98 414 98 496 98 c 0,46,47
 572 98 572 98 614 351 c 1,48,-1
 751 288 l 1,49,50
 724 149 724 149 676 91 c 0,7,8
EndSplineSet
EndChar

StartChar: edieresis
Encoding: 235 235 182
Width: 768
Flags: W
LayerCount: 2
Fore
SplineSet
536 1040 m 1,0,-1
 536 1272 l 1,1,-1
 711 1272 l 1,2,-1
 711 1040 l 1,3,-1
 536 1040 l 1,0,-1
305 1040 m 1,4,-1
 305 1272 l 1,5,-1
 480 1272 l 1,6,-1
 480 1040 l 1,7,-1
 305 1040 l 1,4,-1
676 91 m 0,8,9
 632 38 632 38 537 9 c 1,10,11
 458 -10 458 -10 378 -30 c 1,12,13
 202 -1 202 -1 109 154 c 0,14,15
 28 287 28 287 28 471 c 0,16,17
 28 690 28 690 133 821 c 0,18,19
 230 942 230 942 450 1024 c 1,20,21
 592 1024 592 1024 736 848 c 1,22,-1
 598 703 l 1,23,24
 530 795 530 795 456 846 c 0,25,26
 395 889 395 889 368 893 c 1,27,28
 323 891 323 891 283 813 c 0,29,30
 256 759 256 759 241 695 c 0,31,32
 230 644 230 644 228 581 c 1,33,-1
 510 574 l 2,34,35
 545 574 545 574 567 582 c 0,36,37
 599 593 599 593 649 631 c 1,38,-1
 678 552 l 1,39,40
 572 463 572 463 476 446 c 0,41,42
 441 439 441 439 233 437 c 1,43,44
 239 313 239 313 329 203 c 0,45,46
 414 98 414 98 496 98 c 0,47,48
 572 98 572 98 614 350 c 1,49,-1
 751 287 l 1,50,51
 724 149 724 149 676 91 c 0,8,9
EndSplineSet
EndChar

StartChar: igrave
Encoding: 236 236 183
Width: 377
Flags: W
LayerCount: 2
Fore
SplineSet
181 1059 m 1,0,-1
 -69 1364 l 1,1,-1
 148 1364 l 1,2,-1
 317 1059 l 1,3,-1
 181 1059 l 1,0,-1
84 -23 m 1,4,-1
 87 710 l 2,5,6
 87 898 87 898 75 908 c 0,7,8
 43 928 43 928 36 980 c 1,9,-1
 287 1032 l 1,10,-1
 287 33 l 1,11,-1
 84 -23 l 1,4,-1
EndSplineSet
EndChar

StartChar: iacute
Encoding: 237 237 184
Width: 377
Flags: W
LayerCount: 2
Fore
SplineSet
152 1059 m 1,0,-1
 18 1059 l 1,1,-1
 186 1364 l 1,2,-1
 402 1364 l 1,3,-1
 152 1059 l 1,0,-1
84 -23 m 1,4,-1
 87 710 l 2,5,6
 87 898 87 898 75 908 c 0,7,8
 43 928 43 928 36 980 c 1,9,-1
 287 1032 l 1,10,-1
 287 33 l 1,11,-1
 84 -23 l 1,4,-1
EndSplineSet
EndChar

StartChar: icircumflex
Encoding: 238 238 185
Width: 377
Flags: W
LayerCount: 2
Fore
SplineSet
302 1079 m 1,0,-1
 183 1223 l 1,1,-1
 63 1079 l 1,2,-1
 -75 1079 l 1,3,-1
 97 1385 l 1,4,-1
 267 1385 l 1,5,-1
 440 1079 l 1,6,-1
 302 1079 l 1,0,-1
84 -23 m 1,7,-1
 87 710 l 2,8,9
 87 899 87 899 75 908 c 0,10,11
 43 928 43 928 36 980 c 1,12,-1
 287 1033 l 1,13,-1
 287 33 l 1,14,-1
 84 -23 l 1,7,-1
EndSplineSet
EndChar

StartChar: idieresis
Encoding: 239 239 186
Width: 377
Flags: W
LayerCount: 2
Fore
SplineSet
203 1081 m 1,0,-1
 203 1313 l 1,1,-1
 380 1313 l 1,2,-1
 380 1081 l 1,3,-1
 203 1081 l 1,0,-1
-29 1081 m 1,4,-1
 -29 1313 l 1,5,-1
 146 1313 l 1,6,-1
 146 1081 l 1,7,-1
 -29 1081 l 1,4,-1
84 -23 m 1,8,-1
 87 709 l 2,9,10
 87 897 87 897 75 906 c 0,11,12
 43 926 43 926 36 978 c 1,13,-1
 287 1031 l 1,14,-1
 287 33 l 1,15,-1
 84 -23 l 1,8,-1
EndSplineSet
EndChar

StartChar: ntilde
Encoding: 241 241 187
Width: 877
Flags: W
LayerCount: 2
Fore
SplineSet
717 1100 m 0,0,1
 675 1054 675 1054 591 1061 c 1,2,-1
 562 1070 l 1,3,-1
 491 1097 l 1,4,-1
 484 1099 l 1,5,-1
 468 1100 l 2,6,7
 461 1100 461 1100 451 1090 c 0,8,9
 438 1079 438 1079 428 1037 c 1,10,-1
 314 1037 l 1,11,12
 359 1269 359 1269 493 1269 c 0,13,14
 510 1267 510 1267 538 1262 c 1,15,-1
 623 1233 l 1,16,-1
 643 1230 l 2,17,18
 651 1230 651 1230 658 1236 c 0,19,20
 667 1251 667 1251 677 1295 c 1,21,-1
 786 1295 l 1,22,23
 768 1154 768 1154 717 1100 c 0,0,1
757 102 m 1,24,-1
 794 107 l 1,25,-1
 803 23 l 1,26,-1
 597 -17 l 1,27,28
 564 17 564 17 557 40 c 128,-1,29
 550 63 550 63 554 114 c 2,30,-1
 556 140 l 1,31,-1
 594 641 l 1,32,33
 594 714 594 714 534 783.5 c 128,-1,34
 474 853 474 853 399 857 c 1,35,36
 352 820 352 820 318 728 c 0,37,38
 288 644 288 644 287 574 c 2,39,-1
 280 16 l 1,40,-1
 83 -20 l 1,41,-1
 89 710 l 1,42,-1
 81 759 l 2,43,44
 72 821 72 821 55 868 c 1,45,-1
 27 872 l 1,46,-1
 11 947 l 1,47,-1
 236 1022 l 1,48,-1
 272 893 l 1,49,-1
 279 857 l 1,50,51
 395 997 395 997 507 1025 c 1,52,53
 625 1005 625 1005 711 889 c 128,-1,54
 797 773 797 773 797 663 c 2,55,-1
 797 633 l 2,56,57
 797 609 797 609 793 592 c 2,58,-1
 752 143 l 2,59,60
 752 118 752 118 757 102 c 1,24,-1
EndSplineSet
EndChar

StartChar: ograve
Encoding: 242 242 188
Width: 852
Flags: W
LayerCount: 2
Fore
SplineSet
549 1018 m 1,0,-1
 304 1323 l 1,1,-1
 517 1323 l 1,2,-1
 685 1018 l 1,3,-1
 549 1018 l 1,0,-1
739 195 m 0,4,5
 677 94 677 94 585 45 c 0,6,7
 537 19 537 19 383 -29 c 1,8,-1
 361 -29 l 2,9,10
 264 -29 264 -29 139 116 c 0,11,12
 26 247 26 247 26 468 c 0,13,14
 26 631 26 631 102 766 c 0,15,16
 185 911 185 911 332 976 c 2,17,-1
 445 1026 l 1,18,19
 632 1007 632 1007 735 850 c 0,20,21
 824 713 824 713 824 521 c 0,22,23
 824 334 824 334 739 195 c 0,4,5
542 744 m 0,24,25
 466 854 466 854 320 875 c 1,26,27
 222 781 222 781 222 547 c 0,28,29
 222 394 222 394 261 303 c 0,30,31
 309 191 309 191 430 127 c 0,32,33
 467 107 467 107 498 103 c 1,34,-1
 510 105 l 1,35,-1
 518 105 l 1,36,37
 624 188 624 188 624 426 c 0,38,39
 624 628 624 628 542 744 c 0,24,25
EndSplineSet
EndChar

StartChar: oacute
Encoding: 243 243 189
Width: 852
Flags: W
LayerCount: 2
Fore
SplineSet
537 1018 m 1,0,-1
 401 1018 l 1,1,-1
 571 1323 l 1,2,-1
 788 1323 l 1,3,-1
 537 1018 l 1,0,-1
739 195 m 0,4,5
 677 94 677 94 585 45 c 0,6,7
 537 19 537 19 383 -29 c 1,8,-1
 361 -29 l 2,9,10
 264 -29 264 -29 139 116 c 0,11,12
 26 247 26 247 26 468 c 0,13,14
 26 631 26 631 102 766 c 0,15,16
 185 911 185 911 332 976 c 2,17,-1
 445 1026 l 1,18,19
 632 1007 632 1007 735 850 c 0,20,21
 824 713 824 713 824 521 c 0,22,23
 824 334 824 334 739 195 c 0,4,5
542 744 m 0,24,25
 466 854 466 854 320 875 c 1,26,27
 222 781 222 781 222 547 c 0,28,29
 222 394 222 394 261 303 c 0,30,31
 309 191 309 191 430 127 c 0,32,33
 467 107 467 107 498 103 c 1,34,-1
 510 105 l 1,35,-1
 518 105 l 1,36,37
 624 188 624 188 624 426 c 0,38,39
 624 628 624 628 542 744 c 0,24,25
EndSplineSet
EndChar

StartChar: ocircumflex
Encoding: 244 244 190
Width: 852
Flags: W
LayerCount: 2
Fore
SplineSet
663 1018 m 1,0,-1
 545 1162 l 1,1,-1
 424 1018 l 1,2,-1
 288 1018 l 1,3,-1
 458 1323 l 1,4,-1
 628 1323 l 1,5,-1
 801 1018 l 1,6,-1
 663 1018 l 1,0,-1
739 195 m 0,7,8
 677 94 677 94 585 45 c 0,9,10
 537 19 537 19 383 -29 c 1,11,-1
 361 -29 l 2,12,13
 264 -29 264 -29 139 116 c 0,14,15
 26 247 26 247 26 468 c 0,16,17
 26 631 26 631 102 766 c 0,18,19
 185 911 185 911 332 976 c 2,20,-1
 445 1026 l 1,21,22
 632 1007 632 1007 735 850 c 0,23,24
 824 713 824 713 824 521 c 0,25,26
 824 334 824 334 739 195 c 0,7,8
542 744 m 0,27,28
 466 854 466 854 320 875 c 1,29,30
 222 781 222 781 222 547 c 0,31,32
 222 394 222 394 261 303 c 0,33,34
 309 191 309 191 430 127 c 0,35,36
 467 107 467 107 498 103 c 1,37,-1
 510 105 l 1,38,-1
 518 105 l 1,39,40
 624 188 624 188 624 426 c 0,41,42
 624 628 624 628 542 744 c 0,27,28
EndSplineSet
EndChar

StartChar: otilde
Encoding: 245 245 191
Width: 852
Flags: W
LayerCount: 2
Fore
SplineSet
421 1153 m 1,1,-1
 392 1161 l 1,2,-1
 321 1189 l 1,3,-1
 314 1190 l 1,4,-1
 298 1192 l 2,5,6
 274 1191 274 1191 257 1129 c 1,7,-1
 145 1129 l 1,8,9
 191 1361 191 1361 323 1361 c 0,10,11
 340 1359 340 1359 368 1353 c 2,12,-1
 453 1325 l 1,13,-1
 472 1321 l 2,14,15
 478 1322 478 1322 487 1328 c 1,16,-1
 510 1387 l 1,17,-1
 616 1387 l 1,18,19
 598 1252 598 1252 552.5 1198.5 c 128,-1,0
 507 1145 507 1145 421 1153 c 1,1,-1
739 195 m 0,20,21
 677 94 677 94 585 45 c 0,22,23
 537 19 537 19 383 -29 c 1,24,-1
 361 -29 l 2,25,26
 264 -29 264 -29 139 116 c 0,27,28
 26 248 26 248 26 468 c 0,29,30
 26 632 26 632 102 767 c 0,31,32
 185 912 185 912 332 977 c 2,33,-1
 445 1027 l 1,34,35
 632 1009 632 1009 735 851 c 0,36,37
 824 714 824 714 824 522 c 0,38,39
 824 335 824 335 739 195 c 0,20,21
542 746 m 0,40,41
 466 855 466 855 320 877 c 1,42,43
 222 782 222 782 222 548 c 0,44,45
 222 395 222 395 261 304 c 0,46,47
 309 191 309 191 430 127 c 0,48,49
 467 108 467 108 498 104 c 1,50,-1
 510 105 l 1,51,-1
 518 105 l 1,52,53
 624 188 624 188 624 427 c 0,54,55
 624 629 624 629 542 746 c 0,40,41
EndSplineSet
EndChar

StartChar: odieresis
Encoding: 246 246 192
Width: 852
Flags: W
LayerCount: 2
Fore
SplineSet
571 1040 m 1,0,-1
 571 1272 l 1,1,-1
 748 1272 l 1,2,-1
 748 1040 l 1,3,-1
 571 1040 l 1,0,-1
340 1040 m 1,4,-1
 340 1272 l 1,5,-1
 515 1272 l 1,6,-1
 515 1040 l 1,7,-1
 340 1040 l 1,4,-1
739 195 m 0,8,9
 677 94 677 94 585 45 c 0,10,11
 537 19 537 19 383 -29 c 1,12,-1
 361 -29 l 2,13,14
 264 -29 264 -29 139 116 c 0,15,16
 26 247 26 247 26 467 c 0,17,18
 26 630 26 630 102 765 c 0,19,20
 185 909 185 909 332 974 c 2,21,-1
 445 1024 l 1,22,23
 632 1006 632 1006 735 848 c 0,24,25
 824 712 824 712 824 520 c 0,26,27
 824 334 824 334 739 195 c 0,8,9
542 743 m 0,28,29
 466 852 466 852 320 874 c 1,30,31
 222 779 222 779 222 546 c 0,32,33
 222 232 222 232 430 126 c 0,34,35
 468 107 468 107 498 103 c 1,36,-1
 510 105 l 1,37,-1
 518 105 l 1,38,39
 624 188 624 188 624 426 c 0,40,41
 624 627 624 627 542 743 c 0,28,29
EndSplineSet
EndChar

StartChar: divide
Encoding: 247 247 193
Width: 1241
Flags: W
LayerCount: 2
Fore
SplineSet
621 803 m 0,1,2
 570 803 570 803 536 849 c 0,3,4
 505 891 505 891 505 941 c 0,5,6
 505 993 505 993 535 1036 c 0,7,8
 568 1084 568 1084 621 1084 c 0,9,10
 676 1084 676 1084 709 1037 c 0,11,12
 738 995 738 995 738 941 c 0,13,14
 738 885 738 885 704 844 c 128,-1,0
 670 803 670 803 621 803 c 0,1,2
159 511 m 1,15,-1
 159 687 l 1,16,-1
 1082 687 l 1,17,-1
 1082 511 l 1,18,-1
 159 511 l 1,15,-1
621 115 m 0,20,21
 569 115 569 115 535 163 c 0,22,23
 505 205 505 205 505 256 c 256,24,25
 505 307 505 307 535 349 c 0,26,27
 569 396 569 396 621 396 c 0,28,29
 675 396 675 396 709 350 c 0,30,31
 738 309 738 309 738 256 c 0,32,33
 738 197 738 197 704 156 c 128,-1,19
 670 115 670 115 621 115 c 0,20,21
EndSplineSet
EndChar

StartChar: ugrave
Encoding: 249 249 194
Width: 877
Flags: W
LayerCount: 2
Fore
SplineSet
539 1018 m 1,0,-1
 291 1323 l 1,1,-1
 505 1323 l 1,2,-1
 675 1018 l 1,3,-1
 539 1018 l 1,0,-1
87 884 m 1,4,5
 86 886 86 886 85 888 c 2,6,-1
 51 881 l 1,7,-1
 44 965 l 1,8,-1
 298 1018 l 1,9,-1
 266 340 l 2,10,11
 262 277 262 277 328.5 205.5 c 128,-1,12
 395 134 395 134 459 130 c 1,13,14
 506 168 506 168 540 264 c 0,15,16
 570 350 570 350 571 419 c 2,17,-1
 578 984 l 1,18,-1
 775 1016 l 1,19,-1
 767 336 l 2,20,21
 767 248 767 248 784 190 c 0,22,23
 788 170 788 170 801 149 c 1,24,-1
 805 149 l 1,25,-1
 851 170 l 1,26,-1
 861 88 l 1,27,-1
 688 -15 l 1,28,29
 622 50 622 50 591 135 c 1,30,31
 479 18 479 18 349 -30 c 1,32,33
 223 -16 223 -16 142 97 c 0,34,35
 66 202 66 202 69 328 c 0,36,37
 72 364 72 364 77 437 c 0,38,39
 79 474 79 474 79 529 c 0,40,41
 79 574 79 574 85 663.5 c 128,-1,42
 91 753 91 753 91 797 c 0,43,44
 91 864 91 864 87 885 c 1,45,-1
 87 884 l 1,4,5
EndSplineSet
EndChar

StartChar: uacute
Encoding: 250 250 195
Width: 877
Flags: W
LayerCount: 2
Fore
SplineSet
526 1018 m 1,0,-1
 390 1018 l 1,1,-1
 561 1323 l 1,2,-1
 776 1323 l 1,3,-1
 526 1018 l 1,0,-1
87 884 m 1,4,5
 86 886 86 886 85 888 c 2,6,-1
 51 881 l 1,7,-1
 44 965 l 1,8,-1
 298 1018 l 1,9,-1
 266 340 l 2,10,11
 262 277 262 277 328.5 205.5 c 128,-1,12
 395 134 395 134 459 130 c 1,13,14
 506 168 506 168 540 264 c 0,15,16
 570 350 570 350 571 419 c 2,17,-1
 578 984 l 1,18,-1
 775 1016 l 1,19,-1
 767 336 l 2,20,21
 767 248 767 248 784 190 c 0,22,23
 788 170 788 170 801 149 c 1,24,-1
 805 149 l 1,25,-1
 851 170 l 1,26,-1
 861 88 l 1,27,-1
 688 -15 l 1,28,29
 622 50 622 50 591 135 c 1,30,31
 479 18 479 18 349 -30 c 1,32,33
 223 -16 223 -16 142 97 c 0,34,35
 66 202 66 202 69 328 c 0,36,37
 72 364 72 364 77 437 c 0,38,39
 79 474 79 474 79 529 c 0,40,41
 79 574 79 574 85 663.5 c 128,-1,42
 91 753 91 753 91 797 c 0,43,44
 91 864 91 864 87 885 c 1,45,-1
 87 884 l 1,4,5
EndSplineSet
EndChar

StartChar: ucircumflex
Encoding: 251 251 196
Width: 877
Flags: W
LayerCount: 2
Fore
SplineSet
652 1018 m 1,0,-1
 533 1162 l 1,1,-1
 414 1018 l 1,2,-1
 276 1018 l 1,3,-1
 448 1323 l 1,4,-1
 617 1323 l 1,5,-1
 790 1018 l 1,6,-1
 652 1018 l 1,0,-1
87 884 m 1,7,8
 86 886 86 886 85 888 c 2,9,-1
 51 881 l 1,10,-1
 44 965 l 1,11,-1
 298 1018 l 1,12,-1
 266 340 l 2,13,14
 262 277 262 277 328.5 205.5 c 128,-1,15
 395 134 395 134 459 130 c 1,16,17
 506 168 506 168 540 264 c 0,18,19
 570 350 570 350 571 419 c 2,20,-1
 578 984 l 1,21,-1
 775 1016 l 1,22,-1
 767 336 l 2,23,24
 767 248 767 248 784 190 c 0,25,26
 788 170 788 170 801 149 c 1,27,-1
 805 149 l 1,28,-1
 851 170 l 1,29,-1
 861 88 l 1,30,-1
 688 -15 l 1,31,32
 622 50 622 50 591 135 c 1,33,34
 479 18 479 18 349 -30 c 1,35,36
 223 -16 223 -16 142 97 c 0,37,38
 66 202 66 202 69 328 c 0,39,40
 72 364 72 364 77 437 c 0,41,42
 79 474 79 474 79 529 c 0,43,44
 79 574 79 574 85 663.5 c 128,-1,45
 91 753 91 753 91 797 c 0,46,47
 91 864 91 864 87 885 c 1,48,-1
 87 884 l 1,7,8
EndSplineSet
EndChar

StartChar: udieresis
Encoding: 252 252 197
Width: 877
Flags: W
LayerCount: 2
Fore
SplineSet
561 1040 m 1,0,-1
 561 1272 l 1,1,-1
 736 1272 l 1,2,-1
 736 1040 l 1,3,-1
 561 1040 l 1,0,-1
329 1040 m 1,4,-1
 329 1272 l 1,5,-1
 504 1272 l 1,6,-1
 504 1040 l 1,7,-1
 329 1040 l 1,4,-1
688 -15 m 1,8,9
 622 50 622 50 591 135 c 1,10,11
 479 18 479 18 349 -30 c 1,12,13
 222 -16 222 -16 142 97 c 0,14,15
 69 200 69 200 69 328 c 1,16,17
 80 440 80 440 80 529 c 0,18,19
 80 573 80 573 86 662.5 c 128,-1,20
 92 752 92 752 92 796 c 0,21,22
 92 863 92 863 87 882 c 0,23,24
 87 884 87 884 85 887 c 2,25,-1
 51 880 l 1,26,-1
 46 964 l 1,27,-1
 297 1016 l 1,28,-1
 267 339 l 2,29,30
 263 277 263 277 329 205.5 c 128,-1,31
 395 134 395 134 459 130 c 1,32,33
 506 168 506 168 540 264 c 0,34,35
 570 350 570 350 571 418 c 2,36,-1
 577 982 l 1,37,-1
 775 1015 l 1,38,-1
 767 335 l 2,39,40
 767 248 767 248 784 189 c 0,41,42
 788 170 788 170 801 148 c 1,43,-1
 805 149 l 1,44,-1
 851 170 l 1,45,-1
 861 88 l 1,46,-1
 688 -15 l 1,8,9
EndSplineSet
EndChar

StartChar: ydieresis
Encoding: 255 255 198
Width: 756
Flags: W
LayerCount: 2
Fore
SplineSet
413 1038 m 1,0,-1
 413 1272 l 1,1,-1
 588 1272 l 1,2,-1
 588 1038 l 1,3,-1
 413 1038 l 1,0,-1
182 1038 m 1,4,-1
 182 1272 l 1,5,-1
 357 1272 l 1,6,-1
 357 1038 l 1,7,-1
 182 1038 l 1,4,-1
680 712 m 2,8,-1
 651 617 l 1,9,10
 586 366 586 366 449 -130 c 1,11,12
 390 -328 390 -328 252 -328 c 0,13,14
 160 -328 160 -328 127 -239 c 0,15,16
 115 -215 115 -215 115 -169 c 1,17,-1
 301 -84 l 1,18,-1
 291 -147 l 1,19,-1
 291 -156 l 2,20,21
 291 -181 291 -181 300 -194 c 0,22,23
 304 -200 304 -200 306 -202 c 0,24,25
 321 -197 321 -197 349 -122 c 1,26,-1
 380 -8 l 1,27,-1
 306 -19 l 1,28,-1
 313 27 l 1,29,-1
 315 41 l 1,30,31
 288 181 288 181 211 382 c 0,32,33
 148 543 148 543 85 703 c 0,34,35
 56 782 56 782 51 793 c 0,36,37
 20 854 20 854 -19 859 c 1,38,-1
 -19 916 l 1,39,-1
 179 1034 l 1,40,-1
 268 801 l 1,41,-1
 344 586 l 1,42,-1
 454 264 l 1,43,44
 528 538 528 538 532 556 c 0,45,46
 582 763 582 763 577 862 c 2,47,-1
 575 905 l 1,48,-1
 567 994 l 1,49,-1
 724 994 l 1,50,-1
 724 928 l 2,51,52
 724 857 724 857 680 712 c 2,8,-1
EndSplineSet
EndChar

StartChar: Scaron
Encoding: 352 352 206
Width: 672
Flags: W
LayerCount: 2
Fore
SplineSet
464 1132 m 1,0,-1
 294 1132 l 1,1,-1
 122 1438 l 1,2,-1
 260 1438 l 1,3,-1
 379 1294 l 1,4,-1
 498 1438 l 1,5,-1
 636 1438 l 1,6,-1
 464 1132 l 1,0,-1
303 -29 m 0,7,8
 184 -29 184 -29 112 31 c 0,9,10
 66 69 66 69 51 120 c 0,11,12
 41 155 41 155 41 229 c 2,13,-1
 41 277 l 1,14,-1
 260 298 l 1,15,-1
 246 213 l 1,16,17
 241 131 241 131 270 91 c 0,18,19
 294 60 294 60 324 60 c 0,20,21
 378 60 378 60 406 117 c 0,22,23
 427 161 427 161 427 220 c 0,24,25
 427 293 427 293 282 379 c 2,26,-1
 234 407 l 1,27,28
 47 528 47 528 47 643 c 0,29,30
 47 885 47 885 268 993 c 0,31,32
 295 1008 295 1008 366 1028 c 1,33,34
 413 1028 413 1028 467 983 c 1,35,36
 525 944 525 944 612 856 c 1,37,-1
 498 621 l 1,38,-1
 445 669 l 1,39,-1
 448 706 l 1,40,-1
 448 720 l 2,41,42
 448 764 448 764 375 823.5 c 128,-1,43
 302 883 302 883 256 883 c 0,44,45
 239 883 239 883 213 863 c 1,46,47
 199 837 199 837 191 769 c 1,48,49
 192 709 192 709 319 639 c 0,50,51
 465 559 465 559 519 513 c 0,52,53
 629 422 629 422 629 318 c 0,54,55
 629 170 629 170 541 72 c 0,56,57
 449 -29 449 -29 303 -29 c 0,7,8
EndSplineSet
EndChar

StartChar: scaron
Encoding: 353 353 207
Width: 672
Flags: W
LayerCount: 2
Fore
SplineSet
464 1132 m 1,0,-1
 294 1132 l 1,1,-1
 122 1438 l 1,2,-1
 260 1438 l 1,3,-1
 379 1294 l 1,4,-1
 498 1438 l 1,5,-1
 636 1438 l 1,6,-1
 464 1132 l 1,0,-1
303 -29 m 0,7,8
 184 -29 184 -29 112 31 c 0,9,10
 66 69 66 69 51 120 c 0,11,12
 41 155 41 155 41 229 c 2,13,-1
 41 277 l 1,14,-1
 260 298 l 1,15,-1
 246 213 l 1,16,17
 241 131 241 131 270 91 c 0,18,19
 294 60 294 60 324 60 c 0,20,21
 378 60 378 60 406 117 c 0,22,23
 427 161 427 161 427 220 c 0,24,25
 427 293 427 293 282 379 c 2,26,-1
 234 407 l 1,27,28
 47 528 47 528 47 643 c 0,29,30
 47 885 47 885 268 993 c 0,31,32
 295 1008 295 1008 366 1028 c 1,33,34
 413 1028 413 1028 467 983 c 1,35,36
 525 944 525 944 612 856 c 1,37,-1
 498 621 l 1,38,-1
 445 669 l 1,39,-1
 448 706 l 1,40,-1
 448 720 l 2,41,42
 448 764 448 764 375 823.5 c 128,-1,43
 302 883 302 883 256 883 c 0,44,45
 239 883 239 883 213 863 c 1,46,47
 199 837 199 837 191 769 c 1,48,49
 192 709 192 709 319 639 c 0,50,51
 465 559 465 559 519 513 c 0,52,53
 629 422 629 422 629 318 c 0,54,55
 629 170 629 170 541 72 c 0,56,57
 449 -29 449 -29 303 -29 c 0,7,8
EndSplineSet
EndChar

StartChar: brokenbar
Encoding: 166 166 208
Width: 746
Flags: W
LayerCount: 2
Fore
SplineSet
294 634 m 1,0,-1
 294 1403 l 1,1,-1
 453 1403 l 1,2,-1
 453 634 l 1,3,-1
 294 634 l 1,0,-1
294 -342 m 1,4,-1
 294 428 l 1,5,-1
 453 428 l 1,6,-1
 453 -342 l 1,7,-1
 294 -342 l 1,4,-1
EndSplineSet
EndChar

StartChar: minus
Encoding: 173 173 209
AltUni2: 002212.ffffffff.0
Width: 416
Flags: W
LayerCount: 2
Fore
SplineSet
322 454 m 0,0,1
 291 420 291 420 221 420 c 2,2,-1
 103 420 l 1,3,-1
 94 416 l 1,4,-1
 62 386 l 1,5,-1
 -1 412 l 1,6,7
 124 584 124 584 193 583 c 2,8,-1
 208 583 l 1,9,-1
 270 580 l 1,10,-1
 283 580 l 1,11,-1
 293 579 l 2,12,13
 318 579 318 579 328 590 c 0,14,15
 330 593 330 593 345 623 c 1,16,-1
 411 601 l 1,17,18
 388 552 388 552 372 524 c 0,19,20
 344 474 344 474 322 454 c 0,0,1
EndSplineSet
EndChar

StartChar: twosuperior
Encoding: 178 178 210
Width: 449
Flags: W
LayerCount: 2
Fore
SplineSet
134 820 m 1,0,-1
 149 826 l 1,1,-1
 179 772 l 1,2,-1
 50 697 l 1,3,-1
 15 763 l 1,4,-1
 8 800 l 1,5,6
 8 873 8 873 77 931 c 0,7,8
 91 943 91 943 188 1000 c 1,9,-1
 203 1000 l 2,10,11
 293 1000 293 1000 351 936 c 0,12,13
 406 876 406 876 406 791 c 0,14,15
 406 701 406 701 273 582 c 2,16,-1
 218 533 l 1,17,-1
 299 533 l 2,18,19
 340 533 340 533 353 539 c 0,20,21
 371 547 371 547 385 578 c 1,22,-1
 445 554 l 1,23,-1
 403 462 l 1,24,25
 383 393 383 393 312 393 c 2,26,-1
 14 393 l 1,27,-1
 14 439 l 1,28,-1
 151 583 l 1,29,30
 261 706 261 706 261 776 c 0,31,32
 261 821 261 821 237 857 c 0,33,34
 208 900 208 900 162 897 c 2,35,-1
 144 895 l 1,36,-1
 134 890 l 1,37,-1
 128 876 l 1,38,39
 125 852 125 852 134 820 c 1,0,-1
EndSplineSet
EndChar

StartChar: threesuperior
Encoding: 179 179 211
Width: 432
Flags: W
LayerCount: 2
Fore
SplineSet
148 377 m 1,1,2
 99 387 99 387 59 414 c 128,-1,3
 19 441 19 441 -13 517 c 1,4,-1
 123 559 l 1,5,6
 166 486 166 486 182 471 c 128,-1,7
 198 456 198 456 212 454 c 0,8,9
 229 455 229 455 247 487 c 0,10,11
 268 524 268 524 268 572 c 0,12,13
 268 602 268 602 250 633 c 0,14,15
 229 669 229 669 199 669 c 2,16,-1
 185 669 l 1,17,-1
 175 667 l 1,18,-1
 125 656 l 1,19,-1
 109 726 l 1,20,21
 194 740 194 740 214 762 c 1,22,23
 237 779 237 779 237 818 c 0,24,25
 237 909 237 909 162 910 c 1,26,-1
 155 909 l 1,27,-1
 147 894 l 1,28,-1
 146 886 l 1,29,-1
 152 864 l 2,30,31
 152 859 152 859 177 827 c 1,32,-1
 44 772 l 1,33,-1
 28 822 l 1,34,-1
 26 840 l 1,35,36
 26 898 26 898 79 940 c 0,37,38
 91 950 91 950 184 1002 c 1,39,-1
 207 1002 l 2,40,41
 276 1002 276 1002 323.5 958.5 c 128,-1,42
 371 915 371 915 371 854 c 0,43,44
 371 787 371 787 315 741 c 1,45,46
 404 695 404 695 404 590 c 0,47,48
 404 500 404 500 334 443.5 c 128,-1,0
 264 387 264 387 148 377 c 1,1,2
EndSplineSet
EndChar

StartChar: onesuperior
Encoding: 185 185 212
Width: 275
Flags: W
LayerCount: 2
Fore
SplineSet
221 477 m 1,0,-1
 253 484 l 1,1,-1
 259 415 l 1,2,-1
 78 380 l 1,3,-1
 74 872 l 1,4,-1
 44 861 l 1,5,-1
 -7 850 l 1,6,-1
 -21 922 l 1,7,8
 60 940 60 940 216 1017 c 1,9,-1
 221 477 l 1,0,-1
EndSplineSet
EndChar

StartChar: onequarter
Encoding: 188 188 213
Width: 940
Flags: W
LayerCount: 2
Fore
SplineSet
875 148 m 1,0,-1
 875 17 l 1,1,-1
 741 -22 l 1,2,-1
 741 134 l 1,3,-1
 528 134 l 1,4,-1
 504 178 l 1,5,-1
 752 570 l 1,6,-1
 875 594 l 1,7,-1
 875 225 l 1,8,-1
 971 232 l 1,9,-1
 875 148 l 1,0,-1
451 498 m 1,10,-1
 98 -29 l 1,11,-1
 -33 -29 l 1,12,-1
 674 1014 l 1,13,-1
 804 1014 l 1,14,-1
 451 498 l 1,10,-1
212 496 m 1,15,-1
 248 503 l 1,16,-1
 248 433 l 1,17,-1
 74 400 l 1,18,-1
 69 872 l 1,19,-1
 -7 850 l 1,20,-1
 -20 924 l 1,21,22
 96 960 96 960 103 964 c 0,23,24
 135 976 135 976 208 1023 c 1,25,-1
 212 496 l 1,15,-1
741 377 m 1,26,-1
 638 223 l 1,27,-1
 741 223 l 1,28,-1
 741 377 l 1,26,-1
EndSplineSet
EndChar

StartChar: onehalf
Encoding: 189 189 214
Width: 938
Flags: W
LayerCount: 2
Fore
SplineSet
637 415 m 1,0,-1
 652 424 l 1,1,-1
 681 364 l 1,2,-1
 559 290 l 1,3,-1
 523 353 l 1,4,-1
 516 392 l 1,5,6
 516 436 516 436 550 482.5 c 128,-1,7
 584 529 584 529 691 586 c 1,8,-1
 705 586 l 2,9,10
 792 586 792 586 847 524 c 0,11,12
 898 467 898 467 898 382 c 0,13,14
 898 294 898 294 771 179 c 2,15,-1
 723 136 l 1,16,-1
 797 136 l 2,17,18
 834 136 834 136 849 144 c 0,19,20
 863 149 863 149 875 172 c 1,21,-1
 935 163 l 1,22,23
 922 125 922 125 908 88 c 0,24,25
 883 26 883 26 860 11 c 0,26,27
 843 -1 843 -1 805 -1 c 2,28,-1
 522 -1 l 1,29,-1
 522 44 l 1,30,-1
 651 183 l 1,31,32
 758 307 758 307 758 371 c 0,33,34
 758 415 758 415 735 448 c 0,35,36
 708 485 708 485 664 485 c 0,37,38
 657 485 657 485 656 485 c 2,39,-1
 637 476 l 2,40,41
 635 472 635 472 631 449 c 0,42,43
 631 427 631 427 637 415 c 1,0,-1
451 498 m 1,44,-1
 98 -29 l 1,45,-1
 -33 -29 l 1,46,-1
 674 1014 l 1,47,-1
 804 1014 l 1,48,-1
 451 498 l 1,44,-1
212 496 m 1,49,-1
 248 503 l 1,50,-1
 248 433 l 1,51,-1
 74 400 l 1,52,-1
 69 872 l 1,53,-1
 -7 850 l 1,54,-1
 -20 924 l 1,55,56
 96 960 96 960 103 964 c 0,57,58
 135 976 135 976 208 1023 c 1,59,-1
 212 496 l 1,49,-1
EndSplineSet
EndChar

StartChar: threequarters
Encoding: 190 190 215
Width: 1092
Flags: W
LayerCount: 2
Fore
SplineSet
1027 147 m 1,0,-1
 1027 17 l 1,1,-1
 893 -22 l 1,2,-1
 893 134 l 1,3,-1
 679 134 l 1,4,-1
 658 179 l 1,5,-1
 904 570 l 1,6,-1
 1027 594 l 1,7,-1
 1027 225 l 1,8,-1
 1127 232 l 1,9,-1
 1027 147 l 1,0,-1
603 498 m 1,10,-1
 252 -29 l 1,11,-1
 118 -29 l 1,12,-1
 826 1014 l 1,13,-1
 956 1014 l 1,14,-1
 603 498 l 1,10,-1
139 398 m 1,16,17
 89 408 89 408 52 438.5 c 128,-1,18
 15 469 15 469 -15 532 c 1,19,-1
 119 580 l 1,20,21
 175 475 175 475 201 475 c 0,22,23
 214 475 214 475 234 504 c 0,24,25
 256 545 256 545 256 587 c 0,26,27
 256 615 256 615 238 645 c 0,28,29
 217 678 217 678 190 679 c 1,30,-1
 176 677 l 1,31,-1
 162 677 l 1,32,-1
 117 670 l 1,33,-1
 104 734 l 1,34,35
 176 750 176 750 210 772 c 1,36,37
 227 790 227 790 227 824 c 0,38,39
 227 854 227 854 205.5 881.5 c 128,-1,40
 184 909 184 909 154 910 c 1,41,-1
 148 909 l 1,42,-1
 141 898 l 1,43,-1
 140 890 l 1,44,-1
 145 871 l 1,45,-1
 167 826 l 1,46,-1
 44 783 l 1,47,-1
 29 811 l 1,48,-1
 24 843 l 1,49,50
 24 901 24 901 74 942 c 0,51,52
 87 952 87 952 176 1003 c 1,53,-1
 197 1003 l 2,54,55
 266 1003 266 1003 310.5 963 c 128,-1,56
 355 923 355 923 355 858 c 0,57,58
 355 799 355 799 303 750 c 1,59,60
 330 735 330 735 354 706 c 0,61,62
 390 662 390 662 390 606 c 0,63,64
 390 519 390 519 320 458.5 c 128,-1,15
 250 398 250 398 139 398 c 1,16,17
893 377 m 1,65,-1
 790 223 l 1,66,-1
 893 223 l 1,67,-1
 893 377 l 1,65,-1
EndSplineSet
EndChar

StartChar: Eth
Encoding: 208 208 216
Width: 877
Flags: W
LayerCount: 2
Fore
SplineSet
580 93 m 1,0,1
 422 -13 422 -13 330 -13 c 0,2,3
 211 -13 211 -13 116 129 c 0,4,5
 24 266 24 266 24 436 c 0,6,7
 24 633 24 633 132 784 c 0,8,9
 250 948 250 948 445 976 c 1,10,11
 524 953 524 953 573 912 c 1,12,-1
 572 986 l 1,13,-1
 317 986 l 1,14,-1
 317 1105 l 1,15,-1
 562 1107 l 1,16,17
 559 1118 559 1118 555 1139 c 2,18,-1
 547 1176 l 1,19,-1
 515 1182 l 1,20,-1
 511 1244 l 1,21,-1
 690 1307 l 1,22,23
 729 1307 729 1307 746 1237 c 0,24,25
 746 1231 746 1231 756 1184 c 0,26,27
 764 1142 764 1142 766 1106 c 1,28,-1
 900 1106 l 1,29,-1
 900 986 l 1,30,-1
 769 986 l 1,31,-1
 773 831 l 1,32,-1
 763 357 l 1,33,-1
 767 219 l 1,34,-1
 778 96 l 1,35,-1
 810 79 l 1,36,-1
 810 29 l 1,37,-1
 627 -15 l 1,38,39
 594 5 594 5 588 43 c 0,40,41
 583 62 583 62 580 93 c 1,0,1
314 839 m 1,42,-1
 292 834 l 2,43,44
 279 828 279 828 272 822 c 0,45,46
 203 698 203 698 203 577 c 0,47,48
 203 387 203 387 278 248 c 0,49,50
 350 115 350 115 434 115 c 0,51,52
 492 115 492 115 567 241 c 1,53,-1
 571 667 l 1,54,55
 498 742 498 742 455 775 c 0,56,57
 375 837 375 837 314 839 c 1,42,-1
EndSplineSet
EndChar

StartChar: multiply
Encoding: 215 215 217
Width: 1241
Flags: W
LayerCount: 2
Fore
SplineSet
967 27 m 1,0,-1
 625 466 l 1,1,-1
 285 27 l 1,2,-1
 182 157 l 1,3,-1
 524 598 l 1,4,-1
 182 1037 l 1,5,-1
 285 1169 l 1,6,-1
 625 731 l 1,7,-1
 967 1169 l 1,8,-1
 1070 1037 l 1,9,-1
 730 598 l 1,10,-1
 1070 157 l 1,11,-1
 967 27 l 1,0,-1
EndSplineSet
EndChar

StartChar: Yacute
Encoding: 221 221 218
Width: 756
Flags: W
LayerCount: 2
Fore
SplineSet
379 1016 m 1,0,-1
 243 1016 l 1,1,-1
 413 1323 l 1,2,-1
 627 1323 l 1,3,-1
 379 1016 l 1,0,-1
680 713 m 2,4,-1
 651 618 l 1,5,6
 586 366 586 366 449 -130 c 1,7,8
 390 -328 390 -328 252 -328 c 0,9,10
 160 -328 160 -328 127 -239 c 0,11,12
 115 -215 115 -215 115 -169 c 1,13,-1
 301 -84 l 1,14,-1
 291 -146 l 1,15,-1
 291 -156 l 2,16,17
 291 -181 291 -181 300 -194 c 0,18,19
 304 -200 304 -200 306 -202 c 0,20,21
 321 -197 321 -197 349 -122 c 1,22,-1
 380 -7 l 1,23,-1
 306 -18 l 1,24,-1
 313 28 l 1,25,-1
 315 42 l 1,26,27
 288 182 288 182 211 383 c 0,28,29
 148 544 148 544 85 704 c 0,30,31
 56 783 56 783 51 794 c 0,32,33
 20 855 20 855 -19 860 c 1,34,-1
 -19 917 l 1,35,-1
 179 1035 l 1,36,-1
 268 802 l 1,37,-1
 344 587 l 1,38,-1
 454 265 l 1,39,40
 487 383 487 383 548 621 c 0,41,42
 550 631 550 631 561 703 c 0,43,44
 583 837 583 837 576 907 c 2,45,-1
 568 995 l 1,46,-1
 724 995 l 1,47,-1
 724 929 l 2,48,49
 724 858 724 858 680 713 c 2,4,-1
EndSplineSet
EndChar

StartChar: Thorn
Encoding: 222 222 219
Width: 852
Flags: W
LayerCount: 2
Fore
SplineSet
42 1154 m 1,0,-1
 45 1154 l 1,1,-1
 4 1148 l 1,2,-1
 4 1222 l 1,3,-1
 230 1300 l 1,4,5
 285 1101 285 1101 285 906 c 2,6,-1
 285 870 l 1,7,8
 391 989 391 989 500 1023 c 1,9,10
 640 1000 640 1000 734 857 c 0,11,12
 826 718 826 718 826 542 c 0,13,14
 826 312 826 312 732 175 c 0,15,16
 635 34 635 34 415 -41 c 1,17,18
 352 -32 352 -32 288 15 c 1,19,-1
 285 -368 l 1,20,-1
 87 -434 l 1,21,-1
 78 954 l 2,22,23
 78 972 78 972 76 1002 c 0,24,25
 72 1023 72 1023 67 1041 c 2,26,-1
 57 1116 l 2,27,28
 52 1156 52 1156 42 1154 c 1,0,-1
561 756 m 0,29,30
 490 869 490 869 406 874 c 1,31,32
 294 785 294 785 294 683 c 2,33,-1
 292 244 l 1,34,35
 300 222 300 222 311 207 c 0,36,37
 342 147 342 147 471 75 c 1,38,39
 541 79 541 79 586 181 c 0,40,41
 636 295 636 295 636 488 c 0,42,43
 636 636 636 636 561 756 c 0,29,30
EndSplineSet
EndChar

StartChar: eth
Encoding: 240 240 220
Width: 877
Flags: W
LayerCount: 2
Fore
SplineSet
580 93 m 1,0,1
 422 -13 422 -13 330 -13 c 0,2,3
 211 -13 211 -13 116 129 c 0,4,5
 24 266 24 266 24 436 c 0,6,7
 24 633 24 633 132 784 c 0,8,9
 250 948 250 948 445 976 c 1,10,11
 524 953 524 953 573 912 c 1,12,-1
 572 986 l 1,13,-1
 317 986 l 1,14,-1
 317 1105 l 1,15,-1
 562 1107 l 1,16,17
 559 1118 559 1118 555 1139 c 2,18,-1
 547 1176 l 1,19,-1
 515 1182 l 1,20,-1
 511 1244 l 1,21,-1
 690 1307 l 1,22,23
 729 1307 729 1307 746 1237 c 0,24,25
 746 1231 746 1231 756 1184 c 0,26,27
 764 1142 764 1142 766 1106 c 1,28,-1
 900 1106 l 1,29,-1
 900 986 l 1,30,-1
 769 986 l 1,31,-1
 773 831 l 1,32,-1
 763 357 l 1,33,-1
 767 219 l 1,34,-1
 778 96 l 1,35,-1
 810 79 l 1,36,-1
 810 29 l 1,37,-1
 627 -15 l 1,38,39
 594 5 594 5 588 43 c 0,40,41
 583 62 583 62 580 93 c 1,0,1
314 839 m 1,42,-1
 292 834 l 2,43,44
 279 828 279 828 272 822 c 0,45,46
 203 698 203 698 203 577 c 0,47,48
 203 387 203 387 278 248 c 0,49,50
 350 115 350 115 434 115 c 0,51,52
 492 115 492 115 567 241 c 1,53,-1
 571 667 l 1,54,55
 498 742 498 742 455 775 c 0,56,57
 375 837 375 837 314 839 c 1,42,-1
EndSplineSet
EndChar

StartChar: yacute
Encoding: 253 253 221
Width: 756
Flags: W
LayerCount: 2
Fore
SplineSet
379 1016 m 1,0,-1
 243 1016 l 1,1,-1
 413 1323 l 1,2,-1
 627 1323 l 1,3,-1
 379 1016 l 1,0,-1
680 713 m 2,4,-1
 651 618 l 1,5,6
 586 366 586 366 449 -130 c 1,7,8
 390 -328 390 -328 252 -328 c 0,9,10
 160 -328 160 -328 127 -239 c 0,11,12
 115 -215 115 -215 115 -169 c 1,13,-1
 301 -84 l 1,14,-1
 291 -146 l 1,15,-1
 291 -156 l 2,16,17
 291 -181 291 -181 300 -194 c 0,18,19
 304 -200 304 -200 306 -202 c 0,20,21
 321 -197 321 -197 349 -122 c 1,22,-1
 380 -7 l 1,23,-1
 306 -18 l 1,24,-1
 313 28 l 1,25,-1
 315 42 l 1,26,27
 288 182 288 182 211 383 c 0,28,29
 148 544 148 544 85 704 c 0,30,31
 56 783 56 783 51 794 c 0,32,33
 20 855 20 855 -19 860 c 1,34,-1
 -19 917 l 1,35,-1
 179 1035 l 1,36,-1
 268 802 l 1,37,-1
 344 587 l 1,38,-1
 454 265 l 1,39,40
 487 383 487 383 548 621 c 0,41,42
 550 631 550 631 561 703 c 0,43,44
 583 837 583 837 576 907 c 2,45,-1
 568 995 l 1,46,-1
 724 995 l 1,47,-1
 724 929 l 2,48,49
 724 858 724 858 680 713 c 2,4,-1
EndSplineSet
EndChar

StartChar: thorn
Encoding: 254 254 222
Width: 852
Flags: W
LayerCount: 2
Fore
SplineSet
42 1154 m 1,0,-1
 45 1154 l 1,1,-1
 4 1148 l 1,2,-1
 4 1222 l 1,3,-1
 230 1300 l 1,4,5
 285 1101 285 1101 285 906 c 2,6,-1
 285 870 l 1,7,8
 391 989 391 989 500 1023 c 1,9,10
 640 1000 640 1000 734 857 c 0,11,12
 826 718 826 718 826 542 c 0,13,14
 826 312 826 312 732 175 c 0,15,16
 635 34 635 34 415 -41 c 1,17,18
 352 -32 352 -32 288 15 c 1,19,-1
 285 -368 l 1,20,-1
 87 -434 l 1,21,-1
 78 954 l 2,22,23
 78 972 78 972 76 1002 c 0,24,25
 72 1023 72 1023 67 1041 c 2,26,-1
 57 1116 l 2,27,28
 52 1156 52 1156 42 1154 c 1,0,-1
561 756 m 0,29,30
 490 869 490 869 406 874 c 1,31,32
 294 785 294 785 294 683 c 2,33,-1
 292 244 l 1,34,35
 300 222 300 222 311 207 c 0,36,37
 342 147 342 147 471 75 c 1,38,39
 541 79 541 79 586 181 c 0,40,41
 636 295 636 295 636 488 c 0,42,43
 636 636 636 636 561 756 c 0,29,30
EndSplineSet
EndChar

StartChar: dotoperator
Encoding: 57347 57347 223
Width: 330
Flags: W
LayerCount: 2
Fore
SplineSet
223 422 m 0,0,1
 191 389 191 389 146 389 c 0,2,3
 103 389 103 389 72 425 c 0,4,5
 44 458 44 458 44 494 c 0,6,7
 44 531 44 531 72.5 563.5 c 128,-1,8
 101 596 101 596 146 596 c 0,9,10
 193 596 193 596 222 564 c 128,-1,11
 251 532 251 532 251 494 c 0,12,13
 251 451 251 451 223 422 c 0,0,1
EndSplineSet
EndChar
